<?xml version="1.0" encoding="iso-8859-1"?>
<!-- Generator: Adobe Illustrator 19.0.0, SVG Export Plug-In . SVG Version: 6.00 Build 0)  -->
<svg version="1.1" id="Layer_1" xmlns="http://www.w3.org/2000/svg" xmlns:xlink="http://www.w3.org/1999/xlink" x="0px" y="0px"
	 viewBox="0 0 512 512" style="enable-background:new 0 0 512 512;" xml:space="preserve">
<path style="fill:#8D8A94;" d="M169.517,172.129c-0.879,0-1.768-0.086-2.664-0.267c-7.164-1.457-11.785-8.448-10.327-15.62
	c8.138-39.948,39.215-71.026,79.172-79.164c7.172-1.44,14.164,3.164,15.62,10.327c1.457,7.172-3.164,14.164-10.327,15.62
	c-29.535,6.017-52.5,28.983-58.517,58.508C181.198,167.801,175.681,172.129,169.517,172.129z"/>
<g>
	<rect x="176.552" y="282.483" style="fill:#A7A5AC;" width="17.655" height="185.379"/>
	<rect x="317.793" y="282.483" style="fill:#A7A5AC;" width="17.655" height="185.379"/>
	<polygon style="fill:#A7A5AC;" points="476.69,467.862 459.034,467.862 459.034,185.379 476.69,158.897 	"/>
	<polygon style="fill:#A7A5AC;" points="52.966,467.862 35.31,467.862 35.31,158.897 52.966,185.379 	"/>
</g>
<g>
	<path style="fill:#00D2B9;" d="M256,300.138c-68.147,0-123.586-55.439-123.586-123.586S187.853,52.966,256,52.966
		s123.586,55.439,123.586,123.586S324.147,300.138,256,300.138z M256,70.621c-58.414,0-105.931,47.518-105.931,105.931
		S197.586,282.483,256,282.483s105.931-47.518,105.931-105.931S314.413,70.621,256,70.621z"/>
	<path style="fill:#00D2B9;" d="M256,300.138c-141.155,0-256-114.845-256-256c0-4.879,3.948-8.828,8.828-8.828
		s8.828,3.948,8.828,8.828c0,131.423,106.922,238.345,238.345,238.345S494.345,175.561,494.345,44.138
		c0-4.879,3.948-8.828,8.828-8.828c4.879,0,8.828,3.948,8.828,8.828C512,185.293,397.155,300.138,256,300.138z"/>
</g>
<g>
	<path style="fill:#00BEA9;" d="M330.444,251.81C311.296,270.752,285,282.483,256,282.483c29.557,0,57.786-5.582,83.922-15.468
		c9.557-8.873,17.762-19.164,24.142-30.643C353.369,242.412,342.144,247.599,330.444,251.81z"/>
	<path style="fill:#00BEA9;" d="M135.321,249.549c7.532,12.442,16.989,23.549,27.858,33.097
		c28.8,11.247,60.086,17.492,92.821,17.492c-32.309,0-61.708-12.494-83.718-32.873C159.393,262.413,147.043,256.462,135.321,249.549
		z"/>
</g>
<path style="fill:#8D8A94;" d="M476.69,476.69H35.31c-4.875,0-8.828-3.953-8.828-8.828l0,0c0-4.875,3.953-8.828,8.828-8.828H476.69
	c4.875,0,8.828,3.953,8.828,8.828l0,0C485.517,472.737,481.565,476.69,476.69,476.69z"/>
<path style="fill:#E15050;" d="M158.897,185.379c-4.879,0-8.828-3.948-8.828-8.828c0-58.414,47.517-105.931,105.931-105.931
	c4.879,0,8.828,3.948,8.828,8.828c0,4.879-3.948,8.828-8.828,8.828c-48.672,0-88.276,39.604-88.276,88.276
	C167.724,181.431,163.776,185.379,158.897,185.379z"/>
<g>
</g>
<g>
</g>
<g>
</g>
<g>
</g>
<g>
</g>
<g>
</g>
<g>
</g>
<g>
</g>
<g>
</g>
<g>
</g>
<g>
</g>
<g>
</g>
<g>
</g>
<g>
</g>
<g>
</g>
</svg>
