<?xml version="1.0" encoding="iso-8859-1"?>
<!-- Generator: Adobe Illustrator 19.0.0, SVG Export Plug-In . SVG Version: 6.00 Build 0)  -->
<svg version="1.1" id="Layer_1" xmlns="http://www.w3.org/2000/svg" xmlns:xlink="http://www.w3.org/1999/xlink" x="0px" y="0px"
	 viewBox="0 0 512 512" style="enable-background:new 0 0 512 512;" xml:space="preserve">
<path style="fill:#E15050;" d="M477.867,494.933H34.133c-4.713,0-8.533-3.821-8.533-8.533V256h460.8v230.4
	C486.4,491.113,482.579,494.933,477.867,494.933z"/>
<path style="fill:#504B5A;" d="M162.133,494.933h187.733c0,0-11.183-119.467-17.067-119.467c-33.298,0-61.647-21.191-72.295-50.822
	c-1.517-4.22-7.493-4.22-9.009,0c-10.649,29.631-38.997,50.822-72.295,50.822C173.316,375.467,162.133,494.933,162.133,494.933z"/>
<g>
	<path style="fill:#FFF5E1;" d="M290.133,256c0,0,5.333,146.845,51.2,238.933h25.6c0,0-25.6-104.533-25.6-238.933H290.133z"/>
	<rect x="68.267" y="256" style="fill:#FFF5E1;" width="51.2" height="238.933"/>
	<rect x="392.533" y="256" style="fill:#FFF5E1;" width="51.2" height="238.933"/>
</g>
<path style="fill:#E15050;" d="M325.389,25.6H256v51.2h69.389c6.816,0,10.881-7.596,7.1-13.267L324.267,51.2l8.222-12.333
	C336.27,33.196,332.204,25.6,325.389,25.6z"/>
<path style="fill:#FFF5E1;" d="M221.867,256c0,0-5.333,146.845-51.2,238.933h-25.6c0,0,25.6-104.533,25.6-238.933H221.867z"/>
<path style="fill:#FFD7B9;" d="M460.8,256c0,14.139,11.461,25.6,25.6,25.6S512,270.139,512,256H460.8z"/>
<path style="fill:#D24146;" d="M409.6,256c0,14.139,11.461,25.6,25.6,25.6s25.6-11.461,25.6-25.6H409.6z"/>
<path style="fill:#FFD7B9;" d="M358.4,256c0,14.139,11.461,25.6,25.6,25.6s25.6-11.461,25.6-25.6H358.4z"/>
<path style="fill:#D24146;" d="M307.2,256c0,14.139,11.461,25.6,25.6,25.6s25.6-11.461,25.6-25.6H307.2z"/>
<path style="fill:#FFD7B9;" d="M256,256c0,14.139,11.461,25.6,25.6,25.6s25.6-11.461,25.6-25.6H256z"/>
<path style="fill:#D24146;" d="M204.8,256c0,14.139,11.461,25.6,25.6,25.6S256,270.139,256,256H204.8z"/>
<path style="fill:#FFD7B9;" d="M153.6,256c0,14.139,11.461,25.6,25.6,25.6s25.6-11.461,25.6-25.6H153.6z"/>
<path style="fill:#D24146;" d="M102.4,256c0,14.139,11.461,25.6,25.6,25.6c14.139,0,25.6-11.461,25.6-25.6H102.4z"/>
<path style="fill:#FFD7B9;" d="M51.2,256c0,14.139,11.461,25.6,25.6,25.6s25.6-11.461,25.6-25.6H51.2z"/>
<path style="fill:#D24146;" d="M0,256c0,14.139,11.461,25.6,25.6,25.6s25.6-11.461,25.6-25.6H0z"/>
<polyline style="fill:#E15050;" points="512,256 256,93.867 0,256 "/>
<g>
	<polygon style="fill:#FFF5E1;" points="256,93.867 51.2,256 102.4,256 	"/>
	<polygon style="fill:#FFF5E1;" points="256,93.867 153.6,256 204.8,256 	"/>
	<polygon style="fill:#FFF5E1;" points="256,256 256,93.867 307.2,256 	"/>
	<polygon style="fill:#FFF5E1;" points="358.4,256 256,93.867 409.6,256 	"/>
	<polygon style="fill:#FFF5E1;" points="460.8,256 256,93.867 512,256 	"/>
</g>
<path style="fill:#D24146;" d="M264.533,102.4h-17.067V25.6c0-4.713,3.821-8.533,8.533-8.533l0,0c4.713,0,8.533,3.821,8.533,8.533
	V102.4z"/>
<path style="fill:#E15050;" d="M296.421,119.467l-31.29-19.817c-5.575-3.532-12.688-3.532-18.263,0l-31.29,19.817H296.421z"/>
<g>
</g>
<g>
</g>
<g>
</g>
<g>
</g>
<g>
</g>
<g>
</g>
<g>
</g>
<g>
</g>
<g>
</g>
<g>
</g>
<g>
</g>
<g>
</g>
<g>
</g>
<g>
</g>
<g>
</g>
</svg>
