<?xml version="1.0" encoding="iso-8859-1"?>
<!-- Generator: Adobe Illustrator 19.0.0, SVG Export Plug-In . SVG Version: 6.00 Build 0)  -->
<svg version="1.1" id="Layer_1" xmlns="http://www.w3.org/2000/svg" xmlns:xlink="http://www.w3.org/1999/xlink" x="0px" y="0px"
	 viewBox="0 0 512 512" style="enable-background:new 0 0 512 512;" xml:space="preserve">
<polygon style="fill:#8D8A94;" points="468.931,472.077 256,80.276 43.069,472.077 27.552,463.647 256,43.31 484.448,463.647 "/>
<path style="fill:#E15050;" d="M318.876,150.069H256v44.138h62.876c6.176,0,9.859-6.548,6.434-11.437l-7.452-10.632l7.451-10.632
	C328.735,156.617,325.052,150.069,318.876,150.069z"/>
<path style="fill:#625D6B;" d="M503.172,485.517H8.828c-4.875,0-8.828-3.953-8.828-8.828v-8.828c0-4.875,3.953-8.828,8.828-8.828
	h494.345c4.875,0,8.828,3.953,8.828,8.828v8.828C512,481.565,508.047,485.517,503.172,485.517z"/>
<path style="fill:#E68C5A;" d="M353.095,361.931l-29.398,35.31h-164.8v-26.483H77.364l12.776,25.55
	c2.99,5.982,9.103,9.76,15.791,9.76l0,0c5.557,0,10.79,2.616,14.124,7.062l15.89,21.186c3.334,4.446,8.567,7.062,14.124,7.062
	h204.516c10.829,0,20.567-6.593,24.589-16.648l5.461-13.653c3.436-8.591,11.107-14.765,20.234-16.287l26.204-4.367
	c7.655-1.276,14.364-5.844,18.356-12.498l9.597-15.996C422.137,361.931,353.095,361.931,353.095,361.931z"/>
<path style="fill:#DC7850;" d="M467.853,353.103H361.912c-8.33,0-16.173,3.922-21.171,10.586l-15.896,21.198
	c-1.664,2.219-4.277,3.526-7.051,3.526h-52.966V70.621h-17.655v317.793h-79.448v-8.828v-17.655c0-4.875-3.953-8.828-8.828-8.828
	H79.448c-4.875,0-8.828,3.953-8.828,8.828v8.828c0,4.875,3.953,8.828,8.828,8.828h70.621v8.828c0,9.751,7.904,17.655,17.655,17.655
	h150.07c8.33,0,16.173-3.922,21.171-10.586l15.896-21.198c1.664-2.219,4.277-3.526,7.051-3.526h105.94
	c4.879,0,8.828-3.948,8.828-8.828S472.733,353.103,467.853,353.103z"/>
<circle style="fill:#FFC855;" cx="256" cy="52.966" r="26.483"/>
<circle style="fill:#FFA54B;" cx="256" cy="52.966" r="8.828"/>
<path style="fill:#FFC855;" d="M320.49,335.448H182.037c-3.479,0-6.03-3.038-5.385-6.317c6.065-30.763,6.065-62.535,0-93.298
	c-0.647-3.278,1.906-6.317,5.385-6.317H320.49c5.274,0,9.905,3.561,10.838,8.541c5.494,29.326,5.494,59.522,0,88.849
	C330.395,331.887,325.764,335.448,320.49,335.448z"/>
<g>
	<path style="fill:#E15050;" d="M307.479,229.517c7.842,34.816,7.842,71.115,0,105.931h-21.727c7.842-34.816,7.842-71.115,0-105.931
		H307.479z"/>
	<path style="fill:#E15050;" d="M263.306,229.517c7.842,34.816,7.842,71.115,0,105.931h-21.727c7.842-34.816,7.842-71.115,0-105.931
		H263.306z"/>
	<path style="fill:#E15050;" d="M219.132,229.517c7.842,34.816,7.842,71.115,0,105.931h-21.727c7.842-34.816,7.842-71.115,0-105.931
		H219.132z"/>
</g>
<g>
</g>
<g>
</g>
<g>
</g>
<g>
</g>
<g>
</g>
<g>
</g>
<g>
</g>
<g>
</g>
<g>
</g>
<g>
</g>
<g>
</g>
<g>
</g>
<g>
</g>
<g>
</g>
<g>
</g>
</svg>
