<?xml version="1.0" encoding="iso-8859-1"?>
<!-- Generator: Adobe Illustrator 19.0.0, SVG Export Plug-In . SVG Version: 6.00 Build 0)  -->
<svg version="1.1" id="Layer_1" xmlns="http://www.w3.org/2000/svg" xmlns:xlink="http://www.w3.org/1999/xlink" x="0px" y="0px"
	 viewBox="0 0 512 512" style="enable-background:new 0 0 512 512;" xml:space="preserve">
<path style="fill:#FFC855;" d="M256,397.241c-92.483,0-167.724-75.242-167.724-167.724S163.518,61.793,256,61.793
	s167.724,75.242,167.724,167.724S348.483,397.241,256,397.241z M256,79.448c-82.75,0-150.069,67.319-150.069,150.069
	S173.25,379.586,256,379.586s150.069-67.319,150.069-150.069S338.75,79.448,256,79.448z"/>
<polygon style="fill:#A7A5AC;" points="459.034,220.69 277.311,220.69 399.567,98.434 387.083,85.95 264.828,208.205 264.828,35.31 
	247.172,35.31 247.172,208.205 124.917,85.95 112.433,98.434 234.689,220.69 52.966,220.69 52.966,238.345 234.688,238.345 
	112.433,360.6 124.917,373.084 247.172,250.829 247.172,423.724 264.828,423.724 264.828,250.829 387.083,373.084 399.567,360.6 
	277.312,238.345 459.034,238.345 "/>
<g>
	<rect x="388.414" y="79.448" style="fill:#8D8A94;" width="17.655" height="35.31"/>
	<rect x="105.931" y="79.448" style="fill:#8D8A94;" width="17.655" height="35.31"/>
</g>
<g>
	<path style="fill:#E68C5A;" d="M419.788,88.276c2.978,0,4.948-2.848,3.389-5.044c-5.366-7.554-14.933-12.611-25.935-12.611
		s-20.569,5.057-25.934,12.611c-1.559,2.196,0.409,5.044,3.389,5.044H419.788z"/>
	<path style="fill:#E68C5A;" d="M374.695,105.931c-2.978,0-4.948,2.848-3.389,5.044c5.366,7.554,14.933,12.611,25.935,12.611
		s20.569-5.057,25.934-12.611c1.559-2.196-0.409-5.044-3.389-5.044H374.695z"/>
</g>
<rect x="105.931" y="344.276" style="fill:#8D8A94;" width="17.655" height="35.31"/>
<g>
	<path style="fill:#E68C5A;" d="M137.305,353.103c2.978,0,4.948-2.848,3.389-5.044c-5.366-7.554-14.933-12.611-25.935-12.611
		s-20.569,5.057-25.934,12.611c-1.559,2.196,0.409,5.044,3.389,5.044H137.305z"/>
	<path style="fill:#E68C5A;" d="M92.212,370.759c-2.978,0-4.948,2.848-3.389,5.044c5.366,7.554,14.933,12.611,25.935,12.611
		s20.569-5.057,25.934-12.611c1.559-2.196-0.409-5.044-3.389-5.044H92.212z"/>
</g>
<g>
	<path style="fill:#66D8E4;" d="M92.212,88.276c-2.978,0-4.948-2.848-3.389-5.044c5.366-7.554,14.933-12.611,25.935-12.611
		s20.569,5.057,25.934,12.611c1.559,2.196-0.409,5.044-3.389,5.044H92.212z"/>
	<path style="fill:#66D8E4;" d="M137.305,105.931c2.978,0,4.948,2.848,3.389,5.044c-5.366,7.554-14.933,12.611-25.935,12.611
		s-20.569-5.057-25.934-12.611c-1.56-2.196,0.409-5.044,3.388-5.044H137.305z"/>
</g>
<rect x="388.414" y="344.276" style="fill:#8D8A94;" width="17.655" height="35.31"/>
<g>
	<path style="fill:#66D8E4;" d="M374.695,353.103c-2.978,0-4.948-2.848-3.389-5.044c5.366-7.554,14.933-12.611,25.935-12.611
		s20.569,5.057,25.934,12.611c1.559,2.196-0.409,5.044-3.389,5.044H374.695z"/>
	<path style="fill:#66D8E4;" d="M419.788,370.759c2.978,0,4.948,2.848,3.389,5.044c-5.366,7.554-14.933,12.611-25.935,12.611
		s-20.569-5.057-25.934-12.611c-1.559-2.196,0.409-5.044,3.389-5.044H419.788z"/>
</g>
<path style="fill:#E68C5A;" d="M256,361.931c-73.017,0-132.414-59.396-132.414-132.414S182.983,97.103,256,97.103
	S388.414,156.5,388.414,229.517S329.017,361.931,256,361.931z M256,114.759c-63.276,0-114.759,51.482-114.759,114.759
	S192.724,344.276,256,344.276s114.759-51.482,114.759-114.759S319.276,114.759,256,114.759z"/>
<g>
	<polygon style="fill:#FFA54B;" points="273.284,226.983 256.371,232.052 335.819,496.879 352.733,491.81 	"/>
	<polygon style="fill:#FFA54B;" points="238.716,226.983 159.267,491.81 176.181,496.879 255.629,232.052 	"/>
</g>
<path style="fill:#A7A5AC;" d="M379.586,512H132.414c-4.875,0-8.828-3.953-8.828-8.828v-8.828c0-4.875,3.953-8.828,8.828-8.828
	h247.172c4.875,0,8.828,3.953,8.828,8.828v8.828C388.414,508.047,384.461,512,379.586,512z"/>
<circle style="fill:#FFC855;" cx="256" cy="229.517" r="35.31"/>
<circle style="fill:#FFA54B;" cx="256" cy="229.517" r="17.655"/>
<rect x="247.172" y="8.828" style="fill:#8D8A94;" width="17.655" height="35.31"/>
<g>
	<path style="fill:#00D2B9;" d="M278.547,17.655c2.978,0,4.948-2.848,3.389-5.044C276.569,5.057,267.002,0,256,0
		c-11.002,0-20.569,5.057-25.934,12.611c-1.559,2.196,0.409,5.044,3.389,5.044H278.547z"/>
	<path style="fill:#00D2B9;" d="M233.453,35.31c-2.978,0-4.948,2.848-3.389,5.044c5.366,7.554,14.933,12.611,25.935,12.611
		c11.002,0,20.569-5.057,25.934-12.611c1.559-2.196-0.409-5.044-3.389-5.044H233.453z"/>
</g>
<rect x="450.207" y="211.862" style="fill:#8D8A94;" width="17.655" height="35.31"/>
<g>
	<path style="fill:#00D2B9;" d="M481.581,220.69c2.978,0,4.948-2.848,3.389-5.044c-5.366-7.554-14.933-12.611-25.935-12.611
		c-11.002,0-20.569,5.057-25.934,12.611c-1.559,2.196,0.409,5.044,3.389,5.044H481.581z"/>
	<path style="fill:#00D2B9;" d="M436.488,238.345c-2.978,0-4.948,2.848-3.389,5.044c5.366,7.554,14.933,12.611,25.935,12.611
		c11.003,0,20.569-5.057,25.934-12.611c1.559-2.196-0.409-5.044-3.389-5.044H436.488z"/>
</g>
<rect x="44.138" y="211.862" style="fill:#8D8A94;" width="17.655" height="35.31"/>
<g>
	<path style="fill:#00D2B9;" d="M75.512,220.69c2.978,0,4.948-2.848,3.389-5.044c-5.366-7.554-14.933-12.611-25.935-12.611
		s-20.569,5.057-25.934,12.611c-1.559,2.196,0.409,5.044,3.389,5.044H75.512z"/>
	<path style="fill:#00D2B9;" d="M30.419,238.345c-2.978,0-4.948,2.848-3.389,5.044C32.396,250.943,41.963,256,52.966,256
		s20.569-5.057,25.934-12.611c1.559-2.196-0.409-5.044-3.389-5.044H30.419z"/>
</g>
<rect x="247.172" y="414.897" style="fill:#8D8A94;" width="17.655" height="35.31"/>
<g>
	<path style="fill:#00D2B9;" d="M278.547,423.724c2.978,0,4.948-2.848,3.389-5.044c-5.366-7.554-14.933-12.611-25.935-12.611
		c-11.002,0-20.569,5.057-25.934,12.611c-1.559,2.196,0.409,5.044,3.389,5.044H278.547z"/>
	<path style="fill:#00D2B9;" d="M233.453,441.379c-2.978,0-4.948,2.848-3.389,5.044c5.366,7.554,14.933,12.611,25.935,12.611
		c11.002,0,20.569-5.057,25.934-12.611c1.559-2.196-0.409-5.044-3.389-5.044H233.453z"/>
</g>
<g>
</g>
<g>
</g>
<g>
</g>
<g>
</g>
<g>
</g>
<g>
</g>
<g>
</g>
<g>
</g>
<g>
</g>
<g>
</g>
<g>
</g>
<g>
</g>
<g>
</g>
<g>
</g>
<g>
</g>
</svg>
