<?xml version="1.0" encoding="iso-8859-1"?>
<!-- Generator: Adobe Illustrator 19.0.0, SVG Export Plug-In . SVG Version: 6.00 Build 0)  -->
<svg version="1.1" id="Layer_1" xmlns="http://www.w3.org/2000/svg" xmlns:xlink="http://www.w3.org/1999/xlink" x="0px" y="0px"
	 viewBox="0 0 512 512" style="enable-background:new 0 0 512 512;" xml:space="preserve">
<g>
	<path style="fill:#8D8A94;" d="M336.708,463.319l-15.776,26.293c-0.931,1.543-2.362,1.775-3.138,1.775s-2.207-0.233-3.138-1.784
		l-15.776-26.284l-15.138,9.086l15.776,26.276c3.88,6.483,10.716,10.362,18.276,10.362c7.561,0,14.397-3.88,18.276-10.354
		l15.776-26.284L336.708,463.319z"/>
	<path style="fill:#8D8A94;" d="M213.122,463.319l-15.776,26.293c-0.931,1.543-2.362,1.775-3.138,1.775s-2.207-0.233-3.138-1.784
		l-15.776-26.284l-15.138,9.086l15.776,26.276c3.88,6.483,10.716,10.362,18.276,10.362c7.561,0,14.397-3.88,18.276-10.354
		l15.776-26.284L213.122,463.319z"/>
</g>
<path style="fill:#FFA54B;" d="M361.932,476.69H150.07c-4.879,0-8.828-3.948-8.828-8.828c0-4.879,3.948-8.828,8.828-8.828h211.862
	c4.879,0,8.828,3.948,8.828,8.828C370.759,472.742,366.811,476.69,361.932,476.69z"/>
<g>
	<polygon style="fill:#736F7B;" points="105.129,5.155 89.079,12.5 230.32,321.465 246.371,314.121 	"/>
	<polygon style="fill:#736F7B;" points="406.872,5.155 265.63,314.121 281.681,321.465 422.922,12.5 	"/>
</g>
<g>
	<path style="fill:#FFC855;" d="M88.759,17.655h8.345c4.879,0,8.828-3.948,8.828-8.828S101.983,0,97.104,0H79.449
		c-2.422,0-4.742,1-6.406,2.759c-1.673,1.759-2.543,4.12-2.414,6.543l26.483,494.345l17.638-0.948L88.759,17.655z"/>
	<path style="fill:#FFC855;" d="M438.958,2.759C437.294,1,434.974,0,432.552,0h-17.655c-4.879,0-8.828,3.948-8.828,8.828
		s3.948,8.828,8.828,8.828h8.345l-25.992,485.043l17.638,0.948L441.371,9.301C441.5,6.879,440.63,4.518,438.958,2.759z"/>
</g>
<path style="fill:#B9B7BD;" d="M423.725,512H88.276c-4.879,0-8.828-3.948-8.828-8.828c0-4.879,3.948-8.828,8.828-8.828h335.448
	c4.879,0,8.828,3.948,8.828,8.828C432.552,508.052,428.604,512,423.725,512z"/>
<path style="fill:#E15050;" d="M256.001,361.931c-14.603,0-26.483-11.88-26.483-26.483v-26.483c0-4.879,3.948-8.828,8.828-8.828
	h35.31c4.879,0,8.828,3.948,8.828,8.828v26.483C282.483,350.051,270.604,361.931,256.001,361.931z M247.173,317.793v17.655
	c0,4.871,3.957,8.828,8.828,8.828c4.871,0,8.828-3.957,8.828-8.828v-17.655H247.173z"/>
<rect x="238.345" y="300.138" style="fill:#8D8A94;" width="35.31" height="17.655"/>
<g>
	<path style="fill:#D24146;" d="M238.345,335.448L238.345,335.448c-4.875,0-8.828-3.953-8.828-8.828v-17.655
		c0-4.875,3.953-8.828,8.828-8.828l0,0c4.875,0,8.828,3.953,8.828,8.828v17.655C247.173,331.496,243.22,335.448,238.345,335.448z"/>
	<path style="fill:#D24146;" d="M273.656,335.448L273.656,335.448c-4.875,0-8.828-3.953-8.828-8.828v-17.655
		c0-4.875,3.953-8.828,8.828-8.828l0,0c4.875,0,8.828,3.953,8.828,8.828v17.655C282.483,331.496,278.531,335.448,273.656,335.448z"
		/>
</g>
<g>
</g>
<g>
</g>
<g>
</g>
<g>
</g>
<g>
</g>
<g>
</g>
<g>
</g>
<g>
</g>
<g>
</g>
<g>
</g>
<g>
</g>
<g>
</g>
<g>
</g>
<g>
</g>
<g>
</g>
</svg>
