<?xml version="1.0" encoding="iso-8859-1"?>
<!-- Generator: Adobe Illustrator 19.0.0, SVG Export Plug-In . SVG Version: 6.00 Build 0)  -->
<svg version="1.1" id="Layer_1" xmlns="http://www.w3.org/2000/svg" xmlns:xlink="http://www.w3.org/1999/xlink" x="0px" y="0px"
	 viewBox="0 0 512 512" style="enable-background:new 0 0 512 512;" xml:space="preserve">
<rect x="441.379" y="203.034" style="fill:#B9B7BD;" width="17.655" height="238.345"/>
<path style="fill:#FFC855;" d="M476.69,467.862c-4.879,0-8.828-3.948-8.828-8.828v-8.828h-26.483
	c-9.732,0-17.655-7.923-17.655-17.655v-35.31c0-4.879,3.948-8.828,8.828-8.828c4.879,0,8.828,3.948,8.828,8.828v35.31h26.483
	c9.732,0,17.655,7.923,17.655,17.655v8.828C485.517,463.914,481.569,467.862,476.69,467.862z"/>
<path style="fill:#FFA54B;" d="M450.207,423.724L450.207,423.724c-4.875,0-8.828,3.953-8.828,8.828v8.828
	c0,4.875,3.953,8.828,8.828,8.828l0,0c4.875,0,8.828-3.953,8.828-8.828v-8.828C459.034,427.677,455.082,423.724,450.207,423.724z"/>
<rect x="52.966" y="203.034" style="fill:#B9B7BD;" width="17.655" height="238.345"/>
<path style="fill:#FFC855;" d="M88.276,467.862c-4.879,0-8.828-3.948-8.828-8.828v-8.828H52.966
	c-9.732,0-17.655-7.923-17.655-17.655v-35.31c0-4.879,3.948-8.828,8.828-8.828s8.828,3.948,8.828,8.828v35.31h26.483
	c9.732,0,17.655,7.923,17.655,17.655v8.828C97.103,463.914,93.155,467.862,88.276,467.862z"/>
<path style="fill:#FFA54B;" d="M61.793,423.724L61.793,423.724c-4.875,0-8.828,3.953-8.828,8.828v8.828
	c0,4.875,3.953,8.828,8.828,8.828l0,0c4.875,0,8.828-3.953,8.828-8.828v-8.828C70.621,427.677,66.668,423.724,61.793,423.724z"/>
<rect x="194.207" y="194.207" style="fill:#00D2B9;" width="123.586" height="300.138"/>
<g>
	<path style="fill:#00BEA9;" d="M335.448,512H176.552c-4.875,0-8.828-3.953-8.828-8.828v-8.828c0-4.875,3.953-8.828,8.828-8.828
		h158.897c4.875,0,8.828,3.953,8.828,8.828v8.828C344.276,508.047,340.323,512,335.448,512z"/>
	<path style="fill:#00BEA9;" d="M44.138,203.034l135.65,67.825c3.678,1.838,7.732,2.796,11.843,2.796H320.37
		c4.111,0,8.165-0.958,11.843-2.796l135.649-67.825H44.138z"/>
</g>
<g>
	<path style="fill:#B9B7BD;" d="M264.828,441.379h-17.655V211.862c0-4.875,3.953-8.828,8.828-8.828l0,0
		c4.875,0,8.828,3.953,8.828,8.828V441.379z"/>
	<path style="fill:#B9B7BD;" d="M167.724,441.379h-17.655V211.862c0-4.875,3.953-8.828,8.828-8.828l0,0
		c4.875,0,8.828,3.953,8.828,8.828V441.379z"/>
</g>
<path style="fill:#E15050;" d="M185.379,467.862c-4.879,0-8.828-3.948-8.828-8.828v-8.828h-26.483
	c-9.732,0-17.655-7.923-17.655-17.655v-35.31c0-4.879,3.948-8.828,8.828-8.828s8.828,3.948,8.828,8.828v35.31h26.483
	c9.732,0,17.655,7.923,17.655,17.655v8.828C194.207,463.914,190.259,467.862,185.379,467.862z"/>
<path style="fill:#D24146;" d="M158.897,423.724L158.897,423.724c-4.875,0-8.828,3.953-8.828,8.828v8.828
	c0,4.875,3.953,8.828,8.828,8.828l0,0c4.875,0,8.828-3.953,8.828-8.828v-8.828C167.724,427.677,163.772,423.724,158.897,423.724z"/>
<path style="fill:#B9B7BD;" d="M361.931,441.379h-17.655V211.862c0-4.875,3.953-8.828,8.828-8.828l0,0
	c4.875,0,8.828,3.953,8.828,8.828V441.379z"/>
<path style="fill:#E15050;" d="M379.586,467.862c-4.879,0-8.828-3.948-8.828-8.828v-8.828h-26.483
	c-9.732,0-17.655-7.923-17.655-17.655v-35.31c0-4.879,3.948-8.828,8.828-8.828s8.828,3.948,8.828,8.828v35.31h26.483
	c9.732,0,17.655,7.923,17.655,17.655v8.828C388.414,463.914,384.466,467.862,379.586,467.862z"/>
<path style="fill:#D24146;" d="M353.103,423.724L353.103,423.724c-4.875,0-8.828,3.953-8.828,8.828v8.828
	c0,4.875,3.953,8.828,8.828,8.828l0,0c4.875,0,8.828-3.953,8.828-8.828v-8.828C361.931,427.677,357.978,423.724,353.103,423.724z"/>
<path style="fill:#FFC855;" d="M282.483,467.862c-4.879,0-8.828-3.948-8.828-8.828v-8.828h-26.483
	c-9.732,0-17.655-7.923-17.655-17.655v-35.31c0-4.879,3.948-8.828,8.828-8.828c4.879,0,8.828,3.948,8.828,8.828v35.31h26.483
	c9.732,0,17.655,7.923,17.655,17.655v8.828C291.31,463.914,287.362,467.862,282.483,467.862z"/>
<path style="fill:#FFA54B;" d="M256,423.724L256,423.724c-4.875,0-8.828,3.953-8.828,8.828v8.828c0,4.875,3.953,8.828,8.828,8.828
	l0,0c4.875,0,8.828-3.953,8.828-8.828v-8.828C264.828,427.677,260.875,423.724,256,423.724z"/>
<path style="fill:#FFC855;" d="M485.517,211.862H26.483c-4.875,0-8.828-3.953-8.828-8.828v-26.483c0-4.875,3.953-8.828,8.828-8.828
	h459.034c4.875,0,8.828,3.953,8.828,8.828v26.483C494.345,207.91,490.392,211.862,485.517,211.862z"/>
<g>
	<circle style="fill:#FFA54B;" cx="256" cy="211.862" r="17.655"/>
	<circle style="fill:#FFA54B;" cx="61.793" cy="211.862" r="17.655"/>
</g>
<g>
	<circle style="fill:#E15050;" cx="158.897" cy="211.862" r="17.655"/>
	<circle style="fill:#E15050;" cx="353.103" cy="211.862" r="17.655"/>
</g>
<circle style="fill:#FFA54B;" cx="450.207" cy="211.862" r="17.655"/>
<polyline style="fill:#FFF5E1;" points="476.69,167.724 256,79.448 35.31,167.724 "/>
<g>
	<polygon style="fill:#E15050;" points="229.517,167.724 256,79.448 282.483,167.724 	"/>
	<polygon style="fill:#E15050;" points="326.621,167.724 256,79.448 379.586,167.724 	"/>
	<polygon style="fill:#E15050;" points="423.724,167.724 256,79.448 476.69,167.724 	"/>
	<polygon style="fill:#E15050;" points="185.379,167.724 256,79.448 132.414,167.724 	"/>
	<polygon style="fill:#E15050;" points="88.276,167.724 256,79.448 35.31,167.724 	"/>
	<path style="fill:#E15050;" d="M327.782,8.828H256v52.966h71.782c7.051,0,11.256-7.858,7.345-13.725l-8.505-12.758l8.505-12.758
		C339.038,16.685,334.831,8.828,327.782,8.828z"/>
</g>
<path style="fill:#D24146;" d="M264.828,88.276h-17.655V8.828C247.172,3.953,251.125,0,256,0l0,0c4.875,0,8.828,3.953,8.828,8.828
	V88.276z"/>
<path style="fill:#E15050;" d="M211.862,97.103h88.276l-37.581-15.032c-4.21-1.684-8.905-1.684-13.113,0L211.862,97.103z"/>
<g>
</g>
<g>
</g>
<g>
</g>
<g>
</g>
<g>
</g>
<g>
</g>
<g>
</g>
<g>
</g>
<g>
</g>
<g>
</g>
<g>
</g>
<g>
</g>
<g>
</g>
<g>
</g>
<g>
</g>
</svg>
