<?xml version="1.0" encoding="iso-8859-1"?>
<!-- Generator: Adobe Illustrator 19.0.0, SVG Export Plug-In . SVG Version: 6.00 Build 0)  -->
<svg version="1.1" id="Layer_1" xmlns="http://www.w3.org/2000/svg" xmlns:xlink="http://www.w3.org/1999/xlink" x="0px" y="0px"
	 viewBox="0 0 512 512" style="enable-background:new 0 0 512 512;" xml:space="preserve">
<path style="fill:#8D8A94;" d="M431.233,107.783c-9.85-2.159-20-3.25-30.166-3.25c-32.708,0-63.025,10.475-87.667,30.3
	c-9.175,7.392-10.634,20.817-3.25,30l137.358-31.642C450.025,121.683,442.741,110.308,431.233,107.783z"/>
<g>
	<rect x="42.667" y="160" style="fill:#B9B7BD;" width="17.067" height="170.667"/>
	<rect x="76.8" y="151.467" style="fill:#B9B7BD;" width="17.067" height="187.733"/>
	<rect x="110.933" y="151.467" style="fill:#B9B7BD;" width="17.067" height="187.733"/>
	<rect x="145.067" y="151.467" style="fill:#B9B7BD;" width="17.067" height="187.733"/>
	<rect x="179.2" y="177.067" style="fill:#B9B7BD;" width="17.067" height="136.533"/>
	<rect x="213.333" y="211.2" style="fill:#B9B7BD;" width="17.067" height="68.267"/>
</g>
<g>
	<rect x="486.4" y="202.667" style="fill:#A7A5AC;" width="17.067" height="196.267"/>
	<rect x="452.267" y="160" style="fill:#A7A5AC;" width="17.067" height="238.933"/>
	<rect x="418.133" y="151.467" style="fill:#A7A5AC;" width="17.067" height="247.467"/>
	<rect x="384" y="151.467" style="fill:#A7A5AC;" width="17.067" height="247.467"/>
	<rect x="349.867" y="151.467" style="fill:#A7A5AC;" width="17.067" height="247.467"/>
	<rect x="315.733" y="178.496" style="fill:#A7A5AC;" width="17.067" height="220.437"/>
	<rect x="281.6" y="211.2" style="fill:#A7A5AC;" width="17.067" height="187.733"/>
	<rect x="247.467" y="245.333" style="fill:#A7A5AC;" width="17.067" height="153.6"/>
	<rect x="213.333" y="279.467" style="fill:#A7A5AC;" width="17.067" height="119.467"/>
	<rect x="179.2" y="313.6" style="fill:#A7A5AC;" width="17.067" height="85.333"/>
	<rect x="145.067" y="339.2" style="fill:#A7A5AC;" width="17.067" height="59.733"/>
	<rect x="76.8" y="347.733" style="fill:#A7A5AC;" width="17.067" height="51.2"/>
	<rect x="42.667" y="330.667" style="fill:#A7A5AC;" width="17.067" height="68.267"/>
	<rect x="8.533" y="288" style="fill:#A7A5AC;" width="17.067" height="110.933"/>
	<rect x="110.933" y="347.733" style="fill:#A7A5AC;" width="17.067" height="51.2"/>
</g>
<path style="fill:#8D8A94;" d="M503.467,407.467H8.533c-4.717,0-8.533-3.817-8.533-8.533s3.817-8.533,8.533-8.533h494.933
	c4.717,0,8.533,3.817,8.533,8.533S508.184,407.467,503.467,407.467z"/>
<path style="fill:#E15050;" d="M110.933,356.267C49.766,356.267,0,306.5,0,245.333S49.766,134.4,110.933,134.4
	c27.975,0,54.675,10.433,75.209,29.383c0.109,0.1,0.217,0.201,0.325,0.308L256,233.3l62.25-61.958
	c21.434-24.042,50.192-36.942,82.817-36.942C462.234,134.4,512,184.166,512,245.333c0,4.717-3.816,8.533-8.533,8.533
	s-8.533-3.817-8.533-8.533c0-51.758-42.109-93.867-93.867-93.867c-27.625,0-51.975,10.933-70.433,31.609l-68.367,68.05
	c-0.067,0.075-0.142,0.15-0.217,0.225c-0.092,0.1-0.192,0.192-0.291,0.275l-75.292,74.95
	C165.683,345.801,138.942,356.267,110.933,356.267z M110.933,151.467c-51.758,0-93.867,42.109-93.867,93.867
	S59.175,339.2,110.933,339.2c23.7,0,46.334-8.859,63.725-24.942l69.25-68.925l-69.35-69.017
	C157.191,160.291,134.601,151.467,110.933,151.467z"/>
<polygon style="fill:#D24146;" points="256,233.3 244.974,222.325 232.882,234.359 243.908,245.333 243.841,245.401 "/>
<path style="fill:#FFC855;" d="M312.05,174c-2.033,0-4.067-0.717-5.692-2.175c-3.508-3.141-3.808-8.542-0.667-12.05
	c24.859-27.766,57.834-42.442,95.375-42.442c15.742,0,31.117,2.833,45.716,8.433c4.4,1.683,6.601,6.625,4.909,11.025
	c-1.683,4.4-6.608,6.583-11.025,4.909c-12.634-4.842-25.958-7.3-39.6-7.3c-32.55,0-61.134,12.708-82.658,36.758
	C316.725,173.042,314.391,174,312.05,174z"/>
<g>
</g>
<g>
</g>
<g>
</g>
<g>
</g>
<g>
</g>
<g>
</g>
<g>
</g>
<g>
</g>
<g>
</g>
<g>
</g>
<g>
</g>
<g>
</g>
<g>
</g>
<g>
</g>
<g>
</g>
</svg>
