<?xml version="1.0" encoding="iso-8859-1"?>
<!-- Generator: Adobe Illustrator 19.0.0, SVG Export Plug-In . SVG Version: 6.00 Build 0)  -->
<svg version="1.1" id="Layer_1" xmlns="http://www.w3.org/2000/svg" xmlns:xlink="http://www.w3.org/1999/xlink" x="0px" y="0px"
	 viewBox="0 0 512 512" style="enable-background:new 0 0 512 512;" xml:space="preserve">
<path style="fill:#FFA54B;" d="M297.551,108.518l-29.068-29.069l29.069-29.069c3.448-3.448,3.448-9.035,0-12.483
	c-3.448-3.448-9.035-3.448-12.483,0L256,66.966l-29.069-29.069c-3.448-3.448-9.035-3.448-12.483,0
	c-3.448,3.448-3.448,9.035,0,12.483l29.07,29.068l-29.069,29.069c-3.448,3.448-3.448,9.035,0,12.483l29.069,29.068l-29.069,29.069
	c-3.448,3.448-3.448,9.035,0,12.483l29.069,29.068l-29.069,29.069c-3.448,3.448-3.448,9.035,0,12.483l29.069,29.068l-29.069,29.069
	c-3.448,3.448-3.448,9.035,0,12.483l29.069,29.068L214.449,391c-3.448,3.448-3.448,9.035,0,12.483l29.069,29.068l-29.069,29.069
	c-3.448,3.448-3.448,9.035,0,12.483c1.725,1.725,3.982,2.586,6.241,2.586s4.518-0.862,6.241-2.586L256,445.035l29.069,29.069
	c1.725,1.725,3.982,2.586,6.241,2.586s4.518-0.862,6.241-2.586c3.448-3.448,3.448-9.035,0-12.483l-29.068-29.069l29.069-29.069
	c3.448-3.448,3.448-9.035,0-12.483l-29.069-29.068l29.069-29.069c3.448-3.448,3.448-9.035,0-12.483l-29.069-29.068l29.069-29.069
	c3.448-3.448,3.448-9.035,0-12.483l-29.069-29.068l29.069-29.069c3.448-3.448,3.448-9.035,0-12.483l-29.069-29.068L297.553,121
	C301,117.551,301,111.966,297.551,108.518z M278.828,397.241L256,420.069l-22.827-22.828L256,374.414L278.828,397.241z
	 M278.828,326.621L256,349.449l-22.827-22.828L256,303.794L278.828,326.621z M278.828,256L256,278.828L233.173,256L256,233.173
	L278.828,256z M278.828,185.379L256,208.207l-22.827-22.828L256,162.552L278.828,185.379z M256,137.587l-22.827-22.828L256,91.932
	l22.828,22.827L256,137.587z"/>
<g>
	<rect x="211.862" y="8.828" style="fill:#FFC855;" width="17.655" height="485.517"/>
	<rect x="282.483" y="8.828" style="fill:#FFC855;" width="17.655" height="485.517"/>
</g>
<path style="fill:#B9B7BD;" d="M291.31,35.31H220.69c-4.875,0-8.828-3.953-8.828-8.828V8.828h88.276v17.655
	C300.138,31.358,296.185,35.31,291.31,35.31z"/>
<path style="fill:#FFA54B;" d="M326.621,512H185.379c-4.875,0-8.828-3.953-8.828-8.828l0,0c0-4.875,3.953-8.828,8.828-8.828h141.241
	c4.875,0,8.828,3.953,8.828,8.828l0,0C335.448,508.047,331.496,512,326.621,512z"/>
<path style="fill:#B9B7BD;" d="M317.793,494.345H194.207v-8.828c0-4.875,3.953-8.828,8.828-8.828h105.931
	c4.875,0,8.828,3.953,8.828,8.828V494.345z"/>
<path style="fill:#D24146;" d="M317.793,97.103h-17.655c-4.875,0-8.828,3.953-8.828,8.828c0-4.875-3.953-8.828-8.828-8.828h-17.655
	c-4.875,0-8.828,3.953-8.828,8.828c0-4.875-3.953-8.828-8.828-8.828h-17.655c-4.875,0-8.828,3.953-8.828,8.828
	c0-4.875-3.953-8.828-8.828-8.828h-17.655c-4.875,0-8.828,3.953-8.828,8.828v26.483h141.241v-26.483
	C326.621,101.056,322.668,97.103,317.793,97.103z"/>
<g>
	<path style="fill:#E15050;" d="M317.793,132.414c0-4.875-3.953-8.828-8.828-8.828s-8.828,3.953-8.828,8.828h-17.655
		c0-4.875-3.953-8.828-8.828-8.828s-8.828,3.953-8.828,8.828h-17.655c0-4.875-3.953-8.828-8.828-8.828
		c-4.875,0-8.828,3.953-8.828,8.828h-17.655c0-4.875-3.953-8.828-8.828-8.828s-8.828,3.953-8.828,8.828h-8.828v8.828
		c0,4.875,3.953,8.828,8.828,8.828h123.586c4.875,0,8.828-3.953,8.828-8.828v-8.828H317.793z"/>
	<circle style="fill:#E15050;" cx="238.345" cy="97.103" r="8.828"/>
	<circle style="fill:#E15050;" cx="273.655" cy="97.103" r="8.828"/>
	<circle style="fill:#E15050;" cx="203.034" cy="97.103" r="8.828"/>
	<circle style="fill:#E15050;" cx="308.966" cy="97.103" r="8.828"/>
	<path style="fill:#E15050;" d="M300.138,17.655h-88.276c-4.875,0-8.828-3.953-8.828-8.828l0,0c0-4.875,3.953-8.828,8.828-8.828
		h88.276c4.875,0,8.828,3.953,8.828,8.828l0,0C308.966,13.703,305.013,17.655,300.138,17.655z"/>
</g>
<g>
</g>
<g>
</g>
<g>
</g>
<g>
</g>
<g>
</g>
<g>
</g>
<g>
</g>
<g>
</g>
<g>
</g>
<g>
</g>
<g>
</g>
<g>
</g>
<g>
</g>
<g>
</g>
<g>
</g>
</svg>
