<?xml version="1.0" encoding="iso-8859-1"?>
<!-- Generator: Adobe Illustrator 19.0.0, SVG Export Plug-In . SVG Version: 6.00 Build 0)  -->
<svg version="1.1" id="Layer_1" xmlns="http://www.w3.org/2000/svg" xmlns:xlink="http://www.w3.org/1999/xlink" x="0px" y="0px"
	 viewBox="0 0 512 512" style="enable-background:new 0 0 512 512;" xml:space="preserve">
<path style="fill:#E68C5A;" d="M123.586,278.073H17.655c-4.875,0-8.828-3.953-8.828-8.828V251.59c0-4.875,3.953-8.828,8.828-8.828
	h105.931c4.875,0,8.828,3.953,8.828,8.828v17.655C132.414,274.12,128.461,278.073,123.586,278.073z"/>
<path style="fill:#DC7850;" d="M8.828,260.418v8.828c0,4.875,3.953,8.828,8.828,8.828h105.931c4.875,0,8.828-3.953,8.828-8.828
	v-8.828H8.828z"/>
<path style="fill:#E68C5A;" d="M494.345,278.073H388.414c-4.875,0-8.828-3.953-8.828-8.828V251.59c0-4.875,3.953-8.828,8.828-8.828
	h105.931c4.875,0,8.828,3.953,8.828,8.828v17.655C503.172,274.12,499.22,278.073,494.345,278.073z"/>
<path style="fill:#DC7850;" d="M379.586,260.418v8.828c0,4.875,3.953,8.828,8.828,8.828h105.931c4.875,0,8.828-3.953,8.828-8.828
	v-8.828H379.586z"/>
<path style="fill:#00D2B9;" d="M485.517,163.314c0,126.556-102.957,229.517-229.517,229.517S26.483,289.87,26.483,163.314H8.828
	c0,136.294,110.879,247.172,247.172,247.172s247.172-110.879,247.172-247.172H485.517z"/>
<g>
	<path style="fill:#FFC855;" d="M490.216,225.112c8.337,0,15.75-5.922,17.336-14.41C510.5,194.948,512,179.003,512,163.314
		s-1.5-31.634-4.448-47.388c-1.793-9.587-11.034-15.918-20.604-14.103c-9.587,1.798-15.896,11.021-14.103,20.604
		c2.552,13.617,3.844,27.375,3.844,40.888s-1.293,27.272-3.844,40.888c-1.793,9.582,4.518,18.806,14.103,20.604
		C488.043,225.013,489.138,225.112,490.216,225.112z"/>
	<path style="fill:#FFC855;" d="M21.784,225.112c-8.337,0-15.75-5.922-17.336-14.41C1.5,194.948,0,179.004,0,163.314
		s1.5-31.634,4.448-47.388c1.793-9.587,11.034-15.918,20.604-14.103c9.587,1.798,15.896,11.021,14.103,20.604
		c-2.551,13.615-3.844,27.374-3.844,40.887c0,13.513,1.293,27.272,3.844,40.888c1.793,9.582-4.518,18.806-14.103,20.604
		C23.957,225.013,22.862,225.112,21.784,225.112z"/>
</g>
<g>
</g>
<g>
</g>
<g>
</g>
<g>
</g>
<g>
</g>
<g>
</g>
<g>
</g>
<g>
</g>
<g>
</g>
<g>
</g>
<g>
</g>
<g>
</g>
<g>
</g>
<g>
</g>
<g>
</g>
</svg>
