<?xml version="1.0" encoding="iso-8859-1"?>
<!-- Generator: Adobe Illustrator 19.0.0, SVG Export Plug-In . SVG Version: 6.00 Build 0)  -->
<svg version="1.1" id="Layer_1" xmlns="http://www.w3.org/2000/svg" xmlns:xlink="http://www.w3.org/1999/xlink" x="0px" y="0px"
	 viewBox="0 0 512 512" style="enable-background:new 0 0 512 512;" xml:space="preserve">
<path style="fill:#DC7850;" d="M503.172,414.897c-4.879,0-8.828-3.953-8.828-8.828V176.552c0-34.073-27.724-61.793-61.793-61.793
	h-256c-34.069,0-61.793,27.72-61.793,61.793v229.517c0,4.875-3.948,8.828-8.828,8.828c-4.879,0-8.828-3.953-8.828-8.828V176.552
	c0-43.806,35.638-79.448,79.448-79.448h256c43.81,0,79.448,35.642,79.448,79.448v229.517
	C512,410.944,508.052,414.897,503.172,414.897z"/>
<path style="fill:#66D8E4;" d="M494.345,397.241h-88.276v-17.655h88.276c4.875,0,8.828,3.953,8.828,8.828l0,0
	C503.172,393.289,499.22,397.241,494.345,397.241z"/>
<path style="fill:#FFC855;" d="M494.345,361.931h-88.276v-17.655h88.276c4.875,0,8.828,3.953,8.828,8.828l0,0
	C503.172,357.978,499.22,361.931,494.345,361.931z"/>
<path style="fill:#66D8E4;" d="M494.345,326.621h-88.276v-17.655h88.276c4.875,0,8.828,3.953,8.828,8.828l0,0
	C503.172,322.668,499.22,326.621,494.345,326.621z"/>
<path style="fill:#FFC855;" d="M494.345,291.31h-88.276v-17.655h88.276c4.875,0,8.828,3.953,8.828,8.828l0,0
	C503.172,287.358,499.22,291.31,494.345,291.31z"/>
<path style="fill:#66D8E4;" d="M494.345,256h-88.276v-17.655h88.276c4.875,0,8.828,3.953,8.828,8.828l0,0
	C503.172,252.047,499.22,256,494.345,256z"/>
<path style="fill:#FFC855;" d="M494.345,220.69h-88.276v-17.655h88.276c4.875,0,8.828,3.953,8.828,8.828l0,0
	C503.172,216.737,499.22,220.69,494.345,220.69z"/>
<path style="fill:#66D8E4;" d="M494.345,185.379h-88.276v-17.655h88.276c4.875,0,8.828,3.953,8.828,8.828l0,0
	C503.172,181.427,499.22,185.379,494.345,185.379z"/>
<path style="fill:#FFC855;" d="M484.879,150.069h-88.276v-17.655h88.276c4.875,0,8.828,3.953,8.828,8.828l0,0
	C493.707,146.116,489.754,150.069,484.879,150.069z"/>
<path style="fill:#66D8E4;" d="M97.103,397.241H8.828v-17.655h88.276c4.875,0,8.828,3.953,8.828,8.828l0,0
	C105.931,393.289,101.978,397.241,97.103,397.241z"/>
<path style="fill:#FFC855;" d="M97.103,361.931H8.828v-17.655h88.276c4.875,0,8.828,3.953,8.828,8.828l0,0
	C105.931,357.978,101.978,361.931,97.103,361.931z"/>
<path style="fill:#66D8E4;" d="M97.103,326.621H8.828v-17.655h88.276c4.875,0,8.828,3.953,8.828,8.828l0,0
	C105.931,322.668,101.978,326.621,97.103,326.621z"/>
<path style="fill:#FFC855;" d="M97.103,291.31H8.828v-17.655h88.276c4.875,0,8.828,3.953,8.828,8.828l0,0
	C105.931,287.358,101.978,291.31,97.103,291.31z"/>
<path style="fill:#66D8E4;" d="M97.103,256H8.828v-17.655h88.276c4.875,0,8.828,3.953,8.828,8.828l0,0
	C105.931,252.047,101.978,256,97.103,256z"/>
<path style="fill:#FFC855;" d="M97.103,220.69H8.828v-17.655h88.276c4.875,0,8.828,3.953,8.828,8.828l0,0
	C105.931,216.737,101.978,220.69,97.103,220.69z"/>
<path style="fill:#66D8E4;" d="M97.103,185.379H8.828v-17.655h88.276c4.875,0,8.828,3.953,8.828,8.828l0,0
	C105.931,181.427,101.978,185.379,97.103,185.379z"/>
<path style="fill:#FFC855;" d="M106.569,150.069H18.293v-17.655h88.276c4.875,0,8.828,3.953,8.828,8.828l0,0
	C115.396,146.116,111.444,150.069,106.569,150.069z"/>
<path style="fill:#E68C5A;" d="M406.069,414.897c-4.879,0-8.828-3.953-8.828-8.828V176.552c0-34.073-27.724-61.793-61.793-61.793
	h-256c-34.069,0-61.793,27.72-61.793,61.793v229.517c0,4.875-3.948,8.828-8.828,8.828S0,410.944,0,406.069V176.552
	c0-43.806,35.638-79.448,79.448-79.448h256c43.81,0,79.448,35.642,79.448,79.448v229.517
	C414.897,410.944,410.948,414.897,406.069,414.897z"/>
<g>
</g>
<g>
</g>
<g>
</g>
<g>
</g>
<g>
</g>
<g>
</g>
<g>
</g>
<g>
</g>
<g>
</g>
<g>
</g>
<g>
</g>
<g>
</g>
<g>
</g>
<g>
</g>
<g>
</g>
</svg>
