<?xml version="1.0" encoding="iso-8859-1"?>
<!-- Generator: Adobe Illustrator 19.0.0, SVG Export Plug-In . SVG Version: 6.00 Build 0)  -->
<svg version="1.1" id="Layer_1" xmlns="http://www.w3.org/2000/svg" xmlns:xlink="http://www.w3.org/1999/xlink" x="0px" y="0px"
	 viewBox="0 0 512 512" style="enable-background:new 0 0 512 512;" xml:space="preserve">
<rect x="97.103" y="35.31" style="fill:#FFA54B;" width="317.793" height="17.655"/>
<g>
	<rect x="211.862" y="44.138" style="fill:#A7A5AC;" width="17.655" height="370.759"/>
	<rect x="282.483" y="44.138" style="fill:#A7A5AC;" width="17.655" height="370.759"/>
</g>
<g>
	<path style="fill:#736F7B;" d="M220.69,61.793L220.69,61.793c-4.875,0-8.828-3.953-8.828-8.828V35.31
		c0-4.875,3.953-8.828,8.828-8.828l0,0c4.875,0,8.828,3.953,8.828,8.828v17.655C229.517,57.841,225.565,61.793,220.69,61.793z"/>
	<path style="fill:#736F7B;" d="M291.31,61.793L291.31,61.793c-4.875,0-8.828-3.953-8.828-8.828V35.31
		c0-4.875,3.953-8.828,8.828-8.828l0,0c4.875,0,8.828,3.953,8.828,8.828v17.655C300.138,57.841,296.185,61.793,291.31,61.793z"/>
</g>
<g>
	<path style="fill:#E15050;" d="M308.966,308.966H203.034c-4.875,0-8.828,3.953-8.828,8.828v52.966c0,4.875,3.953,8.828,8.828,8.828
		h105.931c4.875,0,8.828-3.953,8.828-8.828v-52.966C317.793,312.918,313.841,308.966,308.966,308.966z"/>
	<path style="fill:#E15050;" d="M317.793,432.552H194.207c-4.875,0-8.828-3.953-8.828-8.828v-17.655
		c0-4.875,3.953-8.828,8.828-8.828h123.586c4.875,0,8.828,3.953,8.828,8.828v17.655
		C326.621,428.599,322.668,432.552,317.793,432.552z"/>
</g>
<path style="fill:#D24146;" d="M185.379,414.897v8.828c0,4.875,3.953,8.828,8.828,8.828h123.586c4.875,0,8.828-3.953,8.828-8.828
	v-8.828H185.379z"/>
<path style="fill:#FFC855;" d="M416.043,24.59C415.052,10.802,403.448,0,389.63,0H122.37c-13.818,0-25.422,10.802-26.413,24.595
	L61.818,502.543l17.603,1.259L113.56,25.858c0.337-4.599,4.199-8.203,8.81-8.203h267.258c4.612,0,8.474,3.604,8.81,8.199
	l34.138,477.949l17.603-1.259L416.043,24.59z"/>
<g>
	<path style="fill:#FFA54B;" d="M88.276,512H44.138c-4.879,0-8.828-3.953-8.828-8.828c0-4.875,3.948-8.828,8.828-8.828h44.138
		c4.879,0,8.828,3.953,8.828,8.828C97.103,508.047,93.155,512,88.276,512z"/>
	<path style="fill:#FFA54B;" d="M467.862,512h-44.138c-4.879,0-8.828-3.953-8.828-8.828c0-4.875,3.948-8.828,8.828-8.828h44.138
		c4.879,0,8.828,3.953,8.828,8.828C476.69,508.047,472.742,512,467.862,512z"/>
</g>
<g>
</g>
<g>
</g>
<g>
</g>
<g>
</g>
<g>
</g>
<g>
</g>
<g>
</g>
<g>
</g>
<g>
</g>
<g>
</g>
<g>
</g>
<g>
</g>
<g>
</g>
<g>
</g>
<g>
</g>
</svg>
