<?xml version="1.0" encoding="iso-8859-1"?>
<!-- Generator: Adobe Illustrator 19.0.0, SVG Export Plug-In . SVG Version: 6.00 Build 0)  -->
<svg version="1.1" id="Layer_1" xmlns="http://www.w3.org/2000/svg" xmlns:xlink="http://www.w3.org/1999/xlink" x="0px" y="0px"
	 viewBox="0 0 512 512" style="enable-background:new 0 0 512 512;" xml:space="preserve">
<rect x="34.201" y="140.567" style="fill:#FFA54B;" width="443.603" height="17.101"/>
<g>
	<rect x="76.44" y="149.117" style="fill:#A7A5AC;" width="17.101" height="188.108"/>
	<rect x="110.641" y="149.117" style="fill:#A7A5AC;" width="17.101" height="188.108"/>
</g>
<g>
	<path style="fill:#736F7B;" d="M84.994,166.221L84.994,166.221c-4.722,0-8.55-3.828-8.55-8.55V140.57c0-4.722,3.828-8.55,8.55-8.55
		l0,0c4.722,0,8.55,3.828,8.55,8.55v17.101C93.543,162.393,89.716,166.221,84.994,166.221z"/>
	<path style="fill:#736F7B;" d="M119.195,166.221L119.195,166.221c-4.722,0-8.55-3.828-8.55-8.55V140.57
		c0-4.722,3.828-8.55,8.55-8.55l0,0c4.722,0,8.55,3.828,8.55,8.55v17.101C127.744,162.393,123.917,166.221,119.195,166.221z"/>
</g>
<path style="fill:#66D8E4;" d="M127.744,277.376H76.442c-4.722,0-8.55,3.828-8.55,8.55v17.101c0,4.722,3.828,8.55,8.55,8.55h51.302
	c4.722,0,8.55-3.828,8.55-8.55v-17.101C136.295,281.203,132.467,277.376,127.744,277.376z"/>
<path style="fill:#33CBDB;" d="M136.295,345.779H67.892c-4.722,0-8.55-3.828-8.55-8.55l0,0c0-4.722,3.828-8.55,8.55-8.55h68.403
	c4.722,0,8.55,3.828,8.55,8.55l0,0C144.845,341.95,141.018,345.779,136.295,345.779z"/>
<g>
	<rect x="281.648" y="149.117" style="fill:#A7A5AC;" width="17.101" height="188.108"/>
	<rect x="315.85" y="149.117" style="fill:#A7A5AC;" width="17.101" height="188.108"/>
</g>
<g>
	<path style="fill:#736F7B;" d="M290.201,166.221L290.201,166.221c-4.722,0-8.55-3.828-8.55-8.55V140.57
		c0-4.722,3.828-8.55,8.55-8.55l0,0c4.722,0,8.55,3.828,8.55,8.55v17.101C298.751,162.393,294.924,166.221,290.201,166.221z"/>
	<path style="fill:#736F7B;" d="M324.402,166.221L324.402,166.221c-4.722,0-8.55-3.828-8.55-8.55V140.57
		c0-4.722,3.828-8.55,8.55-8.55l0,0c4.722,0,8.55,3.828,8.55,8.55v17.101C332.953,162.393,329.125,166.221,324.402,166.221z"/>
</g>
<path style="fill:#66D8E4;" d="M332.953,277.376H281.65c-4.722,0-8.55,3.828-8.55,8.55v17.101c0,4.722,3.828,8.55,8.55,8.55h51.302
	c4.722,0,8.55-3.828,8.55-8.55v-17.101C341.503,281.203,337.676,277.376,332.953,277.376z"/>
<path style="fill:#33CBDB;" d="M341.503,345.779H273.1c-4.722,0-8.55-3.828-8.55-8.55l0,0c0-4.722,3.828-8.55,8.55-8.55h68.403
	c4.722,0,8.55,3.828,8.55,8.55l0,0C350.053,341.95,346.226,345.779,341.503,345.779z"/>
<g>
	<rect x="179.044" y="149.117" style="fill:#A7A5AC;" width="17.101" height="188.108"/>
	<rect x="213.246" y="149.117" style="fill:#A7A5AC;" width="17.101" height="188.108"/>
</g>
<g>
	<path style="fill:#736F7B;" d="M187.598,166.221L187.598,166.221c-4.722,0-8.55-3.828-8.55-8.55V140.57
		c0-4.722,3.828-8.55,8.55-8.55l0,0c4.722,0,8.55,3.828,8.55,8.55v17.101C196.147,162.393,192.32,166.221,187.598,166.221z"/>
	<path style="fill:#736F7B;" d="M221.799,166.221L221.799,166.221c-4.722,0-8.55-3.828-8.55-8.55V140.57
		c0-4.722,3.828-8.55,8.55-8.55l0,0c4.722,0,8.55,3.828,8.55,8.55v17.101C230.348,162.393,226.521,166.221,221.799,166.221z"/>
</g>
<path style="fill:#66D8E4;" d="M230.348,277.376h-51.302c-4.722,0-8.55,3.828-8.55,8.55v17.101c0,4.722,3.828,8.55,8.55,8.55h51.302
	c4.722,0,8.55-3.828,8.55-8.55v-17.101C238.899,281.203,235.071,277.376,230.348,277.376z"/>
<path style="fill:#33CBDB;" d="M238.899,345.779h-68.403c-4.722,0-8.55-3.828-8.55-8.55l0,0c0-4.722,3.828-8.55,8.55-8.55h68.403
	c4.722,0,8.55,3.828,8.55,8.55l0,0C247.449,341.95,243.622,345.779,238.899,345.779z"/>
<g>
	<rect x="384.252" y="149.117" style="fill:#A7A5AC;" width="17.101" height="188.108"/>
	<rect x="418.454" y="149.117" style="fill:#A7A5AC;" width="17.101" height="188.108"/>
</g>
<g>
	<path style="fill:#736F7B;" d="M392.805,166.221L392.805,166.221c-4.722,0-8.55-3.828-8.55-8.55V140.57
		c0-4.722,3.828-8.55,8.55-8.55l0,0c4.722,0,8.55,3.828,8.55,8.55v17.101C401.355,162.393,397.528,166.221,392.805,166.221z"/>
	<path style="fill:#736F7B;" d="M427.006,166.221L427.006,166.221c-4.722,0-8.55-3.828-8.55-8.55V140.57
		c0-4.722,3.828-8.55,8.55-8.55l0,0c4.722,0,8.55,3.828,8.55,8.55v17.101C435.557,162.393,431.729,166.221,427.006,166.221z"/>
</g>
<path style="fill:#66D8E4;" d="M435.557,277.376h-51.302c-4.722,0-8.55,3.828-8.55,8.55v17.101c0,4.722,3.828,8.55,8.55,8.55h51.302
	c4.722,0,8.55-3.828,8.55-8.55v-17.101C444.107,281.203,440.28,277.376,435.557,277.376z"/>
<path style="fill:#33CBDB;" d="M444.107,345.779h-68.403c-4.722,0-8.55-3.828-8.55-8.55l0,0c0-4.722,3.828-8.55,8.55-8.55h68.403
	c4.722,0,8.55,3.828,8.55,8.55l0,0C452.657,341.95,448.83,345.779,444.107,345.779z"/>
<path style="fill:#FFC855;" d="M486.851,131.247c-0.418-13.953-11.682-24.878-25.642-24.878H50.792
	c-13.962,0-25.226,10.926-25.642,24.874L17.1,396.821l17.101,0.517l8.049-265.582c0.134-4.647,3.891-8.287,8.542-8.287h410.417
	c4.651,0,8.408,3.64,8.542,8.292l8.049,265.578l17.101-0.517L486.851,131.247z"/>
<g>
	<path style="fill:#FFA54B;" d="M34.201,405.631H8.55c-4.726,0-8.55-3.828-8.55-8.55s3.824-8.55,8.55-8.55h25.651
		c4.726,0,8.55,3.828,8.55,8.55S38.928,405.631,34.201,405.631z"/>
	<path style="fill:#FFA54B;" d="M503.45,405.631h-25.651c-4.726,0-8.55-3.828-8.55-8.55s3.824-8.55,8.55-8.55h25.651
		c4.726,0,8.55,3.828,8.55,8.55S508.176,405.631,503.45,405.631z"/>
</g>
<g>
</g>
<g>
</g>
<g>
</g>
<g>
</g>
<g>
</g>
<g>
</g>
<g>
</g>
<g>
</g>
<g>
</g>
<g>
</g>
<g>
</g>
<g>
</g>
<g>
</g>
<g>
</g>
<g>
</g>
</svg>
