<?xml version="1.0" encoding="iso-8859-1"?>
<!-- Generator: Adobe Illustrator 19.0.0, SVG Export Plug-In . SVG Version: 6.00 Build 0)  -->
<svg version="1.1" id="Layer_1" xmlns="http://www.w3.org/2000/svg" xmlns:xlink="http://www.w3.org/1999/xlink" x="0px" y="0px"
	 viewBox="0 0 512 512" style="enable-background:new 0 0 512 512;" xml:space="preserve">
<path style="fill:#E15050;" d="M505.631,473.605c-15.07-9.36-19.439-16.324-24.492-24.377c-5.965-9.518-12.728-20.307-33.105-32.965
	c-19.912-12.36-34.211-14.912-46.824-17.167c-11.711-2.087-21.825-3.886-37.342-13.526c-15.079-9.369-19.447-16.324-24.5-24.395
	c-5.973-9.518-12.737-20.307-33.123-32.965c-19.939-12.377-34.246-14.939-46.868-17.194c-11.728-2.105-21.851-3.912-37.404-13.57
	c-15.096-9.378-19.474-16.342-24.536-24.412c-5.973-9.518-12.754-20.316-33.141-32.973l-14.21,22.895
	c15.088,9.369,19.465,16.342,24.527,24.403c5.982,9.526,12.754,20.316,33.149,32.982c19.93,12.377,34.246,14.939,46.868,17.201
	c11.72,2.096,21.851,3.904,37.404,13.561c15.079,9.369,19.447,16.324,24.5,24.395c5.973,9.518,12.737,20.307,33.123,32.964
	c19.912,12.36,34.211,14.912,46.815,17.167c11.711,2.087,21.825,3.886,37.351,13.526c15.07,9.36,19.439,16.324,24.492,24.377
	c5.965,9.518,12.728,20.307,33.105,32.965c2.211,1.378,4.666,2.027,7.096,2.027c4.5,0,8.904-2.255,11.456-6.369
	C513.895,485.842,511.956,477.535,505.631,473.605z"/>
<g>
	<rect x="62.877" y="354.807" style="fill:#A7A5AC;" width="53.895" height="17.965"/>
	<rect x="62.877" y="318.877" style="fill:#A7A5AC;" width="53.895" height="17.965"/>
	<rect x="62.877" y="282.947" style="fill:#A7A5AC;" width="53.895" height="17.965"/>
	<rect x="62.877" y="426.667" style="fill:#A7A5AC;" width="53.895" height="17.965"/>
	<rect x="62.877" y="390.737" style="fill:#A7A5AC;" width="53.895" height="17.965"/>
	<rect x="62.877" y="462.596" style="fill:#A7A5AC;" width="53.895" height="17.965"/>
</g>
<g>
	<path style="fill:#B9B7BD;" d="M53.894,256v233.544c0,4.965,4.017,8.982,8.982,8.982s8.982-4.017,8.982-8.982V256H53.894z"/>
	<path style="fill:#B9B7BD;" d="M107.789,256v233.544c0,4.965,4.017,8.982,8.982,8.982s8.982-4.017,8.982-8.982V256H107.789z"/>
</g>
<g>
	<rect x="17.964" y="103.298" style="fill:#FFC855;" width="17.965" height="386.246"/>
	<rect x="143.72" y="103.298" style="fill:#FFC855;" width="17.965" height="386.246"/>
</g>
<g>
	<path style="fill:#FFA54B;" d="M35.929,498.526H17.964c-4.965,0-8.982-4.017-8.982-8.982c0-4.965,4.017-8.982,8.982-8.982h17.965
		c4.965,0,8.982,4.017,8.982,8.982C44.912,494.509,40.894,498.526,35.929,498.526z"/>
	<path style="fill:#FFA54B;" d="M161.684,498.526h-17.965c-4.965,0-8.982-4.017-8.982-8.982c0-4.965,4.017-8.982,8.982-8.982h17.965
		c4.965,0,8.982,4.017,8.982,8.982C170.666,494.509,166.649,498.526,161.684,498.526z"/>
</g>
<path style="fill:#E15050;" d="M89.824,13.474c-4.965,0-8.982,4.017-8.982,8.982v26.947h17.965V22.456
	C98.806,17.491,94.789,13.474,89.824,13.474z"/>
<path style="fill:#FFC855;" d="M176.63,105.57L95.788,33.71c-3.403-3.035-8.527-3.035-11.93,0L3.016,105.57
	c-2.789,2.474-3.755,6.421-2.43,9.903c1.325,3.482,4.668,5.79,8.395,5.79h161.684c3.728,0,7.07-2.307,8.395-5.789
	C180.386,111.992,179.421,108.043,176.63,105.57z"/>
<path style="fill:#FFA54B;" d="M161.684,264.982H17.964c-4.961,0-8.982-4.022-8.982-8.982v-8.982c0-4.961,4.022-8.982,8.982-8.982
	h143.719c4.961,0,8.982,4.022,8.982,8.982V256C170.666,260.96,166.644,264.982,161.684,264.982z"/>
<g>
</g>
<g>
</g>
<g>
</g>
<g>
</g>
<g>
</g>
<g>
</g>
<g>
</g>
<g>
</g>
<g>
</g>
<g>
</g>
<g>
</g>
<g>
</g>
<g>
</g>
<g>
</g>
<g>
</g>
</svg>
