<?xml version="1.0" encoding="iso-8859-1"?>
<!-- Generator: Adobe Illustrator 19.0.0, SVG Export Plug-In . SVG Version: 6.00 Build 0)  -->
<svg version="1.1" id="Layer_1" xmlns="http://www.w3.org/2000/svg" xmlns:xlink="http://www.w3.org/1999/xlink" x="0px" y="0px"
	 viewBox="0 0 512 512" style="enable-background:new 0 0 512 512;" xml:space="preserve">
<path style="fill:#8FDA5D;" d="M417.236,172.388c-4.712-5.412-7.633-12.213-8.202-19.367C402.201,67.289,336.36,0,256,0
	S109.799,67.289,102.967,153.022c-0.57,7.154-3.49,13.954-8.202,19.367C73.961,196.282,61.793,225.036,61.793,256
	c0,82.881,86.95,150.069,194.207,150.069S450.207,338.881,450.207,256C450.207,225.036,438.039,196.282,417.236,172.388z"/>
<path style="fill:#B97850;" d="M308.319,187.202c-1.819-4.522-6.974-6.694-11.491-4.871c-30.164,12.207-49.655,41.126-49.655,73.668
	v26.483c0,4.875,3.953,8.828,8.828,8.828l0,0c4.875,0,8.828-3.953,8.828-8.828v-33.145c0-23.652,16.697-41.769,38.622-50.644
	C307.966,196.865,310.146,191.72,308.319,187.202z"/>
<path style="fill:#A5694B;" d="M256,388.414c-4.879,0-8.828-3.953-8.828-8.828V277.35c0-21.983-11.837-42.492-30.879-53.517
	c-4.215-2.44-5.664-7.84-3.215-12.061c2.44-4.22,7.81-5.664,12.061-3.215c24.483,14.168,39.69,40.53,39.69,68.793v102.237
	C264.828,384.461,260.879,388.414,256,388.414z"/>
<path style="fill:#7DCD55;" d="M176.552,256c0-28.627,7.564-55.364,20.662-78.12c5.353-9.3,8.801-19.57,9.655-30.265
	c5.591-70.07,39.981-126.749,84.907-142.856C280.279,1.761,268.342,0,256,0c-80.36,0-146.201,67.289-153.033,153.022
	c-0.57,7.154-3.49,13.954-8.202,19.367C73.961,196.282,61.793,225.036,61.793,256c0,82.881,86.95,150.069,194.207,150.069
	c12.307,0,24.329-0.925,36-2.616C226.329,390.559,176.552,329.507,176.552,256z"/>
<path style="fill:#B97850;" d="M256,406.069c-4.879,0-8.828-3.953-8.828-8.828v-26.483c0-77.879,63.362-141.241,141.241-141.241
	c4.879,0,8.828,3.953,8.828,8.828c0,4.875-3.948,8.828-8.828,8.828c-68.147,0-123.586,55.439-123.586,123.586v26.483
	C264.828,402.116,260.879,406.069,256,406.069z"/>
<path style="fill:#A5694B;" d="M273.655,494.345L273.655,494.345c-4.875,0-8.828-3.953-8.828-8.828v-88.276
	c0-52.509-28.862-100.384-75.319-124.948c-4.328-2.272-9.664-0.629-11.932,3.681c-2.284,4.31-0.638,9.651,3.672,11.932
	c40.664,21.491,65.923,63.387,65.923,109.335v88.276c0,4.875-3.953,8.828-8.828,8.828l0,0c-4.879,0-8.828,3.953-8.828,8.828
	c0,4.875,3.948,8.828,8.828,8.828h35.31c4.879,0,8.828-3.953,8.828-8.828C282.483,498.297,278.535,494.345,273.655,494.345z"/>
<g>
	<rect x="308.966" y="247.172" style="fill:#A7A5AC;" width="17.655" height="211.862"/>
	<rect x="353.103" y="229.517" style="fill:#A7A5AC;" width="17.655" height="229.517"/>
</g>
<g>
	<path style="fill:#736F7B;" d="M317.793,273.655c-4.879,0-8.828-3.953-8.828-8.828v-17.655c0-4.875,3.948-8.828,8.828-8.828
		c4.879,0,8.828,3.953,8.828,8.828v17.655C326.621,269.703,322.673,273.655,317.793,273.655z"/>
	<path style="fill:#736F7B;" d="M361.931,256c-4.879,0-8.828-3.953-8.828-8.828v-17.655c0-4.875,3.948-8.828,8.828-8.828
		s8.828,3.953,8.828,8.828v17.655C370.759,252.047,366.81,256,361.931,256z"/>
</g>
<path style="fill:#A5694B;" d="M370.759,467.862h-61.793c-4.879,0-8.828-3.953-8.828-8.828s3.948-8.828,8.828-8.828h61.793
	c4.879,0,8.828,3.953,8.828,8.828S375.638,467.862,370.759,467.862z"/>
<path style="fill:#B97850;" d="M361.931,432.552h-44.138c-4.879,0-8.828-3.953-8.828-8.828c0-4.875,3.948-8.828,8.828-8.828h44.138
	c4.879,0,8.828,3.953,8.828,8.828C370.759,428.599,366.81,432.552,361.931,432.552z"/>
<g>
</g>
<g>
</g>
<g>
</g>
<g>
</g>
<g>
</g>
<g>
</g>
<g>
</g>
<g>
</g>
<g>
</g>
<g>
</g>
<g>
</g>
<g>
</g>
<g>
</g>
<g>
</g>
<g>
</g>
</svg>
