<?xml version="1.0" encoding="iso-8859-1"?>
<!-- Generator: Adobe Illustrator 19.0.0, SVG Export Plug-In . SVG Version: 6.00 Build 0)  -->
<svg version="1.1" id="Layer_1" xmlns="http://www.w3.org/2000/svg" xmlns:xlink="http://www.w3.org/1999/xlink" x="0px" y="0px"
	 viewBox="0 0 512 512" style="enable-background:new 0 0 512 512;" xml:space="preserve">
<path style="fill:#E68C5A;" d="M486.358,225.316c-0.003-0.022-0.004-0.044-0.007-0.066l-0.001-0.009
	c-0.011-0.097-0.073-0.177-0.086-0.273c-0.138-0.995-0.395-1.989-0.906-2.923c-0.009-0.015-0.022-0.022-0.031-0.037
	c-0.195-0.353-0.533-0.601-0.777-0.923c-0.453-0.596-0.874-1.226-1.445-1.67c-0.016-0.013-0.022-0.032-0.038-0.045l-110.839-85.262
	c-0.035-0.028-0.069-0.051-0.106-0.079c-0.747-0.578-1.605-0.969-2.497-1.267c-0.242-0.081-0.475-0.148-0.725-0.207
	c-0.225-0.053-0.437-0.156-0.667-0.19l-110.933-17.067c-0.089-0.013-0.167,0.022-0.256,0.013c-0.227-0.028-0.443-0.028-0.671-0.037
	c-0.131-0.005-0.241-0.076-0.373-0.076c-0.133,0-0.243,0.069-0.374,0.076c-0.228,0.01-0.444,0.009-0.67,0.036
	c-0.089,0.011-0.167-0.026-0.256-0.012l-110.933,17.067c-0.231,0.035-0.445,0.138-0.672,0.192c-0.233,0.057-0.45,0.117-0.676,0.193
	c-0.912,0.3-1.79,0.694-2.551,1.286l-0.033,0.025c-0.001,0.001-0.003,0.002-0.004,0.003L28.933,219.371
	c-0.017,0.013-0.023,0.034-0.041,0.047c-0.556,0.433-0.963,1.051-1.407,1.627c-0.257,0.336-0.608,0.596-0.813,0.964
	c-0.009,0.015-0.023,0.022-0.031,0.037c-0.51,0.933-0.768,1.929-0.906,2.923c-0.014,0.096-0.077,0.176-0.086,0.273l-0.001,0.009
	c-0.002,0.022-0.004,0.044-0.006,0.066L8.583,387.375L23.1,394.3l105.313-105.313l121.996,105.73h11.183l121.996-105.73
	L488.899,394.3l14.516-6.925L486.358,225.316z M28.073,365.195l13.204-125.445l72.626,39.614L28.073,365.195z M121.087,263.844
	l-71.374-38.931l84.351-64.883L121.087,263.844z M152.734,148.254l82.269-12.657l-94.926,113.911L152.734,148.254z M247.467,369.575
	L145.76,281.43l101.707-27.122V369.575z M247.467,236.643l-95.718,25.525l95.718-114.863V236.643z M264.533,147.306l95.718,114.863
	l-95.718-25.525V147.306z M264.533,369.575V254.308L366.24,281.43L264.533,369.575z M276.997,135.597l82.27,12.657l12.656,101.254
	L276.997,135.597z M377.935,160.03l84.351,64.883l-71.374,38.931L377.935,160.03z M398.096,279.363l72.627-39.614l13.204,125.445
	L398.096,279.363z"/>
<g>
	<circle style="fill:#FFC855;" cx="256" cy="243.2" r="17.067"/>
	<circle style="fill:#FFC855;" cx="17.067" cy="379.733" r="17.067"/>
	<circle style="fill:#FFC855;" cx="145.067" cy="140.8" r="17.067"/>
	<circle style="fill:#FFC855;" cx="375.467" cy="140.8" r="17.067"/>
	<circle style="fill:#FFC855;" cx="494.933" cy="388.267" r="17.067"/>
</g>
<g>
	<circle style="fill:#66D8E4;" cx="384" cy="277.333" r="17.067"/>
	<circle style="fill:#66D8E4;" cx="477.867" cy="226.133" r="17.067"/>
	<circle style="fill:#66D8E4;" cx="256" cy="388.267" r="17.067"/>
	<circle style="fill:#66D8E4;" cx="256" cy="123.733" r="17.067"/>
	<circle style="fill:#66D8E4;" cx="128" cy="277.333" r="17.067"/>
	<circle style="fill:#66D8E4;" cx="34.133" cy="226.133" r="17.067"/>
</g>
<g>
</g>
<g>
</g>
<g>
</g>
<g>
</g>
<g>
</g>
<g>
</g>
<g>
</g>
<g>
</g>
<g>
</g>
<g>
</g>
<g>
</g>
<g>
</g>
<g>
</g>
<g>
</g>
<g>
</g>
</svg>
