<?xml version="1.0" encoding="iso-8859-1"?>
<!-- Generator: Adobe Illustrator 19.0.0, SVG Export Plug-In . SVG Version: 6.00 Build 0)  -->
<svg version="1.1" id="Layer_1" xmlns="http://www.w3.org/2000/svg" xmlns:xlink="http://www.w3.org/1999/xlink" x="0px" y="0px"
	 viewBox="0 0 512 512" style="enable-background:new 0 0 512 512;" xml:space="preserve">
<path style="fill:#DC7850;" d="M503.172,379.586c-4.879,0-8.828-3.953-8.828-8.828c0-121.689-85.138-220.69-189.793-220.69
	s-189.793,99-189.793,220.69c0,4.875-3.948,8.828-8.828,8.828c-4.879,0-8.828-3.953-8.828-8.828
	c0-131.423,93.06-238.345,207.448-238.345S512,239.336,512,370.759C512,375.634,508.052,379.586,503.172,379.586z"/>
<g>
	<path style="fill:#66D8E4;" d="M308.23,150.069h-88.276c-4.879,0-8.828-3.953-8.828-8.828s3.948-8.828,8.828-8.828h88.276
		c4.879,0,8.828,3.953,8.828,8.828S313.109,150.069,308.23,150.069z"/>
	<path style="fill:#66D8E4;" d="M98.207,361.931H17.655c-4.879,0-8.828-3.953-8.828-8.828s3.948-8.828,8.828-8.828h80.552
		c4.879,0,8.828,3.953,8.828,8.828S103.086,361.931,98.207,361.931z"/>
</g>
<path style="fill:#FFC855;" d="M102.897,326.621H17.655c-4.879,0-8.828-3.953-8.828-8.828s3.948-8.828,8.828-8.828h85.241
	c4.879,0,8.828,3.953,8.828,8.828S107.776,326.621,102.897,326.621z"/>
<path style="fill:#66D8E4;" d="M113.655,291.31H26.483c-4.879,0-8.828-3.953-8.828-8.828s3.948-8.828,8.828-8.828h87.172
	c4.879,0,8.828,3.953,8.828,8.828S118.535,291.31,113.655,291.31z"/>
<path style="fill:#FFC855;" d="M130.94,256H44.922c-4.879,0-8.828-3.953-8.828-8.828s3.948-8.828,8.828-8.828h86.017
	c4.879,0,8.828,3.953,8.828,8.828S135.819,256,130.94,256z"/>
<path style="fill:#66D8E4;" d="M155.31,220.69H65.587c-4.879,0-8.828-3.953-8.828-8.828c0-4.875,3.948-8.828,8.828-8.828h89.725
	c4.879,0,8.828,3.953,8.828,8.828C164.139,216.737,160.19,220.69,155.31,220.69z"/>
<path style="fill:#FFC855;" d="M190.621,185.379h-84.69c-4.879,0-8.828-3.953-8.828-8.828s3.948-8.828,8.828-8.828h84.69
	c4.879,0,8.828,3.953,8.828,8.828S195.5,185.379,190.621,185.379z"/>
<path style="fill:#66D8E4;" d="M494.345,361.931h-80.552c-4.879,0-8.828-3.953-8.828-8.828s3.948-8.828,8.828-8.828h80.552
	c4.879,0,8.828,3.953,8.828,8.828S499.224,361.931,494.345,361.931z"/>
<path style="fill:#FFC855;" d="M491.31,326.621h-85.241c-4.879,0-8.828-3.953-8.828-8.828s3.948-8.828,8.828-8.828h85.241
	c4.879,0,8.828,3.953,8.828,8.828S496.19,326.621,491.31,326.621z"/>
<path style="fill:#66D8E4;" d="M482.207,291.31h-87.172c-4.879,0-8.828-3.953-8.828-8.828s3.948-8.828,8.828-8.828h87.172
	c4.879,0,8.828,3.953,8.828,8.828S487.086,291.31,482.207,291.31z"/>
<path style="fill:#FFC855;" d="M465.603,256h-86.017c-4.879,0-8.828-3.953-8.828-8.828s3.948-8.828,8.828-8.828h86.017
	c4.879,0,8.828,3.953,8.828,8.828S470.483,256,465.603,256z"/>
<path style="fill:#66D8E4;" d="M440.897,220.69h-89.725c-4.879,0-8.828-3.953-8.828-8.828c0-4.875,3.948-8.828,8.828-8.828h89.725
	c4.879,0,8.828,3.953,8.828,8.828C449.725,216.737,445.775,220.69,440.897,220.69z"/>
<path style="fill:#FFC855;" d="M402.483,185.379h-84.69c-4.879,0-8.828-3.953-8.828-8.828s3.948-8.828,8.828-8.828h84.69
	c4.879,0,8.828,3.953,8.828,8.828S407.362,185.379,402.483,185.379z"/>
<path style="fill:#E68C5A;" d="M406.069,379.586c-4.879,0-8.828-3.953-8.828-8.828c0-121.689-85.138-220.69-189.793-220.69
	s-189.793,99-189.793,220.69c0,4.875-3.948,8.828-8.828,8.828S0,375.634,0,370.759c0-131.423,93.06-238.345,207.448-238.345
	s207.448,106.922,207.448,238.345C414.897,375.634,410.948,379.586,406.069,379.586z"/>
<g>
</g>
<g>
</g>
<g>
</g>
<g>
</g>
<g>
</g>
<g>
</g>
<g>
</g>
<g>
</g>
<g>
</g>
<g>
</g>
<g>
</g>
<g>
</g>
<g>
</g>
<g>
</g>
<g>
</g>
</svg>
