<?xml version="1.0" encoding="iso-8859-1"?>
<!-- Generator: Adobe Illustrator 19.0.0, SVG Export Plug-In . SVG Version: 6.00 Build 0)  -->
<svg version="1.1" id="Layer_1" xmlns="http://www.w3.org/2000/svg" xmlns:xlink="http://www.w3.org/1999/xlink" x="0px" y="0px"
	 viewBox="0 0 512 512" style="enable-background:new 0 0 512 512;" xml:space="preserve">
<path style="fill:#8D8A94;" d="M203.034,459.034c-4.879,0-8.828-3.953-8.828-8.828c0-14.543,19.62-18.638,42.336-23.38
	c7.242-1.508,18.094-3.776,24.431-6.091c-6.336-2.311-17.198-4.569-24.431-6.078c-22.716-4.732-42.336-8.818-42.336-23.352
	c0-14.535,19.62-18.621,42.345-23.353c7.224-1.504,18.051-3.763,24.396-6.065c-6.345-2.306-17.181-4.565-24.405-6.069
	c-22.716-4.733-42.336-8.819-42.336-23.349c0-14.526,19.62-18.607,42.336-23.332c7.224-1.504,18.044-3.754,24.388-6.051
	c-6.345-2.306-17.164-4.561-24.388-6.065c-22.716-4.733-42.336-8.819-42.336-23.349s19.62-18.616,42.336-23.349
	c9.25-1.927,24.405-5.081,28.5-8c0.879-3.944,4.405-6.892,8.612-6.892c4.879,0,8.828,3.953,8.828,8.828
	c0,14.53-19.62,18.616-42.336,23.349c-7.224,1.504-18.06,3.758-24.396,6.065c6.336,2.306,17.164,4.561,24.388,6.065
	c22.724,4.733,42.345,8.819,42.345,23.353c0,14.526-19.62,18.607-42.336,23.332c-7.224,1.5-18.044,3.75-24.388,6.051
	c6.345,2.302,17.164,4.556,24.38,6.06c22.724,4.733,42.345,8.819,42.345,23.353c0,14.53-19.62,18.616-42.336,23.349
	c-7.224,1.504-18.06,3.763-24.405,6.069c6.336,2.306,17.173,4.565,24.396,6.069c22.723,4.733,42.344,8.823,42.344,23.358
	c0,14.543-19.62,18.638-42.336,23.38c-9.25,1.931-24.414,5.095-28.491,8.018C210.776,456.077,207.25,459.034,203.034,459.034z"/>
<path style="fill:#66D8E4;" d="M291.31,238.345c0-45.037,24.171-84.331,60.169-105.931H206.593c-13.408,0-26.09-6.095-34.466-16.565
	l-22.058-27.573H17.655C7.904,88.276,0,96.18,0,105.931v10.342c0,4.683,1.86,9.174,5.172,12.484l118.414,118.415h158.897
	C287.358,247.172,291.31,243.22,291.31,238.345L291.31,238.345z"/>
<path style="fill:#33CBDB;" d="M97.103,123.586c-27.19,0-52.132,9.504-71.796,25.308l98.279,98.279h87.83
	c0.223-2.923,0.446-5.847,0.446-8.828C211.862,174.966,160.483,123.586,97.103,123.586z"/>
<path style="fill:#FFC855;" d="M414.897,141.241c-53.629,0-97.103,43.475-97.103,97.103s43.475,97.103,97.103,97.103
	S512,291.974,512,238.345S468.525,141.241,414.897,141.241z"/>
<circle style="fill:#625D6B;" cx="414.897" cy="238.345" r="61.793"/>
<g>
	<path style="fill:#8D8A94;" d="M308.966,105.931L308.966,105.931c-9.71,0-17.655-7.945-17.655-17.655l0,0
		c0-9.71,7.945-17.655,17.655-17.655l0,0c9.71,0,17.655,7.945,17.655,17.655l0,0C326.621,97.986,318.676,105.931,308.966,105.931z"
		/>
	<path style="fill:#8D8A94;" d="M417.657,220.927L379,120.418l-16.483,6.336l38.653,100.498c-2.453,3.032-3.928,6.889-3.928,11.093
		c0,9.751,7.904,17.655,17.655,17.655c9.751,0,17.655-7.904,17.655-17.655C432.552,229.536,426.093,222.254,417.657,220.927z"/>
</g>
<ellipse style="fill:#FFC855;" cx="414.897" cy="88.276" rx="17.655" ry="26.483"/>
<path style="fill:#66D8E4;" d="M370.759,123.586h35.31c4.875,0,8.828-3.953,8.828-8.828V61.793c0-4.875-3.953-8.828-8.828-8.828
	h-35.31c-4.875,0-8.828,3.953-8.828,8.828v52.966C361.931,119.634,365.884,123.586,370.759,123.586z"/>
<path style="fill:#33CBDB;" d="M308.966,476.69H167.724c-4.875,0-8.828-3.953-8.828-8.828v-17.655c0-4.875,3.953-8.828,8.828-8.828
	h141.241c4.875,0,8.828,3.953,8.828,8.828v17.655C317.793,472.737,313.841,476.69,308.966,476.69z"/>
<path style="fill:#FFC855;" d="M97.103,141.241C43.475,141.241,0,184.716,0,238.345s43.475,97.103,97.103,97.103
	s97.103-43.475,97.103-97.103S150.732,141.241,97.103,141.241z"/>
<circle style="fill:#625D6B;" cx="97.103" cy="238.345" r="61.793"/>
<circle style="fill:#8D8A94;" cx="97.103" cy="238.345" r="17.655"/>
<g>
	<path style="fill:#FFC855;" d="M361.931,70.621L361.931,70.621c-9.71,0-17.655-7.945-17.655-17.655l0,0
		c0-9.71,7.945-17.655,17.655-17.655l0,0c9.71,0,17.655,7.945,17.655,17.655l0,0C379.586,62.676,371.641,70.621,361.931,70.621z"/>
	<path style="fill:#FFC855;" d="M206.595,123.586c-10.793,0-20.836-4.828-27.569-13.25l-22.061-27.573
		c-3.052-3.806-8.595-4.436-12.414-1.379c-3.801,3.043-4.423,8.599-1.379,12.405l22.06,27.573
		c10.103,12.633,25.181,19.88,41.362,19.88h84.716v-17.655C291.31,123.586,206.595,123.586,206.595,123.586z"/>
</g>
<path style="fill:#33CBDB;" d="M370.759,141.241h-88.276c-14.626,0-26.483-11.857-26.483-26.483l0,0
	c0-14.626,11.857-26.483,26.483-26.483h88.276c14.626,0,26.483,11.857,26.483,26.483l0,0
	C397.241,129.385,385.385,141.241,370.759,141.241z"/>
<g>
</g>
<g>
</g>
<g>
</g>
<g>
</g>
<g>
</g>
<g>
</g>
<g>
</g>
<g>
</g>
<g>
</g>
<g>
</g>
<g>
</g>
<g>
</g>
<g>
</g>
<g>
</g>
<g>
</g>
</svg>
