<?xml version="1.0" encoding="iso-8859-1"?>
<!-- Generator: Adobe Illustrator 19.0.0, SVG Export Plug-In . SVG Version: 6.00 Build 0)  -->
<svg version="1.1" id="Layer_1" xmlns="http://www.w3.org/2000/svg" xmlns:xlink="http://www.w3.org/1999/xlink" x="0px" y="0px"
	 viewBox="0 0 512 512" style="enable-background:new 0 0 512 512;" xml:space="preserve">
<path style="fill:#736F7B;" d="M353.103,282.483c-39.003,0-70.621,31.618-70.621,70.621s31.618,70.621,70.621,70.621
	s70.621-31.618,70.621-70.621S392.106,282.483,353.103,282.483z M353.103,388.414c-19.501,0-35.31-15.809-35.31-35.31
	s15.809-35.31,35.31-35.31s35.31,15.809,35.31,35.31S372.605,388.414,353.103,388.414z"/>
<path style="fill:#625D6B;" d="M353.103,300.138c-29.252,0-52.966,23.713-52.966,52.966c0,29.252,23.713,52.966,52.966,52.966
	c29.252,0,52.966-23.713,52.966-52.966C406.069,323.851,382.356,300.138,353.103,300.138z M353.103,388.414
	c-19.501,0-35.31-15.809-35.31-35.31s15.809-35.31,35.31-35.31s35.31,15.809,35.31,35.31S372.605,388.414,353.103,388.414z"/>
<rect x="52.966" y="35.31" style="fill:#FFA54B;" width="406.069" height="17.655"/>
<path style="fill:#A7A5AC;" d="M353.103,326.621L353.103,326.621c-4.875,0-8.828-3.953-8.828-8.828V44.138h17.655v273.655
	C361.931,322.668,357.978,326.621,353.103,326.621z"/>
<g>
	<path style="fill:#736F7B;" d="M353.103,61.793L353.103,61.793c-4.875,0-8.828-3.953-8.828-8.828V35.31
		c0-4.875,3.953-8.828,8.828-8.828l0,0c4.875,0,8.828,3.953,8.828,8.828v17.655C361.931,57.841,357.978,61.793,353.103,61.793z"/>
	<path style="fill:#736F7B;" d="M158.897,282.483c-39.002,0-70.621,31.618-70.621,70.621s31.618,70.621,70.621,70.621
		s70.621-31.618,70.621-70.621S197.899,282.483,158.897,282.483z M158.897,388.414c-19.501,0-35.31-15.809-35.31-35.31
		s15.809-35.31,35.31-35.31s35.31,15.809,35.31,35.31S178.398,388.414,158.897,388.414z"/>
</g>
<path style="fill:#625D6B;" d="M158.897,300.138c-29.252,0-52.966,23.713-52.966,52.966c0,29.252,23.713,52.966,52.966,52.966
	s52.966-23.713,52.966-52.966C211.862,323.851,188.149,300.138,158.897,300.138z M158.897,388.414
	c-19.501,0-35.31-15.809-35.31-35.31s15.809-35.31,35.31-35.31s35.31,15.809,35.31,35.31S178.398,388.414,158.897,388.414z"/>
<path style="fill:#A7A5AC;" d="M158.897,326.621L158.897,326.621c-4.875,0-8.828-3.953-8.828-8.828V44.138h17.655v273.655
	C167.724,322.668,163.772,326.621,158.897,326.621z"/>
<path style="fill:#736F7B;" d="M158.897,61.793L158.897,61.793c-4.875,0-8.828-3.953-8.828-8.828V35.31
	c0-4.875,3.953-8.828,8.828-8.828l0,0c4.875,0,8.828,3.953,8.828,8.828v17.655C167.724,57.841,163.772,61.793,158.897,61.793z"/>
<path style="fill:#FFC855;" d="M468.767,34.051C468.086,14.957,452.586,0,433.483,0H78.517C59.414,0,43.914,14.957,43.233,34.051
	L26.492,502.858l17.638,0.629L60.871,34.681c0.345-9.548,8.095-17.026,17.646-17.026h354.966c9.551,0,17.302,7.478,17.646,17.026
	l16.742,468.806l17.638-0.629L468.767,34.051z"/>
<g>
	<path style="fill:#FFA54B;" d="M52.966,512H8.828C3.948,512,0,508.047,0,503.172c0-4.875,3.948-8.828,8.828-8.828h44.138
		c4.879,0,8.828,3.953,8.828,8.828C61.793,508.047,57.845,512,52.966,512z"/>
	<path style="fill:#FFA54B;" d="M503.172,512h-44.138c-4.879,0-8.828-3.953-8.828-8.828c0-4.875,3.948-8.828,8.828-8.828h44.138
		c4.879,0,8.828,3.953,8.828,8.828C512,508.047,508.052,512,503.172,512z"/>
</g>
<g>
</g>
<g>
</g>
<g>
</g>
<g>
</g>
<g>
</g>
<g>
</g>
<g>
</g>
<g>
</g>
<g>
</g>
<g>
</g>
<g>
</g>
<g>
</g>
<g>
</g>
<g>
</g>
<g>
</g>
</svg>
