<?xml version="1.0" encoding="iso-8859-1"?>
<!-- Generator: Adobe Illustrator 19.0.0, SVG Export Plug-In . SVG Version: 6.00 Build 0)  -->
<svg version="1.1" id="Layer_1" xmlns="http://www.w3.org/2000/svg" xmlns:xlink="http://www.w3.org/1999/xlink" x="0px" y="0px"
	 viewBox="0 0 512 512" style="enable-background:new 0 0 512 512;" xml:space="preserve">
<rect x="203.034" y="75.034" style="fill:#FFA54B;" width="26.483" height="238.345"/>
<rect x="342.129" y="240.623" transform="matrix(-0.7071 0.7071 -0.7071 -0.7071 800.4763 237.9524)" style="fill:#625D6B;" width="17.655" height="88.275"/>
<path style="fill:#8D8A94;" d="M350.648,235.132L301.34,284.44c-3.447,3.447-9.037,3.447-12.484,0l0,0
	c-3.447-3.447-3.447-9.036,0-12.484l49.309-49.309c3.447-3.447,9.036-3.447,12.484,0l0,0
	C354.095,226.095,354.095,231.684,350.648,235.132z"/>
<ellipse style="fill:#FFC855;" cx="494.345" cy="375.172" rx="17.655" ry="26.483"/>
<path style="fill:#FFA54B;" d="M476.69,428.138H17.655C7.904,428.138,0,420.234,0,410.483v-82.63c0-8.416,5.94-15.662,14.193-17.312
	l29.945-5.99h388.414l48.989,13.996c7.58,2.166,12.804,9.094,12.804,16.975v74.959C494.345,420.234,486.441,428.138,476.69,428.138z
	"/>
<path style="fill:#FFC855;" d="M481.54,318.548l-48.989-13.996h-2.131l-53.634-222.22c-4.802-19.887-22.449-33.78-42.914-33.78
	H97.103c-29.207,0-52.966,23.758-52.966,52.966v203.034l-29.945,5.988C5.94,312.191,0,319.437,0,327.853v20.836h494.345v-13.165
	C494.345,327.641,489.119,320.714,481.54,318.548z M97.103,101.517c0-9.737,7.923-17.655,17.655-17.655h219.114
	c4.095,0,7.629,2.781,8.586,6.754l51.636,213.935H97.103V101.517z"/>
<g>
	<path style="fill:#E68C5A;" d="M79.448,375.172c-29.252,0-52.966,23.713-52.966,52.966h105.931
		C132.414,398.885,108.701,375.172,79.448,375.172z"/>
	<path style="fill:#E68C5A;" d="M406.069,375.172c-29.252,0-52.966,23.713-52.966,52.966h105.931
		C459.034,398.885,435.321,375.172,406.069,375.172z"/>
</g>
<circle style="fill:#00D2B9;" cx="79.448" cy="428.138" r="35.31"/>
<circle style="fill:#736F7B;" cx="79.448" cy="428.138" r="17.655"/>
<circle style="fill:#00D2B9;" cx="406.069" cy="428.138" r="35.31"/>
<circle style="fill:#736F7B;" cx="406.069" cy="428.138" r="17.655"/>
<circle style="fill:#E68C5A;" cx="454.621" cy="344.276" r="13.241"/>
<g>
</g>
<g>
</g>
<g>
</g>
<g>
</g>
<g>
</g>
<g>
</g>
<g>
</g>
<g>
</g>
<g>
</g>
<g>
</g>
<g>
</g>
<g>
</g>
<g>
</g>
<g>
</g>
<g>
</g>
</svg>
