<?xml version="1.0" encoding="iso-8859-1"?>
<!-- Generator: Adobe Illustrator 19.0.0, SVG Export Plug-In . SVG Version: 6.00 Build 0)  -->
<svg version="1.1" id="Layer_1" xmlns="http://www.w3.org/2000/svg" xmlns:xlink="http://www.w3.org/1999/xlink" x="0px" y="0px"
	 viewBox="0 0 512 512" style="enable-background:new 0 0 512 512;" xml:space="preserve">
<path style="fill:#FFA54B;" d="M361.931,291.31h-17.655v-79.448c0-9.823-2.465-15.742-3.828-17.655H171.552
	c-1.362,1.913-3.828,7.832-3.828,17.655v79.448h-17.655v-79.448c0-20.789,8.242-35.31,20.034-35.31h171.794
	c11.793,0,20.034,14.521,20.034,35.31V291.31z"/>
<rect x="203.034" y="300.138" style="fill:#00BEA9;" width="105.931" height="44.138"/>
<path style="fill:#E68C5A;" d="M273.655,300.138h-35.31V167.724c0-9.751,7.904-17.655,17.655-17.655l0,0
	c9.751,0,17.655,7.904,17.655,17.655V300.138z"/>
<path style="fill:#00D2B9;" d="M326.621,361.931H185.379c-4.875,0-8.828-3.953-8.828-8.828v-8.828c0-4.875,3.953-8.828,8.828-8.828
	h141.241c4.875,0,8.828,3.953,8.828,8.828v8.828C335.448,357.978,331.496,361.931,326.621,361.931z"/>
<g>
	<path style="fill:#FFC855;" d="M459.034,176.552H273.655c-4.879,0-8.828,3.953-8.828,8.828c0,4.875,3.948,8.828,8.828,8.828
		h185.379c9.732,0,17.655,7.918,17.655,17.655v79.448h17.655v-79.448C494.345,192.392,478.508,176.552,459.034,176.552z"/>
	<path style="fill:#FFC855;" d="M238.345,176.552H52.966c-19.474,0-35.31,15.84-35.31,35.31v79.448H35.31v-79.448
		c0-9.737,7.923-17.655,17.655-17.655h185.379c4.879,0,8.828-3.953,8.828-8.828C247.172,180.504,243.224,176.552,238.345,176.552z"
		/>
</g>
<path style="fill:#00D2B9;" d="M503.172,308.966H8.828c-4.875,0-8.828-3.953-8.828-8.828v-8.828c0-4.875,3.953-8.828,8.828-8.828
	h494.345c4.875,0,8.828,3.953,8.828,8.828v8.828C512,305.013,508.047,308.966,503.172,308.966z"/>
<g>
</g>
<g>
</g>
<g>
</g>
<g>
</g>
<g>
</g>
<g>
</g>
<g>
</g>
<g>
</g>
<g>
</g>
<g>
</g>
<g>
</g>
<g>
</g>
<g>
</g>
<g>
</g>
<g>
</g>
</svg>
