<?xml version="1.0" encoding="iso-8859-1"?>
<!-- Generator: Adobe Illustrator 19.0.0, SVG Export Plug-In . SVG Version: 6.00 Build 0)  -->
<svg version="1.1" id="Layer_1" xmlns="http://www.w3.org/2000/svg" xmlns:xlink="http://www.w3.org/1999/xlink" x="0px" y="0px"
	 viewBox="0 0 512 512" style="enable-background:new 0 0 512 512;" xml:space="preserve">
<rect x="17.655" y="66.207" style="fill:#66D8E4;" width="158.897" height="17.655"/>
<rect x="176.552" y="145.655" style="fill:#00D2B9;" width="158.897" height="17.655"/>
<rect x="335.448" y="225.103" style="fill:#FFC855;" width="158.897" height="17.655"/>
<g>
	<path style="fill:#E68C5A;" d="M176.552,48.552c-4.879,0-8.828,3.953-8.828,8.828v397.241h17.655V57.379
		C185.379,52.504,181.431,48.552,176.552,48.552z"/>
	<path style="fill:#E68C5A;" d="M335.448,128c-4.879,0-8.828,3.953-8.828,8.828v317.793h17.655V136.828
		C344.276,131.953,340.328,128,335.448,128z"/>
	<path style="fill:#E68C5A;" d="M17.655,48.552c-4.879,0-8.828,3.953-8.828,8.828v397.241h17.655V57.379
		C26.483,52.504,22.535,48.552,17.655,48.552z"/>
	<path style="fill:#E68C5A;" d="M494.345,207.448c-4.879,0-8.828,3.953-8.828,8.828v238.345h17.655V216.276
		C503.172,211.401,499.224,207.448,494.345,207.448z"/>
</g>
<g>
	<path style="fill:#DC7850;" d="M26.483,463.448H8.828c-4.879,0-8.828-3.953-8.828-8.828s3.948-8.828,8.828-8.828h17.655
		c4.879,0,8.828,3.953,8.828,8.828S31.362,463.448,26.483,463.448z"/>
	<path style="fill:#DC7850;" d="M185.379,463.448h-17.655c-4.879,0-8.828-3.953-8.828-8.828s3.948-8.828,8.828-8.828h17.655
		c4.879,0,8.828,3.953,8.828,8.828S190.259,463.448,185.379,463.448z"/>
	<path style="fill:#DC7850;" d="M344.276,463.448h-17.655c-4.879,0-8.828-3.953-8.828-8.828s3.948-8.828,8.828-8.828h17.655
		c4.879,0,8.828,3.953,8.828,8.828S349.155,463.448,344.276,463.448z"/>
	<path style="fill:#DC7850;" d="M503.172,463.448h-17.655c-4.879,0-8.828-3.953-8.828-8.828s3.948-8.828,8.828-8.828h17.655
		c4.879,0,8.828,3.953,8.828,8.828S508.052,463.448,503.172,463.448z"/>
</g>
<g>
</g>
<g>
</g>
<g>
</g>
<g>
</g>
<g>
</g>
<g>
</g>
<g>
</g>
<g>
</g>
<g>
</g>
<g>
</g>
<g>
</g>
<g>
</g>
<g>
</g>
<g>
</g>
<g>
</g>
</svg>
