<?xml version="1.0" encoding="iso-8859-1"?>
<!-- Generator: Adobe Illustrator 19.0.0, SVG Export Plug-In . SVG Version: 6.00 Build 0)  -->
<svg version="1.1" id="Layer_1" xmlns="http://www.w3.org/2000/svg" xmlns:xlink="http://www.w3.org/1999/xlink" x="0px" y="0px"
	 viewBox="0 0 512 512" style="enable-background:new 0 0 512 512;" xml:space="preserve">
<polygon style="fill:#DC7850;" points="341.689,177.193 329.207,164.71 264.828,229.089 264.828,170.951 247.172,170.951 
	247.172,229.089 182.793,164.71 170.311,177.193 247.172,254.055 247.172,426.951 264.828,426.951 264.828,254.055 "/>
<path style="fill:#E68C5A;" d="M432.552,479.916H79.448c-4.875,0-8.828-3.953-8.828-8.828v-44.138h370.759v44.138
	C441.379,475.965,437.427,479.916,432.552,479.916z"/>
<rect x="70.621" y="426.946" style="fill:#DC7850;" width="370.759" height="26.483"/>
<path style="fill:#E68C5A;" d="M450.207,435.778H61.793c-4.875,0-8.828-3.953-8.828-8.828l0,0c0-4.875,3.953-8.828,8.828-8.828
	h388.414c4.875,0,8.828,3.953,8.828,8.828l0,0C459.034,431.827,455.082,435.778,450.207,435.778z"/>
<path style="fill:#E15050;" d="M503.172,179.778H8.828c-4.875,0-8.828-3.953-8.828-8.828l0,0c0-4.875,3.953-8.828,8.828-8.828
	h494.345c4.875,0,8.828,3.953,8.828,8.828l0,0C512,175.827,508.047,179.778,503.172,179.778z"/>
<path style="fill:#FFC855;" d="M503.172,162.123H8.828L247.662,34.176c5.208-2.79,11.466-2.79,16.674,0L503.172,162.123z"/>
<g>
	<polygon style="fill:#E15050;" points="41.784,144.468 470.216,144.468 437.26,126.813 74.74,126.813 	"/>
	<polygon style="fill:#E15050;" points="107.697,109.158 404.303,109.158 371.347,91.502 140.653,91.502 	"/>
	<polygon style="fill:#E15050;" points="173.609,73.847 338.391,73.847 305.434,56.192 206.566,56.192 	"/>
</g>
<g>
</g>
<g>
</g>
<g>
</g>
<g>
</g>
<g>
</g>
<g>
</g>
<g>
</g>
<g>
</g>
<g>
</g>
<g>
</g>
<g>
</g>
<g>
</g>
<g>
</g>
<g>
</g>
<g>
</g>
</svg>
