<?xml version="1.0" encoding="iso-8859-1"?>
<!-- Generator: Adobe Illustrator 19.0.0, SVG Export Plug-In . SVG Version: 6.00 Build 0)  -->
<svg version="1.1" id="Layer_1" xmlns="http://www.w3.org/2000/svg" xmlns:xlink="http://www.w3.org/1999/xlink" x="0px" y="0px"
	 viewBox="0 0 512 512" style="enable-background:new 0 0 512 512;" xml:space="preserve">
<rect x="61.793" y="441.379" style="fill:#66D8E4;" width="388.414" height="17.655"/>
<rect x="61.793" y="388.414" style="fill:#FFC855;" width="388.414" height="17.655"/>
<rect x="61.793" y="335.448" style="fill:#66D8E4;" width="388.414" height="17.655"/>
<rect x="61.793" y="282.483" style="fill:#FFC855;" width="388.414" height="17.655"/>
<rect x="61.793" y="229.517" style="fill:#66D8E4;" width="388.414" height="17.655"/>
<rect x="61.793" y="176.552" style="fill:#FFC855;" width="388.414" height="17.655"/>
<rect x="61.793" y="123.586" style="fill:#66D8E4;" width="388.414" height="17.655"/>
<rect x="61.793" y="70.621" style="fill:#FFC855;" width="194.207" height="17.655"/>
<rect x="61.793" y="17.655" style="fill:#66D8E4;" width="194.207" height="17.655"/>
<g>
	<path style="fill:#E68C5A;" d="M61.793,0c-4.879,0-8.828,3.953-8.828,8.828v494.345h17.655V8.828C70.621,3.953,66.673,0,61.793,0z"
		/>
	<path style="fill:#E68C5A;" d="M450.207,105.931c-4.879,0-8.828,3.953-8.828,8.828v388.414h17.655V114.759
		C459.034,109.884,455.086,105.931,450.207,105.931z"/>
	<path style="fill:#E68C5A;" d="M256,0c-4.879,0-8.828,3.953-8.828,8.828v494.345h17.655V8.828C264.828,3.953,260.879,0,256,0z"/>
</g>
<g>
	<path style="fill:#DC7850;" d="M459.034,512h-17.655c-4.879,0-8.828-3.953-8.828-8.828c0-4.875,3.948-8.828,8.828-8.828h17.655
		c4.879,0,8.828,3.953,8.828,8.828C467.862,508.047,463.914,512,459.034,512z"/>
	<path style="fill:#DC7850;" d="M70.621,512H52.966c-4.879,0-8.828-3.953-8.828-8.828c0-4.875,3.948-8.828,8.828-8.828h17.655
		c4.879,0,8.828,3.953,8.828,8.828C79.448,508.047,75.5,512,70.621,512z"/>
	<path style="fill:#DC7850;" d="M264.828,512h-17.655c-4.879,0-8.828-3.953-8.828-8.828c0-4.875,3.948-8.828,8.828-8.828h17.655
		c4.879,0,8.828,3.953,8.828,8.828C273.655,508.047,269.707,512,264.828,512z"/>
</g>
<g>
</g>
<g>
</g>
<g>
</g>
<g>
</g>
<g>
</g>
<g>
</g>
<g>
</g>
<g>
</g>
<g>
</g>
<g>
</g>
<g>
</g>
<g>
</g>
<g>
</g>
<g>
</g>
<g>
</g>
</svg>
