<?xml version="1.0" encoding="iso-8859-1"?>
<!-- Generator: Adobe Illustrator 19.0.0, SVG Export Plug-In . SVG Version: 6.00 Build 0)  -->
<svg version="1.1" id="Layer_1" xmlns="http://www.w3.org/2000/svg" xmlns:xlink="http://www.w3.org/1999/xlink" x="0px" y="0px"
	 viewBox="0 0 512.001 512.001" style="enable-background:new 0 0 512.001 512.001;" xml:space="preserve">
<rect x="70.62" y="297.719" style="fill:#DC7850;" width="70.62" height="17.655"/>
<path style="fill:#FFC855;" d="M256,50.539L26.485,200.606v264.83H185.38V262.403c0-4.875,3.953-8.828,8.828-8.828h123.585
	c4.875,0,8.828,3.953,8.828,8.828v203.033h158.895v-264.83L256,50.539z M141.242,377.161c0,4.875-3.953,8.828-8.828,8.828H79.45
	c-4.875,0-8.828-3.953-8.828-8.828V262.403c0-4.875,3.953-8.828,8.828-8.828h52.965c4.875,0,8.828,3.953,8.828,8.828V377.161z
	 M432.55,385.988h-52.965c-4.875,0-8.828-3.953-8.828-8.828V262.403c0-4.875,3.953-8.828,8.828-8.828h52.965
	c4.875,0,8.828,3.953,8.828,8.828v114.758C441.378,382.036,437.425,385.988,432.55,385.988z"/>
<g>
	<path style="fill:#E68C5A;" d="M185.38,474.264H26.485c-4.875,0-8.828-3.953-8.828-8.828v-17.655c0-4.875,3.953-8.828,8.828-8.828
		H185.38c4.875,0,8.828,3.953,8.828,8.828v17.655C194.207,470.311,190.255,474.264,185.38,474.264z"/>
	<path style="fill:#E68C5A;" d="M132.415,394.816H79.45c-9.732,0-17.655-7.923-17.655-17.655V262.403
		c0-9.732,7.923-17.655,17.655-17.655h52.965c9.732,0,17.655,7.923,17.655,17.655v114.758
		C150.07,386.893,142.147,394.816,132.415,394.816z M79.45,262.403v114.758h52.983l-0.018-114.758H79.45z"/>
</g>
<rect x="370.755" y="297.719" style="fill:#DC7850;" width="70.62" height="17.655"/>
<g>
	<path style="fill:#E68C5A;" d="M432.55,394.816h-52.965c-9.732,0-17.655-7.923-17.655-17.655V262.403
		c0-9.732,7.923-17.655,17.655-17.655h52.965c9.732,0,17.655,7.923,17.655,17.655v114.758
		C450.205,386.893,442.283,394.816,432.55,394.816z M379.585,262.403v114.758h52.983l-0.018-114.758H379.585z"/>
	<path style="fill:#E68C5A;" d="M485.515,474.264H326.62c-4.875,0-8.828-3.953-8.828-8.828v-17.655c0-4.875,3.953-8.828,8.828-8.828
		h158.895c4.875,0,8.828,3.953,8.828,8.828v17.655C494.343,470.311,490.39,474.264,485.515,474.264z"/>
</g>
<polygon style="fill:#FFA03C;" points="256,50.539 26.485,200.606 26.485,244.748 256,94.681 485.515,244.748 485.515,200.606 "/>
<path style="fill:#E15050;" d="M494.325,218.261c-3.215,0-6.465-0.871-9.388-2.716L260.707,74.362
	c-2.862-1.793-6.552-1.797-9.413,0.004L27.063,215.546c-8.25,5.198-19.155,2.724-24.345-5.535
	c-5.198-8.25-2.716-19.147,5.535-24.345L232.484,44.483c14.293-8.991,32.741-8.995,47.034-0.004l224.231,141.188
	c8.25,5.198,10.733,16.095,5.535,24.345C505.929,215.338,500.188,218.261,494.325,218.261z"/>
<g>
</g>
<g>
</g>
<g>
</g>
<g>
</g>
<g>
</g>
<g>
</g>
<g>
</g>
<g>
</g>
<g>
</g>
<g>
</g>
<g>
</g>
<g>
</g>
<g>
</g>
<g>
</g>
<g>
</g>
</svg>
