<?xml version="1.0" encoding="iso-8859-1"?>
<!-- Generator: Adobe Illustrator 19.0.0, SVG Export Plug-In . SVG Version: 6.00 Build 0)  -->
<svg version="1.1" id="Layer_1" xmlns="http://www.w3.org/2000/svg" xmlns:xlink="http://www.w3.org/1999/xlink" x="0px" y="0px"
	 viewBox="0 0 512 512" style="enable-background:new 0 0 512 512;" xml:space="preserve">
<path style="fill:#FFC855;" d="M511.564,371.133l-8.638-8.58c-5.598-5.56-6.827-14.159-3.011-21.065l6.351-11.495
	c-2.132-10.051-4.887-19.868-8.161-29.446l-12.12-6.552c-6.936-3.75-10.546-11.644-8.844-19.342l3.191-14.436
	c-4.572-8.312-9.623-16.313-15.059-24.03l-14.921-3.17c-7.722-1.641-13.416-8.207-13.947-16.084l-1.081-16.067
	c-6.317-6.209-12.967-12.072-19.898-17.603l-16.436,1.233c-7.868,0.59-15.171-4.111-17.891-11.518l-5.898-16.056
	c-7.421-3.916-15.058-7.47-22.888-10.654l-16.243,6.131c-7.374,2.784-15.7,0.342-20.404-5.983l-10.559-14.201
	c-7.972-1.55-16.067-2.749-24.285-3.54l-14.174,10.718c-6.301,4.764-14.998,4.764-21.298,0l-14.173-10.718
	c-8.217,0.791-16.312,1.99-24.285,3.54l-10.558,14.199c-4.704,6.326-13.031,8.767-20.405,5.983l-16.236-6.131
	c-7.83,3.185-15.465,6.738-22.886,10.653l-5.898,16.055c-2.721,7.406-10.026,12.108-17.894,11.518l-16.431-1.234
	c-6.932,5.53-13.582,11.394-19.9,17.603l-1.082,16.067c-0.531,7.875-6.225,14.442-13.946,16.083l-14.923,3.171
	c-5.436,7.716-10.488,15.719-15.06,24.03l3.191,14.439c1.702,7.698-1.908,15.591-8.843,19.34l-12.125,6.554
	c-3.275,9.579-6.03,19.395-8.162,29.448l6.353,11.497c3.816,6.905,2.586,15.503-3.011,21.064l-6.993,6.945
	C1.462,370.986,0.62,373.01,0,374.499l0,0c0,4.875,3.953,8.828,8.828,8.828h52.969h70.935c4.531,0,8.471-3.417,8.78-7.937
	c4.076-59.677,53.777-106.822,114.488-106.822s110.412,47.145,114.488,106.822c0.309,4.52,4.249,7.937,8.78,7.937h123.904
	c4.875,0,8.828-3.953,8.828-8.828c0-4.414,0,0.001,0,0.001C511.959,373.377,511.617,372.254,511.564,371.133z"/>
<path style="fill:#FFA54B;" d="M256,162.637c-121.884,0-220.69,98.806-220.69,220.69h26.486h70.935c4.53,0,8.471-3.417,8.78-7.937
	c4.076-59.677,53.777-106.822,114.488-106.822s110.412,47.145,114.488,106.822c0.309,4.52,4.249,7.937,8.78,7.937h97.421
	C476.69,261.443,377.884,162.637,256,162.637z"/>
<path style="fill:#E68C5A;" d="M256,233.258c-82.881,0-150.069,67.188-150.069,150.069h26.801c4.531,0,8.471-3.417,8.78-7.937
	c4.076-59.677,53.777-106.822,114.488-106.822s110.412,47.145,114.488,106.822c0.309,4.52,4.249,7.937,8.78,7.937h26.801
	C406.069,300.446,338.881,233.258,256,233.258z"/>
<path style="fill:#00D2B9;" d="M441.379,383.327h-17.655c0-92.483-75.242-167.724-167.724-167.724S88.276,290.845,88.276,383.327
	H70.621c0-102.22,83.164-185.379,185.379-185.379S441.379,281.107,441.379,383.327z"/>
<g>
	<circle style="fill:#FFFFFF;" cx="256" cy="193.534" r="13.241"/>
	<path style="fill:#FFFFFF;" d="M445.793,370.086c-7.313,0-13.241,5.929-13.241,13.241h26.483
		C459.034,376.014,453.106,370.086,445.793,370.086z"/>
	<path style="fill:#FFFFFF;" d="M66.207,370.086c-7.313,0-13.241,5.929-13.241,13.241h26.483
		C79.448,376.014,73.519,370.086,66.207,370.086z"/>
	<circle style="fill:#FFFFFF;" cx="390.201" cy="249.126" r="13.241"/>
	<circle style="fill:#FFFFFF;" cx="121.799" cy="249.126" r="13.241"/>
	<circle style="fill:#FFFFFF;" cx="183.371" cy="207.978" r="13.241"/>
	<circle style="fill:#FFFFFF;" cx="431.349" cy="310.698" r="13.241"/>
	<circle style="fill:#FFFFFF;" cx="328.629" cy="207.978" r="13.241"/>
	<circle style="fill:#FFFFFF;" cx="80.651" cy="310.698" r="13.241"/>
</g>
<g>
</g>
<g>
</g>
<g>
</g>
<g>
</g>
<g>
</g>
<g>
</g>
<g>
</g>
<g>
</g>
<g>
</g>
<g>
</g>
<g>
</g>
<g>
</g>
<g>
</g>
<g>
</g>
<g>
</g>
</svg>
