<?xml version="1.0" encoding="iso-8859-1"?>
<!-- Generator: Adobe Illustrator 19.0.0, SVG Export Plug-In . SVG Version: 6.00 Build 0)  -->
<svg version="1.1" id="Layer_1" xmlns="http://www.w3.org/2000/svg" xmlns:xlink="http://www.w3.org/1999/xlink" x="0px" y="0px"
	 viewBox="0 0 512 512" style="enable-background:new 0 0 512 512;" xml:space="preserve">
<path style="fill:#00BEA9;" d="M88.276,370.759h70.621c4.875,0,8.828-3.953,8.828-8.828v-17.655H79.448L88.276,370.759z"/>
<path style="fill:#00D2B9;" d="M79.448,353.103h97.103c4.875,0,8.828-3.953,8.828-8.828v-8.828c0-4.875-3.953-8.828-8.828-8.828
	H70.621L79.448,353.103z"/>
<path style="fill:#00BEA9;" d="M423.724,370.759h-70.621c-4.875,0-8.828-3.953-8.828-8.828v-17.655h88.276L423.724,370.759z"/>
<path style="fill:#00D2B9;" d="M432.552,353.103h-97.103c-4.875,0-8.828-3.953-8.828-8.828v-8.828c0-4.875,3.953-8.828,8.828-8.828
	h105.931L432.552,353.103z"/>
<rect x="247.172" y="8.828" style="fill:#DC7850;" width="17.655" height="44.138"/>
<circle style="fill:#E68C5A;" cx="256" cy="61.793" r="17.655"/>
<path style="fill:#DC7850;" d="M256,467.862c-111.957,0-203.034-91.082-203.034-203.034S144.043,61.793,256,61.793
	s203.034,91.082,203.034,203.034S367.957,467.862,256,467.862z M256,79.448c-102.216,0-185.379,83.159-185.379,185.379
	S153.784,450.207,256,450.207s185.379-83.159,185.379-185.379S358.216,79.448,256,79.448z"/>
<path style="fill:#FFC855;" d="M325.25,30.63C319.353,12.31,302.465,0,283.224,0h-54.449c-19.242,0-36.129,12.31-42.026,30.63
	L35.733,500.47l16.81,5.405L203.561,36.034c3.534-10.991,13.672-18.379,25.215-18.379h54.449c11.543,0,21.681,7.388,25.216,18.379
	l151.017,469.841l16.81-5.405L325.25,30.63z"/>
<g>
	<path style="fill:#FFA54B;" d="M61.793,512h-35.31c-4.879,0-8.828-3.953-8.828-8.828c0-4.875,3.948-8.828,8.828-8.828h35.31
		c4.879,0,8.828,3.953,8.828,8.828C70.621,508.047,66.673,512,61.793,512z"/>
	<path style="fill:#FFA54B;" d="M485.517,512h-35.31c-4.879,0-8.828-3.953-8.828-8.828c0-4.875,3.948-8.828,8.828-8.828h35.31
		c4.879,0,8.828,3.953,8.828,8.828C494.345,508.047,490.397,512,485.517,512z"/>
</g>
<g>
</g>
<g>
</g>
<g>
</g>
<g>
</g>
<g>
</g>
<g>
</g>
<g>
</g>
<g>
</g>
<g>
</g>
<g>
</g>
<g>
</g>
<g>
</g>
<g>
</g>
<g>
</g>
<g>
</g>
</svg>
