<?xml version="1.0" encoding="iso-8859-1"?>
<!-- Generator: Adobe Illustrator 19.0.0, SVG Export Plug-In . SVG Version: 6.00 Build 0)  -->
<svg version="1.1" id="Layer_1" xmlns="http://www.w3.org/2000/svg" xmlns:xlink="http://www.w3.org/1999/xlink" x="0px" y="0px"
	 viewBox="0 0 512 512" style="enable-background:new 0 0 512 512;" xml:space="preserve">
<path style="fill:#FFA54B;" d="M256.466,26.903c-14.599,0-26.434,11.835-26.434,26.434h17.623v415.239h17.623V53.337H282.9
	C282.9,38.738,271.065,26.903,256.466,26.903z"/>
<path style="fill:#FFC855;" d="M300.359,485.098h-87.786c-4.416,0-7.534-4.326-6.137-8.515l4.498-13.496
	c0.88-2.641,3.353-4.423,6.137-4.423h78.789c2.784,0,5.257,1.782,6.137,4.423l4.498,13.496
	C307.892,480.772,304.774,485.098,300.359,485.098z"/>
<polygon style="fill:#A7A5AC;" points="181.611,52.529 159.72,289.426 177.275,291.043 199.166,54.145 "/>
<path style="fill:#736F7B;" d="M203.606,302.29c-0.267,0-0.542-0.013-0.817-0.039l-70.191-6.484
	c-4.844-0.447-8.416-4.737-7.968-9.581c0.447-4.841,4.681-8.412,9.586-7.963l70.191,6.484c4.844,0.447,8.416,4.737,7.968,9.581
	C211.952,298.861,208.106,302.29,203.606,302.29z"/>
<polygon style="fill:#A7A5AC;" points="331.32,52.529 313.765,54.145 335.656,291.043 353.211,289.426 "/>
<path style="fill:#736F7B;" d="M309.325,302.29c-4.5,0-8.347-3.429-8.768-8.003c-0.447-4.844,3.124-9.134,7.968-9.581l70.191-6.484
	c4.965-0.508,9.139,3.119,9.586,7.963c0.447,4.844-3.124,9.134-7.968,9.581l-70.191,6.484
	C309.867,302.278,309.592,302.29,309.325,302.29z"/>
<polygon style="fill:#A7A5AC;" points="395.891,50.076 379.525,56.616 462.27,263.823 478.636,257.282 "/>
<path style="fill:#736F7B;" d="M437.719,282.439c-3.494,0-6.807-2.099-8.184-5.55c-1.807-4.518,0.395-9.646,4.913-11.449
	l65.467-26.141c4.518-1.785,9.646,0.388,11.453,4.918c1.807,4.518-0.395,9.646-4.913,11.449l-65.467,26.141
	C439.914,282.232,438.813,282.439,437.719,282.439z"/>
<polygon style="fill:#A7A5AC;" points="116.11,50.076 33.365,257.282 49.733,263.823 132.478,56.616 "/>
<path style="fill:#736F7B;" d="M74.282,282.439c-1.093,0-2.194-0.207-3.27-0.632L5.545,255.664
	c-4.518-1.803-6.721-6.931-4.913-11.449c1.799-4.53,6.927-6.708,11.453-4.918l65.467,26.141c4.518,1.803,6.721,6.931,4.913,11.449
	C81.088,280.34,77.776,282.439,74.282,282.439z"/>
<path style="fill:#FFC855;" d="M423.883,62.148H89.048c-4.866,0-8.811-3.945-8.811-8.811l0,0c0-4.866,3.945-8.811,8.811-8.811
	h334.835c4.866,0,8.811,3.945,8.811,8.811l0,0C432.694,58.203,428.749,62.148,423.883,62.148z"/>
<g>
</g>
<g>
</g>
<g>
</g>
<g>
</g>
<g>
</g>
<g>
</g>
<g>
</g>
<g>
</g>
<g>
</g>
<g>
</g>
<g>
</g>
<g>
</g>
<g>
</g>
<g>
</g>
<g>
</g>
</svg>
