<?xml version="1.0" encoding="iso-8859-1"?>
<!-- Generator: Adobe Illustrator 19.0.0, SVG Export Plug-In . SVG Version: 6.00 Build 0)  -->
<svg version="1.1" id="Layer_1" xmlns="http://www.w3.org/2000/svg" xmlns:xlink="http://www.w3.org/1999/xlink" x="0px" y="0px"
	 viewBox="0 0 512 512" style="enable-background:new 0 0 512 512;" xml:space="preserve">
<path style="fill:#E15050;" d="M282.483,123.586H17.655C7.923,123.586,0,131.505,0,141.241V256h17.655V141.241h52.966V256h17.655
	V141.241h52.966V256h17.655V141.241h52.966V256h17.655V141.241h52.966V256h17.655V141.241
	C300.138,131.505,292.215,123.586,282.483,123.586z"/>
<rect x="467.862" y="141.241" style="fill:#D24146;" width="17.655" height="114.759"/>
<rect x="414.897" y="132.414" style="fill:#FFC855;" width="17.655" height="123.586"/>
<g>
	<rect x="291.31" y="308.966" style="fill:#736F7B;" width="35.31" height="17.655"/>
	<circle style="fill:#736F7B;" cx="35.31" cy="353.103" r="17.655"/>
	<circle style="fill:#736F7B;" cx="70.621" cy="353.103" r="17.655"/>
	<circle style="fill:#736F7B;" cx="229.517" cy="353.103" r="17.655"/>
	<circle style="fill:#736F7B;" cx="476.69" cy="353.103" r="17.655"/>
	<circle style="fill:#736F7B;" cx="264.828" cy="353.103" r="17.655"/>
	<circle style="fill:#736F7B;" cx="353.103" cy="353.103" r="17.655"/>
</g>
<path style="fill:#E15050;" d="M432.552,123.586h-88.276c-9.751,0-17.655,7.904-17.655,17.655V256h26.483V150.069
	c0-4.875,3.953-8.828,8.828-8.828h70.621c4.879,0,8.828-3.953,8.828-8.828C441.379,127.539,437.431,123.586,432.552,123.586z"/>
<path style="fill:#FFC855;" d="M485.517,344.276H326.621c-4.875,0-8.828-3.953-8.828-8.828V256c0-4.875,3.953-8.828,8.828-8.828
	h158.897c14.626,0,26.483,11.857,26.483,26.483v44.138C512,332.419,500.143,344.276,485.517,344.276z"/>
<path style="fill:#FFA54B;" d="M485.517,326.621H344.276c-4.875,0-8.828-3.953-8.828-8.828l0,0c0-4.875,3.953-8.828,8.828-8.828
	h141.241c4.875,0,8.828,3.953,8.828,8.828l0,0C494.345,322.668,490.392,326.621,485.517,326.621z"/>
<path style="fill:#FFC855;" d="M291.31,344.276H8.828c-4.875,0-8.828-3.953-8.828-8.828V256c0-4.875,3.953-8.828,8.828-8.828H291.31
	c4.875,0,8.828,3.953,8.828,8.828v79.448C300.138,340.323,296.185,344.276,291.31,344.276z"/>
<path style="fill:#FFA54B;" d="M273.655,326.621H26.483c-4.875,0-8.828-3.953-8.828-8.828l0,0c0-4.875,3.953-8.828,8.828-8.828
	h247.172c4.875,0,8.828,3.953,8.828,8.828l0,0C282.483,322.668,278.53,326.621,273.655,326.621z"/>
<path style="fill:#E15050;" d="M485.517,150.069h-17.655c-4.875,0-8.828-3.953-8.828-8.828v-8.828c0-4.875,3.953-8.828,8.828-8.828
	h17.655c4.875,0,8.828,3.953,8.828,8.828v8.828C494.345,146.116,490.392,150.069,485.517,150.069z"/>
<path style="fill:#8D8A94;" d="M503.172,370.759H8.828c-4.875,0-8.828,3.953-8.828,8.828l0,0c0,4.875,3.953,8.828,8.828,8.828
	h494.345c4.875,0,8.828-3.953,8.828-8.828l0,0C512,374.711,508.047,370.759,503.172,370.759z"/>
<g>
</g>
<g>
</g>
<g>
</g>
<g>
</g>
<g>
</g>
<g>
</g>
<g>
</g>
<g>
</g>
<g>
</g>
<g>
</g>
<g>
</g>
<g>
</g>
<g>
</g>
<g>
</g>
<g>
</g>
</svg>
