<?xml version="1.0" encoding="iso-8859-1"?>
<!-- Generator: Adobe Illustrator 19.0.0, SVG Export Plug-In . SVG Version: 6.00 Build 0)  -->
<svg version="1.1" id="Layer_1" xmlns="http://www.w3.org/2000/svg" xmlns:xlink="http://www.w3.org/1999/xlink" x="0px" y="0px"
	 viewBox="0 0 512 512" style="enable-background:new 0 0 512 512;" xml:space="preserve">
<path style="fill:#E68C5A;" d="M459.034,8.828H52.966c-24.337,0-44.138,19.801-44.138,44.138v450.207h17.655V52.966
	c0-14.603,11.88-26.483,26.483-26.483h406.069c14.603,0,26.483,11.88,26.483,26.483v450.207h17.655V52.966
	C503.172,28.629,483.371,8.828,459.034,8.828z"/>
<path style="fill:#B9B7BD;" d="M432.552,0c-4.879,0-8.828,3.953-8.828,8.828v41.769c-2.004,1.009-6.508,2.369-13.241,2.369
	s-11.238-1.361-13.241-2.369V17.655c0-4.875-3.948-8.828-8.828-8.828s-8.828,3.953-8.828,8.828v32.941
	c-2.004,1.009-6.508,2.369-13.241,2.369c-6.733,0-11.237-1.361-13.241-2.369V17.655c0-4.875-3.948-8.828-8.828-8.828
	c-4.879,0-8.828,3.953-8.828,8.828v32.941c-2.004,1.009-6.508,2.369-13.241,2.369c-6.733,0-11.238-1.361-13.241-2.369V17.655
	c0-4.875-3.948-8.828-8.828-8.828c-4.879,0-8.828,3.953-8.828,8.828v32.941c-2.004,1.009-6.508,2.369-13.241,2.369
	c-6.733,0-11.238-1.361-13.241-2.369V17.655c0-4.875-3.948-8.828-8.828-8.828c-4.879,0-8.828,3.953-8.828,8.828v32.941
	c-2.004,1.009-6.508,2.369-13.241,2.369s-11.238-1.361-13.241-2.369V17.655c0-4.875-3.948-8.828-8.828-8.828
	c-4.879,0-8.828,3.953-8.828,8.828v32.941c-2.004,1.009-6.508,2.369-13.241,2.369s-11.238-1.361-13.241-2.369V17.655
	c0-4.875-3.948-8.828-8.828-8.828s-8.828,3.953-8.828,8.828v32.941c-2.004,1.009-6.508,2.369-13.241,2.369
	s-11.238-1.361-13.241-2.369V17.655c0-4.875-3.948-8.828-8.828-8.828c-4.879,0-8.828,3.953-8.828,8.828v32.941
	c-2.004,1.009-6.508,2.369-13.241,2.369s-11.238-1.361-13.241-2.369V8.828C88.276,3.953,84.328,0,79.448,0
	c-4.879,0-8.828,3.953-8.828,8.828v441.379c0,4.875,3.948,8.828,8.828,8.828c4.879,0,8.828-3.953,8.828-8.828v-27.935
	c3.924,0.926,8.351,1.452,13.241,1.452s9.318-0.526,13.241-1.452v27.935c0,4.875,3.948,8.828,8.828,8.828
	c4.879,0,8.828-3.953,8.828-8.828v-27.935c3.924,0.926,8.351,1.452,13.241,1.452c4.891,0,9.318-0.526,13.241-1.452v27.935
	c0,4.875,3.948,8.828,8.828,8.828s8.828-3.953,8.828-8.828v-27.935c3.924,0.926,8.351,1.452,13.241,1.452s9.318-0.526,13.241-1.452
	v27.935c0,4.875,3.948,8.828,8.828,8.828c4.879,0,8.828-3.953,8.828-8.828v-27.935c3.924,0.926,8.351,1.452,13.241,1.452
	s9.318-0.526,13.241-1.452v27.935c0,4.875,3.948,8.828,8.828,8.828c4.879,0,8.828-3.953,8.828-8.828v-27.935
	c3.924,0.926,8.351,1.452,13.241,1.452c4.89,0,9.318-0.526,13.241-1.452v27.935c0,4.875,3.948,8.828,8.828,8.828
	c4.879,0,8.828-3.953,8.828-8.828v-27.935c3.924,0.926,8.351,1.452,13.241,1.452c4.89,0,9.318-0.526,13.241-1.452v27.935
	c0,4.875,3.948,8.828,8.828,8.828c4.879,0,8.828-3.953,8.828-8.828v-27.935c3.924,0.926,8.351,1.452,13.241,1.452
	c4.891,0,9.318-0.526,13.241-1.452v27.935c0,4.875,3.948,8.828,8.828,8.828s8.828-3.953,8.828-8.828v-27.935
	c3.924,0.926,8.351,1.452,13.241,1.452s9.318-0.526,13.241-1.452v27.935c0,4.875,3.948,8.828,8.828,8.828
	c4.879,0,8.828-3.953,8.828-8.828V8.828C441.379,3.953,437.431,0,432.552,0z M423.724,359.562c-2.004,1.01-6.508,2.369-13.241,2.369
	s-11.238-1.361-13.241-2.369v-25.565c3.924,0.926,8.351,1.452,13.241,1.452s9.318-0.526,13.241-1.452V359.562z M379.586,271.286
	c-2.004,1.01-6.508,2.369-13.241,2.369c-6.733,0-11.237-1.361-13.241-2.369v-25.565c3.924,0.926,8.351,1.452,13.241,1.452
	c4.891,0,9.318-0.526,13.241-1.452V271.286z M145.655,203.034c4.891,0,9.318-0.526,13.241-1.452v25.565
	c-2.004,1.01-6.508,2.369-13.241,2.369s-11.238-1.361-13.241-2.369v-25.565C136.338,202.508,140.765,203.034,145.655,203.034z
	 M335.448,227.148c-2.004,1.01-6.508,2.369-13.241,2.369c-6.733,0-11.238-1.361-13.241-2.369v-25.565
	c3.924,0.926,8.351,1.452,13.241,1.452c4.89,0,9.318-0.526,13.241-1.452V227.148z M291.31,227.148
	c-2.004,1.01-6.508,2.369-13.241,2.369c-6.733,0-11.238-1.361-13.241-2.369v-25.565c3.924,0.926,8.351,1.452,13.241,1.452
	c4.89,0,9.318-0.526,13.241-1.452V227.148z M247.172,227.148c-2.004,1.01-6.508,2.369-13.241,2.369s-11.238-1.361-13.241-2.369
	v-25.565c3.924,0.926,8.351,1.452,13.241,1.452s9.318-0.526,13.241-1.452V227.148z M203.034,227.148
	c-2.004,1.01-6.508,2.369-13.241,2.369s-11.238-1.361-13.241-2.369v-25.565c3.924,0.926,8.351,1.452,13.241,1.452
	s9.318-0.526,13.241-1.452V227.148z M132.414,245.72c3.924,0.926,8.351,1.452,13.241,1.452c4.891,0,9.318-0.526,13.241-1.452v25.565
	c-2.004,1.01-6.508,2.369-13.241,2.369s-11.238-1.361-13.241-2.369V245.72z M176.552,245.72c3.924,0.926,8.351,1.452,13.241,1.452
	s9.318-0.526,13.241-1.452v25.565c-2.004,1.01-6.508,2.369-13.241,2.369s-11.238-1.361-13.241-2.369V245.72z M220.69,245.72
	c3.924,0.926,8.351,1.452,13.241,1.452s9.318-0.526,13.241-1.452v25.565c-2.004,1.01-6.508,2.369-13.241,2.369
	s-11.238-1.361-13.241-2.369V245.72z M264.828,245.72c3.924,0.926,8.351,1.452,13.241,1.452c4.89,0,9.318-0.526,13.241-1.452v25.565
	c-2.004,1.01-6.508,2.369-13.241,2.369c-6.733,0-11.238-1.361-13.241-2.369V245.72z M308.966,245.72
	c3.924,0.926,8.351,1.452,13.241,1.452c4.89,0,9.318-0.526,13.241-1.452v25.565c-2.004,1.01-6.508,2.369-13.241,2.369
	c-6.733,0-11.238-1.361-13.241-2.369V245.72z M379.586,227.148c-2.004,1.01-6.508,2.369-13.241,2.369
	c-6.733,0-11.237-1.361-13.241-2.369v-25.565c3.924,0.926,8.351,1.452,13.241,1.452c4.891,0,9.318-0.526,13.241-1.452V227.148z
	 M379.586,183.01c-2.004,1.01-6.508,2.369-13.241,2.369c-6.733,0-11.237-1.361-13.241-2.369v-25.565
	c3.924,0.926,8.351,1.452,13.241,1.452c4.891,0,9.318-0.526,13.241-1.452V183.01z M335.448,183.01
	c-2.004,1.01-6.508,2.369-13.241,2.369c-6.733,0-11.238-1.361-13.241-2.369v-25.565c3.924,0.926,8.351,1.452,13.241,1.452
	c4.89,0,9.318-0.526,13.241-1.452V183.01z M291.31,183.01c-2.004,1.01-6.508,2.369-13.241,2.369c-6.733,0-11.238-1.361-13.241-2.369
	v-25.565c3.924,0.926,8.351,1.452,13.241,1.452c4.89,0,9.318-0.526,13.241-1.452V183.01z M247.172,183.01
	c-2.004,1.01-6.508,2.369-13.241,2.369s-11.238-1.361-13.241-2.369v-25.565c3.924,0.926,8.351,1.452,13.241,1.452
	s9.318-0.526,13.241-1.452V183.01z M203.034,183.01c-2.004,1.01-6.508,2.369-13.241,2.369s-11.238-1.361-13.241-2.369v-25.565
	c3.924,0.926,8.351,1.452,13.241,1.452s9.318-0.526,13.241-1.452V183.01z M158.897,183.01c-2.004,1.01-6.508,2.369-13.241,2.369
	s-11.238-1.361-13.241-2.369v-25.565c3.924,0.926,8.351,1.452,13.241,1.452c4.891,0,9.318-0.526,13.241-1.452V183.01z
	 M132.414,289.858c3.924,0.926,8.351,1.452,13.241,1.452c4.891,0,9.318-0.526,13.241-1.452v25.565
	c-2.004,1.01-6.508,2.369-13.241,2.369s-11.238-1.361-13.241-2.369V289.858z M176.552,289.858c3.924,0.926,8.351,1.452,13.241,1.452
	s9.318-0.526,13.241-1.452v25.565c-2.004,1.01-6.508,2.369-13.241,2.369s-11.238-1.361-13.241-2.369V289.858z M220.69,289.858
	c3.924,0.926,8.351,1.452,13.241,1.452s9.318-0.526,13.241-1.452v25.565c-2.004,1.01-6.508,2.369-13.241,2.369
	s-11.238-1.361-13.241-2.369V289.858z M264.828,289.858c3.924,0.926,8.351,1.452,13.241,1.452c4.89,0,9.318-0.526,13.241-1.452
	v25.565c-2.004,1.01-6.508,2.369-13.241,2.369c-6.733,0-11.238-1.361-13.241-2.369V289.858z M308.966,289.858
	c3.924,0.926,8.351,1.452,13.241,1.452c4.89,0,9.318-0.526,13.241-1.452v25.565c-2.004,1.01-6.508,2.369-13.241,2.369
	c-6.733,0-11.238-1.361-13.241-2.369V289.858z M353.103,289.858c3.924,0.926,8.351,1.452,13.241,1.452
	c4.891,0,9.318-0.526,13.241-1.452v25.565c-2.004,1.01-6.508,2.369-13.241,2.369c-6.733,0-11.237-1.361-13.241-2.369V289.858z
	 M379.586,138.872c-2.004,1.01-6.508,2.369-13.241,2.369c-6.733,0-11.237-1.361-13.241-2.369v-25.565
	c3.924,0.926,8.351,1.452,13.241,1.452c4.891,0,9.318-0.526,13.241-1.452V138.872z M335.448,138.872
	c-2.004,1.01-6.508,2.369-13.241,2.369c-6.733,0-11.238-1.361-13.241-2.369v-25.565c3.924,0.926,8.351,1.452,13.241,1.452
	c4.89,0,9.318-0.526,13.241-1.452V138.872z M291.31,138.872c-2.004,1.01-6.508,2.369-13.241,2.369
	c-6.733,0-11.238-1.361-13.241-2.369v-25.565c3.924,0.926,8.351,1.452,13.241,1.452c4.89,0,9.318-0.526,13.241-1.452V138.872z
	 M247.172,138.872c-2.004,1.01-6.508,2.369-13.241,2.369s-11.238-1.361-13.241-2.369v-25.565c3.924,0.926,8.351,1.452,13.241,1.452
	s9.318-0.526,13.241-1.452V138.872z M203.034,138.872c-2.004,1.01-6.508,2.369-13.241,2.369s-11.238-1.361-13.241-2.369v-25.565
	c3.924,0.926,8.351,1.452,13.241,1.452s9.318-0.526,13.241-1.452V138.872z M158.897,138.872c-2.004,1.01-6.508,2.369-13.241,2.369
	s-11.238-1.361-13.241-2.369v-25.565c3.924,0.926,8.351,1.452,13.241,1.452c4.891,0,9.318-0.526,13.241-1.452V138.872z
	 M114.759,138.872c-2.004,1.01-6.508,2.369-13.241,2.369s-11.238-1.361-13.241-2.369v-25.565c3.924,0.926,8.351,1.452,13.241,1.452
	s9.318-0.526,13.241-1.452V138.872z M101.517,158.897c4.89,0,9.318-0.526,13.241-1.452v25.565c-2.004,1.01-6.508,2.369-13.241,2.369
	s-11.238-1.361-13.241-2.369v-25.565C92.2,158.37,96.627,158.897,101.517,158.897z M101.517,203.034
	c4.89,0,9.318-0.526,13.241-1.452v25.565c-2.004,1.01-6.508,2.369-13.241,2.369s-11.238-1.361-13.241-2.369v-25.565
	C92.2,202.508,96.627,203.034,101.517,203.034z M101.517,247.172c4.89,0,9.318-0.526,13.241-1.452v25.565
	c-2.004,1.01-6.508,2.369-13.241,2.369s-11.238-1.361-13.241-2.369V245.72C92.2,246.646,96.627,247.172,101.517,247.172z
	 M101.517,291.31c4.89,0,9.318-0.526,13.241-1.452v25.565c-2.004,1.01-6.508,2.369-13.241,2.369s-11.238-1.361-13.241-2.369v-25.565
	C92.2,290.784,96.627,291.31,101.517,291.31z M88.276,333.996c3.924,0.926,8.351,1.452,13.241,1.452s9.318-0.526,13.241-1.452
	v25.565c-2.004,1.01-6.508,2.369-13.241,2.369s-11.238-1.361-13.241-2.369V333.996z M132.414,333.996
	c3.924,0.926,8.351,1.452,13.241,1.452c4.891,0,9.318-0.526,13.241-1.452v25.565c-2.004,1.01-6.508,2.369-13.241,2.369
	s-11.238-1.361-13.241-2.369V333.996z M176.552,333.996c3.924,0.926,8.351,1.452,13.241,1.452s9.318-0.526,13.241-1.452v25.565
	c-2.004,1.01-6.508,2.369-13.241,2.369s-11.238-1.361-13.241-2.369V333.996z M220.69,333.996c3.924,0.926,8.351,1.452,13.241,1.452
	s9.318-0.526,13.241-1.452v25.565c-2.004,1.01-6.508,2.369-13.241,2.369s-11.238-1.361-13.241-2.369V333.996z M264.828,333.996
	c3.924,0.926,8.351,1.452,13.241,1.452c4.89,0,9.318-0.526,13.241-1.452v25.565c-2.004,1.01-6.508,2.369-13.241,2.369
	c-6.733,0-11.238-1.361-13.241-2.369V333.996z M308.966,333.996c3.924,0.926,8.351,1.452,13.241,1.452
	c4.89,0,9.318-0.526,13.241-1.452v25.565c-2.004,1.01-6.508,2.369-13.241,2.369c-6.733,0-11.238-1.361-13.241-2.369V333.996z
	 M353.103,333.996c3.924,0.926,8.351,1.452,13.241,1.452c4.891,0,9.318-0.526,13.241-1.452v25.565
	c-2.004,1.01-6.508,2.369-13.241,2.369c-6.733,0-11.237-1.361-13.241-2.369V333.996z M423.724,315.424
	c-2.004,1.01-6.508,2.369-13.241,2.369s-11.238-1.361-13.241-2.369v-25.565c3.924,0.926,8.351,1.452,13.241,1.452
	s9.318-0.526,13.241-1.452V315.424z M423.724,271.286c-2.004,1.01-6.508,2.369-13.241,2.369s-11.238-1.361-13.241-2.369v-25.565
	c3.924,0.926,8.351,1.452,13.241,1.452s9.318-0.526,13.241-1.452V271.286z M423.724,227.148c-2.004,1.01-6.508,2.369-13.241,2.369
	s-11.238-1.361-13.241-2.369v-25.565c3.924,0.926,8.351,1.452,13.241,1.452s9.318-0.526,13.241-1.452V227.148z M423.724,183.01
	c-2.004,1.01-6.508,2.369-13.241,2.369s-11.238-1.361-13.241-2.369v-25.565c3.924,0.926,8.351,1.452,13.241,1.452
	s9.318-0.526,13.241-1.452V183.01z M423.724,138.872c-2.004,1.01-6.508,2.369-13.241,2.369s-11.238-1.361-13.241-2.369v-25.565
	c3.924,0.926,8.351,1.452,13.241,1.452s9.318-0.526,13.241-1.452V138.872z M423.724,69.169v25.565
	c-2.004,1.01-6.508,2.37-13.241,2.37s-11.238-1.361-13.241-2.369V69.169c3.924,0.926,8.351,1.452,13.241,1.452
	S419.8,70.094,423.724,69.169z M379.586,69.169v25.565c-2.004,1.01-6.508,2.37-13.241,2.37c-6.733,0-11.237-1.361-13.241-2.369
	V69.169c3.924,0.926,8.351,1.452,13.241,1.452C371.235,70.621,375.662,70.094,379.586,69.169z M335.448,69.169v25.565
	c-2.004,1.01-6.508,2.37-13.241,2.37c-6.733,0-11.238-1.361-13.241-2.369V69.169c3.924,0.926,8.351,1.452,13.241,1.452
	C327.097,70.621,331.524,70.094,335.448,69.169z M291.31,69.169v25.565c-2.004,1.01-6.508,2.37-13.241,2.37
	c-6.733,0-11.238-1.361-13.241-2.369V69.169c3.924,0.926,8.351,1.452,13.241,1.452C282.959,70.621,287.386,70.094,291.31,69.169z
	 M247.172,69.169v25.565c-2.004,1.01-6.508,2.37-13.241,2.37s-11.238-1.361-13.241-2.369V69.169
	c3.924,0.926,8.351,1.452,13.241,1.452S243.249,70.094,247.172,69.169z M203.034,69.169v25.565c-2.004,1.01-6.508,2.37-13.241,2.37
	s-11.238-1.361-13.241-2.369V69.169c3.924,0.926,8.351,1.452,13.241,1.452S199.111,70.094,203.034,69.169z M158.897,69.169v25.565
	c-2.004,1.01-6.508,2.37-13.241,2.37s-11.238-1.361-13.241-2.369V69.169c3.924,0.926,8.351,1.452,13.241,1.452
	C150.546,70.621,154.973,70.094,158.897,69.169z M101.517,70.621c4.89,0,9.318-0.526,13.241-1.452v25.565
	c-2.004,1.01-6.508,2.37-13.241,2.37s-11.238-1.361-13.241-2.369V69.169C92.2,70.094,96.627,70.621,101.517,70.621z M88.276,403.7
	v-25.565c3.924,0.926,8.351,1.452,13.241,1.452s9.318-0.526,13.241-1.452V403.7c-2.004,1.01-6.508,2.369-13.241,2.369
	S90.28,404.708,88.276,403.7z M132.414,403.7v-25.565c3.924,0.926,8.351,1.452,13.241,1.452c4.891,0,9.318-0.526,13.241-1.452V403.7
	c-2.004,1.01-6.508,2.369-13.241,2.369S134.418,404.708,132.414,403.7z M176.552,403.7v-25.565
	c3.924,0.926,8.351,1.452,13.241,1.452s9.318-0.526,13.241-1.452V403.7c-2.004,1.01-6.508,2.369-13.241,2.369
	S178.556,404.708,176.552,403.7z M220.69,403.7v-25.565c3.924,0.926,8.351,1.452,13.241,1.452s9.318-0.526,13.241-1.452V403.7
	c-2.004,1.01-6.508,2.369-13.241,2.369S222.694,404.708,220.69,403.7z M264.828,403.7v-25.565c3.924,0.926,8.351,1.452,13.241,1.452
	c4.89,0,9.318-0.526,13.241-1.452V403.7c-2.004,1.01-6.508,2.369-13.241,2.369C271.336,406.069,266.831,404.708,264.828,403.7z
	 M308.966,403.7v-25.565c3.924,0.926,8.351,1.452,13.241,1.452c4.89,0,9.318-0.526,13.241-1.452V403.7
	c-2.004,1.01-6.508,2.369-13.241,2.369C315.474,406.069,310.969,404.708,308.966,403.7z M353.103,403.7v-25.565
	c3.924,0.926,8.351,1.452,13.241,1.452c4.891,0,9.318-0.526,13.241-1.452V403.7c-2.004,1.01-6.508,2.369-13.241,2.369
	C359.612,406.069,355.107,404.708,353.103,403.7z M410.483,406.069c-6.733,0-11.238-1.361-13.241-2.369v-25.565
	c3.924,0.926,8.351,1.452,13.241,1.452s9.318-0.526,13.241-1.452V403.7C421.72,404.708,417.216,406.069,410.483,406.069z"/>
<g>
	<path style="fill:#DC7850;" d="M26.483,512H8.828C3.948,512,0,508.047,0,503.172c0-4.875,3.948-8.828,8.828-8.828h17.655
		c4.879,0,8.828,3.953,8.828,8.828C35.31,508.047,31.362,512,26.483,512z"/>
	<path style="fill:#DC7850;" d="M503.172,512h-17.655c-4.879,0-8.828-3.953-8.828-8.828c0-4.875,3.948-8.828,8.828-8.828h17.655
		c4.879,0,8.828,3.953,8.828,8.828C512,508.047,508.052,512,503.172,512z"/>
</g>
<g>
	<path style="fill:#736F7B;" d="M79.448,35.31L79.448,35.31c-4.875,0-8.828-3.953-8.828-8.828V8.828C70.621,3.953,74.573,0,79.448,0
		l0,0c4.875,0,8.828,3.953,8.828,8.828v17.655C88.276,31.358,84.323,35.31,79.448,35.31z"/>
	<path style="fill:#736F7B;" d="M123.586,35.31L123.586,35.31c-4.875,0-8.828-3.953-8.828-8.828V8.828
		c0-4.875,3.953-8.828,8.828-8.828l0,0c4.875,0,8.828,3.953,8.828,8.828v17.655C132.414,31.358,128.461,35.31,123.586,35.31z"/>
	<path style="fill:#736F7B;" d="M167.724,35.31L167.724,35.31c-4.875,0-8.828-3.953-8.828-8.828V8.828
		c0-4.875,3.953-8.828,8.828-8.828l0,0c4.875,0,8.828,3.953,8.828,8.828v17.655C176.552,31.358,172.599,35.31,167.724,35.31z"/>
	<path style="fill:#736F7B;" d="M211.862,35.31L211.862,35.31c-4.875,0-8.828-3.953-8.828-8.828V8.828
		c0-4.875,3.953-8.828,8.828-8.828l0,0c4.875,0,8.828,3.953,8.828,8.828v17.655C220.69,31.358,216.737,35.31,211.862,35.31z"/>
	<path style="fill:#736F7B;" d="M256,35.31L256,35.31c-4.875,0-8.828-3.953-8.828-8.828V8.828C247.172,3.953,251.125,0,256,0l0,0
		c4.875,0,8.828,3.953,8.828,8.828v17.655C264.828,31.358,260.875,35.31,256,35.31z"/>
	<path style="fill:#736F7B;" d="M300.138,35.31L300.138,35.31c-4.875,0-8.828-3.953-8.828-8.828V8.828
		c0-4.875,3.953-8.828,8.828-8.828l0,0c4.875,0,8.828,3.953,8.828,8.828v17.655C308.966,31.358,305.013,35.31,300.138,35.31z"/>
	<path style="fill:#736F7B;" d="M344.276,35.31L344.276,35.31c-4.875,0-8.828-3.953-8.828-8.828V8.828
		c0-4.875,3.953-8.828,8.828-8.828l0,0c4.875,0,8.828,3.953,8.828,8.828v17.655C353.103,31.358,349.151,35.31,344.276,35.31z"/>
	<path style="fill:#736F7B;" d="M388.414,35.31L388.414,35.31c-4.875,0-8.828-3.953-8.828-8.828V8.828
		c0-4.875,3.953-8.828,8.828-8.828l0,0c4.875,0,8.828,3.953,8.828,8.828v17.655C397.241,31.358,393.289,35.31,388.414,35.31z"/>
	<path style="fill:#736F7B;" d="M432.552,35.31L432.552,35.31c-4.875,0-8.828-3.953-8.828-8.828V8.828
		c0-4.875,3.953-8.828,8.828-8.828l0,0c4.875,0,8.828,3.953,8.828,8.828v17.655C441.379,31.358,437.427,35.31,432.552,35.31z"/>
</g>
<g>
	<circle style="fill:#8D8A94;" cx="79.448" cy="61.793" r="8.828"/>
	<circle style="fill:#8D8A94;" cx="123.586" cy="61.793" r="8.828"/>
	<circle style="fill:#8D8A94;" cx="167.724" cy="61.793" r="8.828"/>
	<circle style="fill:#8D8A94;" cx="211.862" cy="61.793" r="8.828"/>
	<circle style="fill:#8D8A94;" cx="256" cy="61.793" r="8.828"/>
	<circle style="fill:#8D8A94;" cx="300.138" cy="61.793" r="8.828"/>
	<circle style="fill:#8D8A94;" cx="344.276" cy="61.793" r="8.828"/>
	<circle style="fill:#8D8A94;" cx="388.414" cy="61.793" r="8.828"/>
	<circle style="fill:#8D8A94;" cx="432.552" cy="61.793" r="8.828"/>
	<circle style="fill:#8D8A94;" cx="79.448" cy="105.931" r="8.828"/>
	<circle style="fill:#8D8A94;" cx="123.586" cy="105.931" r="8.828"/>
	<circle style="fill:#8D8A94;" cx="167.724" cy="105.931" r="8.828"/>
	<circle style="fill:#8D8A94;" cx="211.862" cy="105.931" r="8.828"/>
	<circle style="fill:#8D8A94;" cx="256" cy="105.931" r="8.828"/>
	<circle style="fill:#8D8A94;" cx="300.138" cy="105.931" r="8.828"/>
	<circle style="fill:#8D8A94;" cx="344.276" cy="105.931" r="8.828"/>
	<circle style="fill:#8D8A94;" cx="388.414" cy="105.931" r="8.828"/>
	<circle style="fill:#8D8A94;" cx="432.552" cy="105.931" r="8.828"/>
	<circle style="fill:#8D8A94;" cx="79.448" cy="150.069" r="8.828"/>
	<circle style="fill:#8D8A94;" cx="123.586" cy="150.069" r="8.828"/>
	<circle style="fill:#8D8A94;" cx="167.724" cy="150.069" r="8.828"/>
	<circle style="fill:#8D8A94;" cx="211.862" cy="150.069" r="8.828"/>
	<circle style="fill:#8D8A94;" cx="256" cy="150.069" r="8.828"/>
	<circle style="fill:#8D8A94;" cx="300.138" cy="150.069" r="8.828"/>
	<circle style="fill:#8D8A94;" cx="344.276" cy="150.069" r="8.828"/>
	<circle style="fill:#8D8A94;" cx="388.414" cy="150.069" r="8.828"/>
	<circle style="fill:#8D8A94;" cx="432.552" cy="150.069" r="8.828"/>
	<circle style="fill:#8D8A94;" cx="79.448" cy="194.207" r="8.828"/>
	<circle style="fill:#8D8A94;" cx="123.586" cy="194.207" r="8.828"/>
	<circle style="fill:#8D8A94;" cx="167.724" cy="194.207" r="8.828"/>
	<circle style="fill:#8D8A94;" cx="211.862" cy="194.207" r="8.828"/>
	<circle style="fill:#8D8A94;" cx="256" cy="194.207" r="8.828"/>
	<circle style="fill:#8D8A94;" cx="300.138" cy="194.207" r="8.828"/>
	<circle style="fill:#8D8A94;" cx="344.276" cy="194.207" r="8.828"/>
	<circle style="fill:#8D8A94;" cx="388.414" cy="194.207" r="8.828"/>
	<circle style="fill:#8D8A94;" cx="432.552" cy="194.207" r="8.828"/>
	<circle style="fill:#8D8A94;" cx="79.448" cy="238.345" r="8.828"/>
	<circle style="fill:#8D8A94;" cx="123.586" cy="238.345" r="8.828"/>
	<circle style="fill:#8D8A94;" cx="167.724" cy="238.345" r="8.828"/>
	<circle style="fill:#8D8A94;" cx="211.862" cy="238.345" r="8.828"/>
	<circle style="fill:#8D8A94;" cx="256" cy="238.345" r="8.828"/>
	<circle style="fill:#8D8A94;" cx="300.138" cy="238.345" r="8.828"/>
	<circle style="fill:#8D8A94;" cx="344.276" cy="238.345" r="8.828"/>
	<circle style="fill:#8D8A94;" cx="388.414" cy="238.345" r="8.828"/>
	<circle style="fill:#8D8A94;" cx="432.552" cy="238.345" r="8.828"/>
	<circle style="fill:#8D8A94;" cx="79.448" cy="282.483" r="8.828"/>
	<circle style="fill:#8D8A94;" cx="123.586" cy="282.483" r="8.828"/>
	<circle style="fill:#8D8A94;" cx="167.724" cy="282.483" r="8.828"/>
	<circle style="fill:#8D8A94;" cx="211.862" cy="282.483" r="8.828"/>
	<circle style="fill:#8D8A94;" cx="256" cy="282.483" r="8.828"/>
	<circle style="fill:#8D8A94;" cx="300.138" cy="282.483" r="8.828"/>
	<circle style="fill:#8D8A94;" cx="344.276" cy="282.483" r="8.828"/>
	<circle style="fill:#8D8A94;" cx="388.414" cy="282.483" r="8.828"/>
	<circle style="fill:#8D8A94;" cx="432.552" cy="282.483" r="8.828"/>
	<circle style="fill:#8D8A94;" cx="79.448" cy="326.621" r="8.828"/>
	<circle style="fill:#8D8A94;" cx="123.586" cy="326.621" r="8.828"/>
	<circle style="fill:#8D8A94;" cx="167.724" cy="326.621" r="8.828"/>
	<circle style="fill:#8D8A94;" cx="211.862" cy="326.621" r="8.828"/>
	<circle style="fill:#8D8A94;" cx="256" cy="326.621" r="8.828"/>
	<circle style="fill:#8D8A94;" cx="300.138" cy="326.621" r="8.828"/>
	<circle style="fill:#8D8A94;" cx="344.276" cy="326.621" r="8.828"/>
	<circle style="fill:#8D8A94;" cx="388.414" cy="326.621" r="8.828"/>
	<circle style="fill:#8D8A94;" cx="432.552" cy="326.621" r="8.828"/>
	<circle style="fill:#8D8A94;" cx="79.448" cy="370.759" r="8.828"/>
	<circle style="fill:#8D8A94;" cx="123.586" cy="370.759" r="8.828"/>
	<circle style="fill:#8D8A94;" cx="167.724" cy="370.759" r="8.828"/>
	<circle style="fill:#8D8A94;" cx="211.862" cy="370.759" r="8.828"/>
	<circle style="fill:#8D8A94;" cx="256" cy="370.759" r="8.828"/>
	<circle style="fill:#8D8A94;" cx="300.138" cy="370.759" r="8.828"/>
	<circle style="fill:#8D8A94;" cx="344.276" cy="370.759" r="8.828"/>
	<circle style="fill:#8D8A94;" cx="388.414" cy="370.759" r="8.828"/>
	<circle style="fill:#8D8A94;" cx="432.552" cy="370.759" r="8.828"/>
	<circle style="fill:#8D8A94;" cx="79.448" cy="414.897" r="8.828"/>
	<circle style="fill:#8D8A94;" cx="123.586" cy="414.897" r="8.828"/>
	<circle style="fill:#8D8A94;" cx="167.724" cy="414.897" r="8.828"/>
	<circle style="fill:#8D8A94;" cx="211.862" cy="414.897" r="8.828"/>
	<circle style="fill:#8D8A94;" cx="256" cy="414.897" r="8.828"/>
	<circle style="fill:#8D8A94;" cx="300.138" cy="414.897" r="8.828"/>
	<circle style="fill:#8D8A94;" cx="344.276" cy="414.897" r="8.828"/>
	<circle style="fill:#8D8A94;" cx="388.414" cy="414.897" r="8.828"/>
	<circle style="fill:#8D8A94;" cx="432.552" cy="414.897" r="8.828"/>
</g>
<g>
</g>
<g>
</g>
<g>
</g>
<g>
</g>
<g>
</g>
<g>
</g>
<g>
</g>
<g>
</g>
<g>
</g>
<g>
</g>
<g>
</g>
<g>
</g>
<g>
</g>
<g>
</g>
<g>
</g>
</svg>
