<?xml version="1.0" encoding="iso-8859-1"?>
<!-- Generator: Adobe Illustrator 19.0.0, SVG Export Plug-In . SVG Version: 6.00 Build 0)  -->
<svg version="1.1" id="Layer_1" xmlns="http://www.w3.org/2000/svg" xmlns:xlink="http://www.w3.org/1999/xlink" x="0px" y="0px"
	 viewBox="0 0 512 512" style="enable-background:new 0 0 512 512;" xml:space="preserve">
<g>
	<path style="fill:#FFA54B;" d="M158.897,176.552h-17.655v-17.655h17.655c4.871,0,8.828-3.961,8.828-8.828V79.448
		c0-4.866-3.957-8.828-8.828-8.828h-17.655V52.966h17.655c14.603,0,26.483,11.88,26.483,26.483v70.621
		C185.379,164.672,173.5,176.552,158.897,176.552z"/>
	<path style="fill:#FFA54B;" d="M370.759,176.552h-17.655c-14.603,0-26.483-11.88-26.483-26.483V79.448
		c0-14.603,11.88-26.483,26.483-26.483h17.655v17.655h-17.655c-4.871,0-8.828,3.961-8.828,8.828v70.621
		c0,4.866,3.957,8.828,8.828,8.828h17.655V176.552z"/>
	<rect x="141.241" y="414.897" style="fill:#FFA54B;" width="229.517" height="17.655"/>
</g>
<path style="fill:#00BEA9;" d="M379.586,326.621h-8.828v-8.828H141.241v8.828h-8.828c-4.875,0-8.828,3.953-8.828,8.828
	s3.953,8.828,8.828,8.828h8.828v8.828h229.517v-8.828h8.828c4.875,0,8.828-3.953,8.828-8.828S384.461,326.621,379.586,326.621z"/>
<path style="fill:#00D2B9;" d="M335.448,397.241H176.552c-4.875,0-8.828-3.953-8.828-8.828V282.483c0-4.875,3.953-8.828,8.828-8.828
	h158.897c4.875,0,8.828,3.953,8.828,8.828v105.931C344.276,393.289,340.323,397.241,335.448,397.241z"/>
<g>
	<path style="fill:#FFC855;" d="M141.241,0c-4.879,0-8.828,3.953-8.828,8.828v494.345h17.655V8.828
		C150.069,3.953,146.121,0,141.241,0z"/>
	<path style="fill:#FFC855;" d="M370.759,0c-4.879,0-8.828,3.953-8.828,8.828v494.345h17.655V8.828
		C379.586,3.953,375.638,0,370.759,0z"/>
</g>
<g>
	<path style="fill:#FFA54B;" d="M150.069,512h-17.655c-4.879,0-8.828-3.953-8.828-8.828c0-4.875,3.948-8.828,8.828-8.828h17.655
		c4.879,0,8.828,3.953,8.828,8.828C158.897,508.047,154.948,512,150.069,512z"/>
	<path style="fill:#FFA54B;" d="M379.586,512h-17.655c-4.879,0-8.828-3.953-8.828-8.828c0-4.875,3.948-8.828,8.828-8.828h17.655
		c4.879,0,8.828,3.953,8.828,8.828C388.414,508.047,384.466,512,379.586,512z"/>
</g>
<g>
	<circle style="fill:#00BEA9;" cx="185.379" cy="282.483" r="8.828"/>
	<circle style="fill:#00BEA9;" cx="220.69" cy="282.483" r="8.828"/>
	<circle style="fill:#00BEA9;" cx="256" cy="282.483" r="8.828"/>
	<circle style="fill:#00BEA9;" cx="291.31" cy="282.483" r="8.828"/>
	<circle style="fill:#00BEA9;" cx="326.621" cy="282.483" r="8.828"/>
	<circle style="fill:#00BEA9;" cx="185.379" cy="335.448" r="8.828"/>
	<circle style="fill:#00BEA9;" cx="220.69" cy="335.448" r="8.828"/>
	<circle style="fill:#00BEA9;" cx="256" cy="335.448" r="8.828"/>
	<circle style="fill:#00BEA9;" cx="291.31" cy="335.448" r="8.828"/>
	<circle style="fill:#00BEA9;" cx="326.621" cy="335.448" r="8.828"/>
	<circle style="fill:#00BEA9;" cx="185.379" cy="388.414" r="8.828"/>
	<circle style="fill:#00BEA9;" cx="220.69" cy="388.414" r="8.828"/>
	<circle style="fill:#00BEA9;" cx="256" cy="388.414" r="8.828"/>
	<circle style="fill:#00BEA9;" cx="291.31" cy="388.414" r="8.828"/>
	<circle style="fill:#00BEA9;" cx="326.621" cy="388.414" r="8.828"/>
	<circle style="fill:#00BEA9;" cx="203.034" cy="361.931" r="8.828"/>
	<circle style="fill:#00BEA9;" cx="238.345" cy="361.931" r="8.828"/>
	<circle style="fill:#00BEA9;" cx="273.655" cy="361.931" r="8.828"/>
	<circle style="fill:#00BEA9;" cx="308.966" cy="361.931" r="8.828"/>
	<path style="fill:#00BEA9;" d="M335.448,361.931c0,4.875,3.953,8.828,8.828,8.828v-17.655
		C339.401,353.103,335.448,357.056,335.448,361.931z"/>
	<path style="fill:#00BEA9;" d="M176.552,361.931c0-4.875-3.953-8.828-8.828-8.828v17.655
		C172.599,370.759,176.552,366.806,176.552,361.931z"/>
	<circle style="fill:#00BEA9;" cx="203.034" cy="308.966" r="8.828"/>
	<circle style="fill:#00BEA9;" cx="238.345" cy="308.966" r="8.828"/>
	<circle style="fill:#00BEA9;" cx="273.655" cy="308.966" r="8.828"/>
	<circle style="fill:#00BEA9;" cx="308.966" cy="308.966" r="8.828"/>
	<path style="fill:#00BEA9;" d="M335.448,308.966c0,4.875,3.953,8.828,8.828,8.828v-17.655
		C339.401,300.138,335.448,304.09,335.448,308.966z"/>
	<path style="fill:#00BEA9;" d="M176.552,308.966c0-4.875-3.953-8.828-8.828-8.828v17.655
		C172.599,317.793,176.552,313.841,176.552,308.966z"/>
</g>
<g>
</g>
<g>
</g>
<g>
</g>
<g>
</g>
<g>
</g>
<g>
</g>
<g>
</g>
<g>
</g>
<g>
</g>
<g>
</g>
<g>
</g>
<g>
</g>
<g>
</g>
<g>
</g>
<g>
</g>
</svg>
