<?xml version="1.0" encoding="iso-8859-1"?>
<!-- Generator: Adobe Illustrator 19.0.0, SVG Export Plug-In . SVG Version: 6.00 Build 0)  -->
<svg version="1.1" id="Layer_1" xmlns="http://www.w3.org/2000/svg" xmlns:xlink="http://www.w3.org/1999/xlink" x="0px" y="0px"
	 viewBox="0 0 512.001 512.001" style="enable-background:new 0 0 512.001 512.001;" xml:space="preserve">
<g>
	<path style="fill:#00D2B9;" d="M490.574,143.459c-0.271-49.084-42.576-71.864-78.372-71.864c-52.627,0-85.131,49.83-101.015,83.255
		c-8.604,18.106-26.885,29.558-46.932,29.558h-77.679l26.034,104.135c15.186,0,122.393-9.455,189.195,109.17l27.753-10.638
		c0,0-13.599-50.487-44.39-89.854c18.356-26.034,25.213-50.598,9.677-104.135c-9.408-32.422,12.211-40.669,25.421-42.732
		c4.752-0.742,8.87,3.312,8.362,8.094l-5.47,51.555c-1.332,5.326,1.215,10.863,6.126,13.317c5.155,2.577,11.418,1.022,14.769-3.669
		l37.572-52.601h21.798c2.326,0,3.928-2.314,3.198-4.521C502.669,150.588,490.574,143.459,490.574,143.459z"/>
	<path style="fill:#00D2B9;" d="M143.187,193.086c-23.864,9.22-39.363-1.18-60.745,26.034c-15.98,20.339-8.613,69.646-33.102,89.63
		c-3.551,2.898-1.951,8.608,2.612,9.038c13.228,1.249,34.876-2.186,56.525-29.246C136.135,253.97,143.187,193.086,143.187,193.086z"
		/>
</g>
<circle style="fill:#00BEA9;" cx="416.539" cy="101.966" r="13.017"/>
<path style="fill:#FFA54B;" d="M203.933,184.408c0,23.963,19.427,43.389,43.389,43.389s43.389-19.427,43.389-43.389H203.933z"/>
<path style="fill:#FFC855;" d="M272.136,193.086h-59.525c-4.797,0-8.678-3.886-8.678-8.678c0-4.792,3.881-8.678,8.678-8.678h59.525
	c8.72,0,16.822-4.335,21.661-11.594l7.051-10.576c2.652-3.992,8.025-5.072,12.034-2.407c3.992,2.657,5.068,8.047,2.407,12.034
	l-7.051,10.576C300.17,185.861,286.67,193.086,272.136,193.086z"/>
<g>
	<path style="fill:#00BEA9;" d="M65.087,380.31v1.557C124.273,410.626,189.178,425.64,256,425.64s131.727-15.014,190.914-43.773
		v-1.558c0-12.661-13.035-20.875-24.612-15.749C370.263,387.604,313.901,399.605,256,399.605S141.738,387.604,89.698,364.56
		C78.122,359.435,65.087,367.649,65.087,380.31z"/>
	<path style="fill:#00BEA9;" d="M82.443,392.677l50.844-181.588c5.853-20.906,24.909-35.359,46.619-35.359l0,0
		c33.785,0,58.177,32.337,48.896,64.822l-11.161,39.064c-3.148,11.018-11.53,19.771-22.4,23.395l-22.593,7.531
		c-7.814,2.604-14.448,7.903-18.714,14.949l-43.741,72.223L82.443,392.677z"/>
</g>
<path style="fill:#8D8A94;" d="M256,440.406c-90.058,0-176.659-27.212-250.43-78.69c-5.899-4.114-7.339-12.228-3.229-18.123
	c4.119-5.902,12.228-7.347,18.127-3.225C89.849,388.783,171.298,414.372,256,414.372s166.151-25.589,235.532-74.004
	c5.89-4.119,14-2.678,18.127,3.225c4.11,5.894,2.67,14.008-3.229,18.123C432.661,413.194,346.06,440.406,256,440.406z"/>
<g>
</g>
<g>
</g>
<g>
</g>
<g>
</g>
<g>
</g>
<g>
</g>
<g>
</g>
<g>
</g>
<g>
</g>
<g>
</g>
<g>
</g>
<g>
</g>
<g>
</g>
<g>
</g>
<g>
</g>
</svg>
