<?xml version="1.0" encoding="iso-8859-1"?>
<!-- Generator: Adobe Illustrator 19.0.0, SVG Export Plug-In . SVG Version: 6.00 Build 0)  -->
<svg version="1.1" id="Layer_1" xmlns="http://www.w3.org/2000/svg" xmlns:xlink="http://www.w3.org/1999/xlink" x="0px" y="0px"
	 viewBox="0 0 512 512" style="enable-background:new 0 0 512 512;" xml:space="preserve">
<rect x="308.966" y="97.103" style="fill:#FFC855;" width="185.379" height="17.655"/>
<rect x="308.966" y="141.241" style="fill:#66D8E4;" width="185.379" height="17.655"/>
<rect x="308.966" y="185.379" style="fill:#FFC855;" width="185.379" height="17.655"/>
<rect x="308.966" y="229.517" style="fill:#66D8E4;" width="185.379" height="17.655"/>
<rect x="308.966" y="273.655" style="fill:#FFC855;" width="185.379" height="17.655"/>
<rect x="308.966" y="317.793" style="fill:#66D8E4;" width="185.379" height="17.655"/>
<rect x="308.966" y="361.931" style="fill:#FFC855;" width="185.379" height="17.655"/>
<rect x="308.966" y="406.069" style="fill:#66D8E4;" width="185.379" height="17.655"/>
<rect x="105.931" y="52.966" style="fill:#A7A5AC;" width="17.655" height="176.552"/>
<path style="fill:#00D2B9;" d="M114.759,273.655c-14.603,0-26.483-11.88-26.483-26.483c0-14.603,11.88-26.483,26.483-26.483
	s26.483,11.88,26.483,26.483C141.241,261.775,129.362,273.655,114.759,273.655z M114.759,238.345c-4.871,0-8.828,3.961-8.828,8.828
	s3.957,8.828,8.828,8.828s8.828-3.961,8.828-8.828S119.629,238.345,114.759,238.345z"/>
<rect x="176.552" y="52.966" style="fill:#A7A5AC;" width="17.655" height="176.552"/>
<path style="fill:#00D2B9;" d="M185.379,273.655c-14.603,0-26.483-11.88-26.483-26.483c0-14.603,11.88-26.483,26.483-26.483
	s26.483,11.88,26.483,26.483C211.862,261.775,199.982,273.655,185.379,273.655z M185.379,238.345c-4.871,0-8.828,3.961-8.828,8.828
	s3.957,8.828,8.828,8.828c4.871,0,8.828-3.961,8.828-8.828S190.25,238.345,185.379,238.345z"/>
<path style="fill:#E68C5A;" d="M459.034,44.138H52.966c-24.337,0-44.138,19.801-44.138,44.138v379.586h17.655V88.276
	c0-14.603,11.88-26.483,26.483-26.483h247.172v406.069h17.655V61.793h141.241c14.603,0,26.483,11.88,26.483,26.483v379.586h17.655
	V88.276C503.172,63.939,483.371,44.138,459.034,44.138z"/>
<g>
	<path style="fill:#DC7850;" d="M26.483,476.69H8.828c-4.879,0-8.828-3.953-8.828-8.828s3.948-8.828,8.828-8.828h17.655
		c4.879,0,8.828,3.953,8.828,8.828S31.362,476.69,26.483,476.69z"/>
	<path style="fill:#DC7850;" d="M503.172,476.69h-17.655c-4.879,0-8.828-3.953-8.828-8.828s3.948-8.828,8.828-8.828h17.655
		c4.879,0,8.828,3.953,8.828,8.828S508.052,476.69,503.172,476.69z"/>
	<path style="fill:#DC7850;" d="M317.793,476.69h-17.655c-4.879,0-8.828-3.953-8.828-8.828s3.948-8.828,8.828-8.828h17.655
		c4.879,0,8.828,3.953,8.828,8.828S322.673,476.69,317.793,476.69z"/>
</g>
<g>
	<path style="fill:#736F7B;" d="M114.759,70.621L114.759,70.621c-4.875,0-8.828-3.953-8.828-8.828V44.138
		c0-4.875,3.953-8.828,8.828-8.828l0,0c4.875,0,8.828,3.953,8.828,8.828v17.655C123.586,66.668,119.634,70.621,114.759,70.621z"/>
	<path style="fill:#736F7B;" d="M185.379,70.621L185.379,70.621c-4.875,0-8.828-3.953-8.828-8.828V44.138
		c0-4.875,3.953-8.828,8.828-8.828l0,0c4.875,0,8.828,3.953,8.828,8.828v17.655C194.207,66.668,190.254,70.621,185.379,70.621z"/>
</g>
<g>
</g>
<g>
</g>
<g>
</g>
<g>
</g>
<g>
</g>
<g>
</g>
<g>
</g>
<g>
</g>
<g>
</g>
<g>
</g>
<g>
</g>
<g>
</g>
<g>
</g>
<g>
</g>
<g>
</g>
</svg>
