<?xml version="1.0" encoding="iso-8859-1"?>
<!-- Generator: Adobe Illustrator 19.0.0, SVG Export Plug-In . SVG Version: 6.00 Build 0)  -->
<svg version="1.1" id="Layer_1" xmlns="http://www.w3.org/2000/svg" xmlns:xlink="http://www.w3.org/1999/xlink" x="0px" y="0px"
	 viewBox="0 0 512 512" style="enable-background:new 0 0 512 512;" xml:space="preserve">
<path style="fill:#736F7B;" d="M256,189.793H17.655v17.655c44.138,0,149.954,52.966,238.345,52.966s194.207-52.966,238.345-52.966
	v-17.655H256z"/>
<rect x="52.966" y="278.069" style="fill:#8D8A94;" width="44.138" height="17.655"/>
<path style="fill:#A7A5AC;" d="M115.095,196.194L81.621,313.379H68.457L34.974,196.194l-16.983,4.853L51.474,318.22
	c2.147,7.548,9.13,12.814,16.974,12.814h13.173c7.844,0,14.828-5.267,16.974-12.802l33.483-117.185L115.095,196.194z"/>
<rect x="414.897" y="278.069" style="fill:#8D8A94;" width="44.138" height="17.655"/>
<path style="fill:#A7A5AC;" d="M477.026,196.194l-33.474,117.185h-13.164l-33.483-117.185l-16.983,4.853l33.483,117.173
	c2.146,7.548,9.129,12.814,16.974,12.814h13.173c7.844,0,14.828-5.267,16.974-12.802l33.483-117.185L477.026,196.194z"/>
<path style="fill:#FFC855;" d="M503.172,207.448H8.828c-4.875,0-8.828-3.953-8.828-8.828v-8.828c0-4.875,3.953-8.828,8.828-8.828
	h494.345c4.875,0,8.828,3.953,8.828,8.828v8.828C512,203.496,508.047,207.448,503.172,207.448z"/>
<g>
</g>
<g>
</g>
<g>
</g>
<g>
</g>
<g>
</g>
<g>
</g>
<g>
</g>
<g>
</g>
<g>
</g>
<g>
</g>
<g>
</g>
<g>
</g>
<g>
</g>
<g>
</g>
<g>
</g>
</svg>
