<?xml version="1.0" encoding="iso-8859-1"?>
<!-- Generator: Adobe Illustrator 19.0.0, SVG Export Plug-In . SVG Version: 6.00 Build 0)  -->
<svg version="1.1" id="Layer_1" xmlns="http://www.w3.org/2000/svg" xmlns:xlink="http://www.w3.org/1999/xlink" x="0px" y="0px"
	 viewBox="0 0 512 512" style="enable-background:new 0 0 512 512;" xml:space="preserve">
<path style="fill:#736F7B;" d="M490.667,224.277c-3.776,16.722-17.047,30.481-34.957,33.934
	c-17.91,3.453-35.344-4.388-45.067-18.508L490.667,224.277z"/>
<path style="fill:#E68C5A;" d="M419.381,210.823l69.922-13.479l5.055,26.221l-78.663,15.163l-3.369-17.481
	C411.394,216.42,414.553,211.753,419.381,210.823z"/>
<path style="fill:#FFC855;" d="M479.195,144.903L479.195,144.903c-4.827,0.93-7.985,5.598-7.055,10.426l11.793,61.182l17.481-3.369
	l-11.793-61.182C488.689,147.131,484.021,143.972,479.195,144.903z"/>
<path style="fill:#736F7B;" d="M26.07,313.832c9.722,14.121,27.155,21.96,45.067,18.508s31.181-17.212,34.957-33.934L26.07,313.832z
	"/>
<path style="fill:#E68C5A;" d="M87.25,274.843l-69.922,13.479l5.055,26.221l78.663-15.163l-3.369-17.481
	C96.744,277.072,92.076,273.913,87.25,274.843z"/>
<path style="fill:#FFC855;" d="M7.218,235.879L7.218,235.879c4.827-0.93,9.494,2.229,10.426,7.055l11.793,61.182l-17.481,3.369
	L0.162,246.305C-0.768,241.478,2.391,236.811,7.218,235.879z"/>
<path style="fill:#00D2B9;" d="M501.413,213.14l-104.884,20.217l-6.739-34.962c-0.93-4.828-5.598-7.985-10.426-7.055
	c-4.828,0.93-7.987,5.598-7.055,10.426l6.739,34.962L134.32,283.9l-6.739-34.962c-0.93-4.828-5.598-7.987-10.426-7.055
	c-4.828,0.931-7.987,5.598-7.055,10.426l6.739,34.962L11.955,307.487c-4.828,0.93-7.987,5.598-7.055,10.426
	c0.93,4.827,5.598,7.986,10.426,7.055l489.457-94.347c4.828-0.93,7.985-5.598,7.055-10.426
	C510.907,215.369,506.24,212.21,501.413,213.14z"/>
<path style="fill:#E68C5A;" d="M288.749,349.458h-71.21v-80.111c0-19.664,15.941-35.605,35.605-35.605l0,0
	c19.664,0,35.605,15.941,35.605,35.605V349.458z"/>
<g>
	<circle style="fill:#DC7850;" cx="253.139" cy="269.35" r="17.802"/>
	<path style="fill:#DC7850;" d="M297.65,367.26h-89.012c-4.916,0-8.901-3.986-8.901-8.901l0,0c0-4.916,3.986-8.901,8.901-8.901
		h89.012c4.916,0,8.901,3.986,8.901,8.901l0,0C306.552,363.274,302.567,367.26,297.65,367.26z"/>
</g>
<g>
</g>
<g>
</g>
<g>
</g>
<g>
</g>
<g>
</g>
<g>
</g>
<g>
</g>
<g>
</g>
<g>
</g>
<g>
</g>
<g>
</g>
<g>
</g>
<g>
</g>
<g>
</g>
<g>
</g>
</svg>
