<?xml version="1.0" encoding="iso-8859-1"?>
<!-- Generator: Adobe Illustrator 19.0.0, SVG Export Plug-In . SVG Version: 6.00 Build 0)  -->
<svg version="1.1" id="Layer_1" xmlns="http://www.w3.org/2000/svg" xmlns:xlink="http://www.w3.org/1999/xlink" x="0px" y="0px"
	 viewBox="0 0 512 512" style="enable-background:new 0 0 512 512;" xml:space="preserve">
<path style="fill:#FFC855;" d="M423.724,0H88.276c-9.75,0-17.655,7.904-17.655,17.655v485.517h370.759V17.655
	C441.379,7.904,433.474,0,423.724,0z"/>
<path style="fill:#66D8E4;" d="M150.063,70.621c-1.327,0-2.673-0.298-3.939-0.931l-17.655-8.828
	c-4.362-2.182-6.13-7.482-3.948-11.844c2.189-4.362,7.474-6.125,11.844-3.948l17.655,8.828c4.362,2.182,6.13,7.482,3.948,11.844
	C156.417,68.836,153.305,70.621,150.063,70.621z"/>
<path style="fill:#E15050;" d="M317.788,70.621c-1.327,0-2.673-0.298-3.939-0.931l-17.655-8.828
	c-4.362-2.182-6.13-7.482-3.948-11.844c2.182-4.362,7.491-6.125,11.844-3.948l17.655,8.828c4.362,2.182,6.13,7.482,3.948,11.844
	C324.141,68.836,321.03,70.621,317.788,70.621z"/>
<path style="fill:#66D8E4;" d="M291.305,194.208c-1.327,0-2.673-0.298-3.939-0.931l-17.655-8.828
	c-4.362-2.182-6.13-7.482-3.948-11.844c2.189-4.362,7.483-6.125,11.844-3.948l17.655,8.828c4.362,2.182,6.13,7.482,3.948,11.844
	C297.658,192.424,294.547,194.208,291.305,194.208z"/>
<path style="fill:#E15050;" d="M379.574,256.006c-1.327,0-2.673-0.298-3.939-0.931l-17.655-8.828
	c-4.362-2.182-6.13-7.482-3.948-11.844c2.189-4.366,7.474-6.134,11.844-3.948l17.655,8.828c4.362,2.182,6.13,7.482,3.948,11.844
	C385.928,254.221,382.816,256.006,379.574,256.006z"/>
<path style="fill:#66D8E4;" d="M388.402,132.418c-1.327,0-2.673-0.298-3.939-0.931l-17.655-8.828
	c-4.362-2.182-6.13-7.482-3.948-11.844c2.189-4.366,7.474-6.13,11.844-3.948l17.655,8.828c4.362,2.182,6.13,7.482,3.948,11.844
	C394.755,130.634,391.644,132.418,388.402,132.418z"/>
<path style="fill:#E15050;" d="M229.512,176.552c-1.327,0-2.673-0.298-3.939-0.931l-17.655-8.828
	c-4.362-2.182-6.13-7.482-3.948-11.844c2.189-4.358,7.482-6.121,11.844-3.948l17.655,8.828c4.362,2.182,6.13,7.482,3.948,11.844
	C235.865,174.767,232.754,176.552,229.512,176.552z"/>
<g>
	<path style="fill:#66D8E4;" d="M132.402,300.143c-1.327,0-2.673-0.298-3.939-0.931l-17.655-8.828
		c-4.362-2.181-6.13-7.482-3.948-11.844c2.189-4.366,7.482-6.134,11.844-3.948l17.655,8.828c4.362,2.182,6.13,7.482,3.948,11.844
		C138.755,298.359,135.644,300.143,132.402,300.143z"/>
	<path style="fill:#66D8E4;" d="M220.681,459.034c-1.327,0-2.673-0.298-3.939-0.931l-17.655-8.828
		c-4.362-2.182-6.13-7.483-3.948-11.844c2.189-4.362,7.482-6.13,11.844-3.948l17.655,8.828c4.362,2.182,6.13,7.482,3.948,11.844
		C227.034,457.25,223.923,459.034,220.681,459.034z"/>
</g>
<g>
	<path style="fill:#00D2B9;" d="M397.229,353.107c-1.327,0-2.673-0.298-3.939-0.931l-17.655-8.828
		c-4.362-2.182-6.13-7.483-3.948-11.844c2.189-4.362,7.482-6.13,11.844-3.948l17.655,8.828c4.362,2.182,6.13,7.482,3.948,11.844
		C403.583,351.322,400.471,353.107,397.229,353.107z"/>
	<path style="fill:#00D2B9;" d="M282.477,450.207c-1.327,0-2.673-0.298-3.939-0.931l-17.655-8.828
		c-4.362-2.181-6.13-7.482-3.948-11.844c2.189-4.362,7.491-6.125,11.844-3.948l17.655,8.828c4.362,2.181,6.13,7.482,3.948,11.844
		C288.831,448.423,285.719,450.207,282.477,450.207z"/>
</g>
<path style="fill:#E15050;" d="M132.408,185.379c-1.327,0-2.673-0.298-3.939-0.931l-17.655-8.828
	c-4.362-2.182-6.13-7.482-3.948-11.844c2.189-4.362,7.482-6.125,11.844-3.948l17.655,8.828c4.362,2.182,6.13,7.482,3.948,11.844
	C138.762,183.595,135.65,185.379,132.408,185.379z"/>
<path style="fill:#66D8E4;" d="M238.35,97.107c-3.242,0-6.354-1.784-7.905-4.879c-2.182-4.362-0.414-9.664,3.948-11.844
	l17.655-8.828c4.362-2.182,9.655-0.414,11.844,3.948c2.182,4.362,0.414,9.664-3.948,11.844l-17.655,8.828
	C241.023,96.809,239.678,97.107,238.35,97.107z"/>
<path style="fill:#00D2B9;" d="M291.322,123.592c-3.242,0-6.354-1.784-7.905-4.879c-2.182-4.362-0.414-9.664,3.948-11.844
	l17.655-8.828c4.362-2.185,9.655-0.414,11.844,3.948c2.181,4.362,0.414,9.664-3.948,11.844l-17.655,8.828
	C293.995,123.294,292.65,123.592,291.322,123.592z"/>
<g>
	<path style="fill:#66D8E4;" d="M150.081,229.521c-3.242,0-6.354-1.784-7.905-4.879c-2.182-4.362-0.414-9.664,3.948-11.844
		l17.655-8.828c4.371-2.182,9.655-0.414,11.844,3.948c2.182,4.362,0.414,9.664-3.948,11.844l-17.655,8.828
		C152.754,229.223,151.409,229.521,150.081,229.521z"/>
	<path style="fill:#66D8E4;" d="M256.006,291.31c-3.242,0-6.354-1.784-7.905-4.879c-2.182-4.362-0.414-9.664,3.948-11.844
		l17.655-8.828c4.371-2.173,9.655-0.409,11.844,3.948c2.182,4.362,0.414,9.664-3.948,11.844l-17.655,8.828
		C258.678,291.012,257.333,291.31,256.006,291.31z"/>
</g>
<g>
	<path style="fill:#E15050;" d="M361.943,459.038c-3.242,0-6.354-1.784-7.905-4.879c-2.182-4.362-0.414-9.664,3.948-11.844
		l17.655-8.828c4.362-2.182,9.664-0.414,11.844,3.948c2.18,4.362,0.414,9.664-3.948,11.844l-17.655,8.828
		C364.616,458.74,363.271,459.038,361.943,459.038z"/>
	<path style="fill:#E15050;" d="M293.863,330.835c-1.544-2.85-1.457-6.436,0.526-9.274c2.797-3.996,8.3-4.966,12.296-2.169
		l16.17,11.32c3.996,2.797,4.966,8.3,2.169,12.296c-2.797,3.996-8.3,4.966-12.296,2.169l-16.17-11.32
		C295.396,333.043,294.495,332.002,293.863,330.835z"/>
</g>
<path style="fill:#66D8E4;" d="M335.454,406.073c-3.242,0-6.354-1.784-7.905-4.879c-2.182-4.362-0.414-9.664,3.948-11.844
	l17.655-8.828c4.371-2.185,9.655-0.409,11.844,3.948c2.182,4.362,0.414,9.664-3.948,11.844l-17.655,8.828
	C338.126,405.775,336.781,406.073,335.454,406.073z"/>
<g>
	<path style="fill:#00D2B9;" d="M123.598,423.727c-3.242,0-6.354-1.784-7.905-4.879c-2.182-4.362-0.414-9.664,3.948-11.844
		l17.655-8.828c4.353-2.182,9.655-0.414,11.844,3.948c2.182,4.362,0.414,9.664-3.948,11.844l-17.655,8.828
		C126.271,423.43,124.926,423.727,123.598,423.727z"/>
	<path style="fill:#00D2B9;" d="M317.793,238.345h-17.655c-4.879,0-8.828-3.953-8.828-8.828s3.948-8.828,8.828-8.828h17.655
		c4.879,0,8.828,3.953,8.828,8.828S322.673,238.345,317.793,238.345z"/>
</g>
<g>
	<path style="fill:#E15050;" d="M194.207,291.31h-17.655c-4.879,0-8.828-3.953-8.828-8.828s3.948-8.828,8.828-8.828h17.655
		c4.879,0,8.828,3.953,8.828,8.828S199.086,291.31,194.207,291.31z"/>
	<path style="fill:#E15050;" d="M220.69,397.241h-17.655c-4.879,0-8.828-3.953-8.828-8.828s3.948-8.828,8.828-8.828h17.655
		c4.879,0,8.828,3.953,8.828,8.828S225.569,397.241,220.69,397.241z"/>
</g>
<g>
	<path style="fill:#66D8E4;" d="M397.241,203.034h-17.655c-4.879,0-8.828-3.953-8.828-8.828s3.948-8.828,8.828-8.828h17.655
		c4.879,0,8.828,3.953,8.828,8.828S402.121,203.034,397.241,203.034z"/>
	<path style="fill:#66D8E4;" d="M238.345,344.276H220.69c-4.879,0-8.828-3.953-8.828-8.828s3.948-8.828,8.828-8.828h17.655
		c4.879,0,8.828,3.953,8.828,8.828S243.224,344.276,238.345,344.276z"/>
</g>
<g>
	<path style="fill:#00D2B9;" d="M379.586,61.793h-17.655c-4.879,0-8.828-3.953-8.828-8.828s3.948-8.828,8.828-8.828h17.655
		c4.879,0,8.828,3.953,8.828,8.828S384.466,61.793,379.586,61.793z"/>
	<path style="fill:#00D2B9;" d="M203.034,132.414h-17.655c-4.879,0-8.828-3.953-8.828-8.828c0-4.875,3.948-8.828,8.828-8.828h17.655
		c4.879,0,8.828,3.953,8.828,8.828C211.862,128.461,207.914,132.414,203.034,132.414z"/>
</g>
<path style="fill:#E68C5A;" d="M459.034,512H52.966c-4.875,0-8.828-3.953-8.828-8.828v-8.828c0-4.875,3.953-8.828,8.828-8.828
	h406.069c4.875,0,8.828,3.953,8.828,8.828v8.828C467.862,508.047,463.91,512,459.034,512z"/>
<g>
	<circle style="fill:#FFF5E1;" cx="128" cy="119.172" r="13.241"/>
	<circle style="fill:#FFF5E1;" cx="216.276" cy="225.103" r="13.241"/>
	<circle style="fill:#FFF5E1;" cx="154.483" cy="348.69" r="13.241"/>
	<circle style="fill:#FFF5E1;" cx="331.034" cy="154.483" r="13.241"/>
	<circle style="fill:#FFF5E1;" cx="286.897" cy="375.172" r="13.241"/>
	<circle style="fill:#FFF5E1;" cx="348.69" cy="286.897" r="13.241"/>
	<circle style="fill:#FFF5E1;" cx="207.448" cy="48.552" r="13.241"/>
</g>
<g>
</g>
<g>
</g>
<g>
</g>
<g>
</g>
<g>
</g>
<g>
</g>
<g>
</g>
<g>
</g>
<g>
</g>
<g>
</g>
<g>
</g>
<g>
</g>
<g>
</g>
<g>
</g>
<g>
</g>
</svg>
