<?xml version="1.0" encoding="iso-8859-1"?>
<!-- Generator: Adobe Illustrator 19.0.0, SVG Export Plug-In . SVG Version: 6.00 Build 0)  -->
<svg version="1.1" id="Layer_1" xmlns="http://www.w3.org/2000/svg" xmlns:xlink="http://www.w3.org/1999/xlink" x="0px" y="0px"
	 viewBox="0 0 512 512" style="enable-background:new 0 0 512 512;" xml:space="preserve">
<g>
	<path style="fill:#CAC9CD;" d="M256,145.655c-63.88,0-123.957-1.845-169.19-5.198c-72.733-5.388-77.983-11.638-77.983-21.284
		c0,0,15.982-4.888,15.172-5.388C33.646,119.742,119.638,128,256,128s222.354-8.258,232-14.216c-0.81,0.5,15.172,5.388,15.172,5.388
		c0,9.646-5.25,15.896-77.983,21.284C379.957,143.81,319.88,145.655,256,145.655z"/>
	<path style="fill:#CAC9CD;" d="M256,180.966c-63.88,0-123.957-1.845-169.19-5.198c-72.733-5.388-77.983-11.638-77.983-21.284
		c0,0,15.982-4.888,15.172-5.388c9.646,5.958,95.638,14.216,232,14.216s222.354-8.258,232-14.216
		c-0.81,0.5,15.172,5.388,15.172,5.388c0,9.646-5.25,15.896-77.983,21.284C379.957,179.121,319.88,180.966,256,180.966z"/>
	<path style="fill:#CAC9CD;" d="M256,216.276c-63.88,0-123.957-1.845-169.19-5.198c-72.733-5.388-77.983-11.638-77.983-21.284
		c0,0,15.982-4.888,15.172-5.388c9.646,5.958,95.638,14.216,232,14.216s222.354-8.258,232-14.216
		c-0.81,0.5,15.172,5.388,15.172,5.388c0,9.646-5.25,15.896-77.983,21.284C379.957,214.431,319.88,216.276,256,216.276z"/>
</g>
<g>
	<rect x="52.966" y="94.168" style="fill:#DCDBDE;" width="17.655" height="139.763"/>
	<rect x="88.276" y="96.32" style="fill:#DCDBDE;" width="17.655" height="141.142"/>
	<rect x="123.586" y="98.35" style="fill:#DCDBDE;" width="17.655" height="141.241"/>
	<rect x="158.897" y="100.337" style="fill:#DCDBDE;" width="17.655" height="138.383"/>
	<rect x="194.207" y="101.517" style="fill:#DCDBDE;" width="17.655" height="140.513"/>
	<rect x="229.517" y="101.517" style="fill:#DCDBDE;" width="17.655" height="141.241"/>
	<rect x="441.379" y="96.32" style="fill:#DCDBDE;" width="17.655" height="141.142"/>
	<rect x="406.069" y="98.35" style="fill:#DCDBDE;" width="17.655" height="141.241"/>
	<rect x="370.759" y="100.337" style="fill:#DCDBDE;" width="17.655" height="138.383"/>
	<rect x="335.448" y="101.517" style="fill:#DCDBDE;" width="17.655" height="140.513"/>
	<rect x="300.138" y="101.517" style="fill:#DCDBDE;" width="17.655" height="141.241"/>
	<rect x="264.828" y="101.517" style="fill:#DCDBDE;" width="17.655" height="141.241"/>
</g>
<g>
	<path style="fill:#FFC855;" d="M256,110.345c-63.88,0-123.957-1.845-169.19-5.198C14.078,99.758,8.828,93.508,8.828,83.862
		c0,0,15.982-4.888,15.172-5.388c9.646,5.958,95.638,14.216,232,14.216s222.354-8.258,232-14.216
		c-0.81,0.5,15.172,5.388,15.172,5.388c0,9.646-5.25,15.896-77.983,21.284C379.957,108.5,319.88,110.345,256,110.345z"/>
	<path style="fill:#FFC855;" d="M256,251.586c-63.88,0-123.957-1.845-169.19-5.198C14.078,241,8.828,234.75,8.828,225.103
		c0,0,15.982-4.888,15.172-5.388c9.646,5.958,95.638,14.216,232,14.216s222.354-8.258,232-14.216
		c-0.81,0.5,15.172,5.388,15.172,5.388c0,9.646-5.25,15.896-77.983,21.284C379.957,249.741,319.88,251.586,256,251.586z"/>
</g>
<path style="fill:#A7A5AC;" d="M17.655,57.379c-4.879,0-8.828,3.948-8.828,8.828v379.586h17.655V66.207
	C26.483,61.327,22.535,57.379,17.655,57.379z"/>
<path style="fill:#8D8A94;" d="M26.483,454.621H8.828c-4.879,0-8.828-3.948-8.828-8.828c0-4.879,3.948-8.828,8.828-8.828h17.655
	c4.879,0,8.828,3.948,8.828,8.828C35.31,450.673,31.362,454.621,26.483,454.621z"/>
<path style="fill:#A7A5AC;" d="M494.345,57.379c-4.879,0-8.828,3.948-8.828,8.828v379.586h17.655V66.207
	C503.172,61.327,499.224,57.379,494.345,57.379z"/>
<g>
	<path style="fill:#8D8A94;" d="M503.172,454.621h-17.655c-4.879,0-8.828-3.948-8.828-8.828c0-4.879,3.948-8.828,8.828-8.828h17.655
		c4.879,0,8.828,3.948,8.828,8.828C512,450.673,508.052,454.621,503.172,454.621z"/>
	<rect x="8.828" y="75.034" style="fill:#8D8A94;" width="17.655" height="26.483"/>
	<rect x="8.828" y="216.276" style="fill:#8D8A94;" width="17.655" height="26.483"/>
	<rect x="485.517" y="75.034" style="fill:#8D8A94;" width="17.655" height="26.483"/>
	<rect x="485.517" y="216.276" style="fill:#8D8A94;" width="17.655" height="26.483"/>
</g>
<g>
</g>
<g>
</g>
<g>
</g>
<g>
</g>
<g>
</g>
<g>
</g>
<g>
</g>
<g>
</g>
<g>
</g>
<g>
</g>
<g>
</g>
<g>
</g>
<g>
</g>
<g>
</g>
<g>
</g>
</svg>
