<?xml version="1.0" encoding="iso-8859-1"?>
<!-- Generator: Adobe Illustrator 19.0.0, SVG Export Plug-In . SVG Version: 6.00 Build 0)  -->
<svg version="1.1" id="Layer_1" xmlns="http://www.w3.org/2000/svg" xmlns:xlink="http://www.w3.org/1999/xlink" x="0px" y="0px"
	 viewBox="0 0 512 512" style="enable-background:new 0 0 512 512;" xml:space="preserve">
<g>
	<rect x="17.655" y="353.103" style="fill:#CAC9CD;" width="476.69" height="17.655"/>
	<rect x="17.655" y="141.241" style="fill:#CAC9CD;" width="476.69" height="17.655"/>
	<rect x="17.655" y="176.552" style="fill:#CAC9CD;" width="476.69" height="17.655"/>
	<rect x="17.655" y="211.862" style="fill:#CAC9CD;" width="476.69" height="17.655"/>
	<rect x="17.655" y="282.483" style="fill:#CAC9CD;" width="476.69" height="17.655"/>
	<rect x="17.655" y="247.172" style="fill:#CAC9CD;" width="476.69" height="17.655"/>
	<rect x="17.655" y="317.793" style="fill:#CAC9CD;" width="476.69" height="17.655"/>
</g>
<g>
	<path style="fill:#DCDBDE;" d="M238.345,388.414L238.345,388.414c-4.875,0-8.828-3.953-8.828-8.828V105.931h17.655v273.655
		C247.172,384.461,243.22,388.414,238.345,388.414z"/>
	<path style="fill:#DCDBDE;" d="M273.655,388.414L273.655,388.414c-4.875,0-8.828-3.953-8.828-8.828V105.931h17.655v273.655
		C282.483,384.461,278.53,388.414,273.655,388.414z"/>
	<path style="fill:#DCDBDE;" d="M203.034,388.414L203.034,388.414c-4.875,0-8.828-3.953-8.828-8.828V105.931h17.655v273.655
		C211.862,384.461,207.91,388.414,203.034,388.414z"/>
	<path style="fill:#DCDBDE;" d="M344.276,388.414L344.276,388.414c-4.875,0-8.828-3.953-8.828-8.828V105.931h17.655v273.655
		C353.103,384.461,349.151,388.414,344.276,388.414z"/>
	<path style="fill:#DCDBDE;" d="M379.586,388.414L379.586,388.414c-4.875,0-8.828-3.953-8.828-8.828V105.931h17.655v273.655
		C388.414,384.461,384.461,388.414,379.586,388.414z"/>
	<path style="fill:#DCDBDE;" d="M414.897,388.414L414.897,388.414c-4.875,0-8.828-3.953-8.828-8.828V105.931h17.655v273.655
		C423.724,384.461,419.772,388.414,414.897,388.414z"/>
	<path style="fill:#DCDBDE;" d="M450.207,388.414L450.207,388.414c-4.875,0-8.828-3.953-8.828-8.828V105.931h17.655v273.655
		C459.034,384.461,455.082,388.414,450.207,388.414z"/>
	<path style="fill:#DCDBDE;" d="M61.793,388.414L61.793,388.414c-4.875,0-8.828-3.953-8.828-8.828V105.931h17.655v273.655
		C70.621,384.461,66.668,388.414,61.793,388.414z"/>
	<path style="fill:#DCDBDE;" d="M308.966,388.414L308.966,388.414c-4.875,0-8.828-3.953-8.828-8.828V105.931h17.655v273.655
		C317.793,384.461,313.841,388.414,308.966,388.414z"/>
	<path style="fill:#DCDBDE;" d="M167.724,388.414L167.724,388.414c-4.875,0-8.828-3.953-8.828-8.828V105.931h17.655v273.655
		C176.552,384.461,172.599,388.414,167.724,388.414z"/>
	<path style="fill:#DCDBDE;" d="M132.414,388.414L132.414,388.414c-4.875,0-8.828-3.953-8.828-8.828V105.931h17.655v273.655
		C141.241,384.461,137.289,388.414,132.414,388.414z"/>
	<path style="fill:#DCDBDE;" d="M97.103,388.414L97.103,388.414c-4.875,0-8.828-3.953-8.828-8.828V105.931h17.655v273.655
		C105.931,384.461,101.978,388.414,97.103,388.414z"/>
</g>
<path style="fill:#66D8E4;" d="M503.172,406.069h-17.655V141.241c0-14.603-11.88-26.483-26.483-26.483H52.966
	c-14.603,0-26.483,11.88-26.483,26.483v264.828H8.828V141.241c0-24.337,19.801-44.138,44.138-44.138h406.069
	c24.337,0,44.138,19.801,44.138,44.138V406.069z"/>
<g>
	<path style="fill:#33CBDB;" d="M26.483,414.897H8.828c-4.879,0-8.828-3.948-8.828-8.828c0-4.879,3.948-8.828,8.828-8.828h17.655
		c4.879,0,8.828,3.948,8.828,8.828C35.31,410.948,31.362,414.897,26.483,414.897z"/>
	<path style="fill:#33CBDB;" d="M503.172,414.897h-17.655c-4.879,0-8.828-3.948-8.828-8.828c0-4.879,3.948-8.828,8.828-8.828h17.655
		c4.879,0,8.828,3.948,8.828,8.828C512,410.948,508.052,414.897,503.172,414.897z"/>
</g>
<g>
</g>
<g>
</g>
<g>
</g>
<g>
</g>
<g>
</g>
<g>
</g>
<g>
</g>
<g>
</g>
<g>
</g>
<g>
</g>
<g>
</g>
<g>
</g>
<g>
</g>
<g>
</g>
<g>
</g>
</svg>
