<?xml version="1.0" encoding="iso-8859-1"?>
<!-- Generator: Adobe Illustrator 19.0.0, SVG Export Plug-In . SVG Version: 6.00 Build 0)  -->
<svg version="1.1" id="Layer_1" xmlns="http://www.w3.org/2000/svg" xmlns:xlink="http://www.w3.org/1999/xlink" x="0px" y="0px"
	 viewBox="0 0 512 512" style="enable-background:new 0 0 512 512;" xml:space="preserve">
<path style="fill:#E15050;" d="M327.782,8.828H256v52.966h71.782c7.051,0,11.256-7.858,7.345-13.725l-8.505-12.758l8.505-12.758
	C339.038,16.685,334.831,8.828,327.782,8.828z"/>
<path style="fill:#D24146;" d="M256,0L256,0c-4.875,0-8.828,3.953-8.828,8.828v88.276h17.655V8.828C264.828,3.953,260.875,0,256,0z"
	/>
<path style="fill:#FFC855;" d="M141.241,291.31v203.034h61.793v-97.103c0-29.252,23.713-52.966,52.966-52.966
	s52.966,23.713,52.966,52.966v97.103h61.793V291.31H141.241z"/>
<rect x="141.241" y="291.31" style="fill:#FFA03C;" width="229.517" height="26.483"/>
<g>
	<path style="fill:#E68C5A;" d="M203.034,512h-61.793c-4.875,0-8.828-3.953-8.828-8.828v-17.655c0-4.875,3.953-8.828,8.828-8.828
		h61.793c4.875,0,8.828,3.953,8.828,8.828v17.655C211.862,508.047,207.91,512,203.034,512z"/>
	<path style="fill:#E68C5A;" d="M370.759,512h-61.793c-4.875,0-8.828-3.953-8.828-8.828v-17.655c0-4.875,3.953-8.828,8.828-8.828
		h61.793c4.875,0,8.828,3.953,8.828,8.828v17.655C379.586,508.047,375.634,512,370.759,512z"/>
</g>
<path style="fill:#D24146;" d="M379.586,300.138H132.414c-4.875,0-8.828-3.953-8.828-8.828l0,0c0-4.875,3.953-8.828,8.828-8.828
	h247.172c4.875,0,8.828,3.953,8.828,8.828l0,0C388.414,296.185,384.461,300.138,379.586,300.138z"/>
<path style="fill:#E15050;" d="M132.414,282.483L248.375,83.692c3.406-5.839,11.843-5.839,15.25,0l115.961,198.791H132.414z"/>
<g>
	<circle style="fill:#D24146;" cx="256" cy="105.931" r="8.828"/>
	<circle style="fill:#D24146;" cx="238.345" cy="132.414" r="8.828"/>
	<circle style="fill:#D24146;" cx="203.034" cy="238.345" r="8.828"/>
	<circle style="fill:#D24146;" cx="220.69" cy="264.828" r="8.828"/>
	<circle style="fill:#D24146;" cx="273.655" cy="132.414" r="8.828"/>
	<circle style="fill:#D24146;" cx="256" cy="158.897" r="8.828"/>
	<circle style="fill:#D24146;" cx="220.69" cy="158.897" r="8.828"/>
	<circle style="fill:#D24146;" cx="238.345" cy="185.379" r="8.828"/>
	<circle style="fill:#D24146;" cx="203.034" cy="185.379" r="8.828"/>
	<circle style="fill:#D24146;" cx="220.69" cy="211.862" r="8.828"/>
	<circle style="fill:#D24146;" cx="273.655" cy="185.379" r="8.828"/>
	<circle style="fill:#D24146;" cx="256" cy="211.862" r="8.828"/>
	<circle style="fill:#D24146;" cx="185.379" cy="211.862" r="8.828"/>
	<circle style="fill:#D24146;" cx="256" cy="264.828" r="8.828"/>
	<circle style="fill:#D24146;" cx="238.345" cy="238.345" r="8.828"/>
	<circle style="fill:#D24146;" cx="185.379" cy="264.828" r="8.828"/>
	<circle style="fill:#D24146;" cx="273.655" cy="238.345" r="8.828"/>
	<circle style="fill:#D24146;" cx="291.31" cy="211.862" r="8.828"/>
	<circle style="fill:#D24146;" cx="291.31" cy="264.828" r="8.828"/>
	<circle style="fill:#D24146;" cx="308.966" cy="238.345" r="8.828"/>
	<circle style="fill:#D24146;" cx="326.621" cy="264.828" r="8.828"/>
	<circle style="fill:#D24146;" cx="308.966" cy="185.379" r="8.828"/>
	<circle style="fill:#D24146;" cx="326.621" cy="211.862" r="8.828"/>
	<circle style="fill:#D24146;" cx="291.31" cy="158.897" r="8.828"/>
	<path style="fill:#D24146;" d="M361.931,273.655c4.211,0,7.566-3.01,8.449-6.954l-5.949-10.197c-0.807-0.243-1.612-0.504-2.5-0.504
		c-4.875,0-8.828,3.953-8.828,8.828S357.056,273.655,361.931,273.655z"/>
	<path style="fill:#D24146;" d="M344.276,247.172c4.875,0,8.828-3.953,8.828-8.828c0-0.684-0.242-1.289-0.39-1.928l-2.724-4.67
		c-1.547-1.341-3.506-2.23-5.714-2.23c-4.875,0-8.828,3.953-8.828,8.828C335.448,243.22,339.401,247.172,344.276,247.172z"/>
	<path style="fill:#D24146;" d="M167.724,247.172c4.875,0,8.828-3.953,8.828-8.828c0-4.875-3.953-8.828-8.828-8.828
		c-2.208,0-4.167,0.889-5.715,2.23l-2.724,4.67c-0.147,0.639-0.388,1.244-0.388,1.928
		C158.897,243.22,162.849,247.172,167.724,247.172z"/>
	<path style="fill:#D24146;" d="M150.069,273.655c4.875,0,8.828-3.953,8.828-8.828S154.944,256,150.069,256
		c-0.887,0-1.694,0.262-2.502,0.505l-5.949,10.197C142.502,270.645,145.858,273.655,150.069,273.655z"/>
</g>
<g>
</g>
<g>
</g>
<g>
</g>
<g>
</g>
<g>
</g>
<g>
</g>
<g>
</g>
<g>
</g>
<g>
</g>
<g>
</g>
<g>
</g>
<g>
</g>
<g>
</g>
<g>
</g>
<g>
</g>
</svg>
