<?xml version="1.0" encoding="iso-8859-1"?>
<!-- Generator: Adobe Illustrator 19.0.0, SVG Export Plug-In . SVG Version: 6.00 Build 0)  -->
<svg version="1.1" id="Layer_1" xmlns="http://www.w3.org/2000/svg" xmlns:xlink="http://www.w3.org/1999/xlink" x="0px" y="0px"
	 viewBox="0 0 512 512" style="enable-background:new 0 0 512 512;" xml:space="preserve">
<rect x="260.409" y="167.725" transform="matrix(-0.7071 0.7071 -0.7071 -0.7071 609.4252 171.2937)" style="fill:#625D6B;" width="17.655" height="88.275"/>
<path style="fill:#8D8A94;" d="M261.614,169.553l-34.682,34.682c-3.447,3.447-9.036,3.447-12.484,0l0,0
	c-3.447-3.447-3.447-9.036,0-12.484l34.682-34.682c3.447-3.447,9.037-3.447,12.484,0l0,0
	C265.063,160.515,265.063,166.105,261.614,169.553z"/>
<g>
	<path style="fill:#625D6B;" d="M150.069,269.241h-26.483V163.31c0-4.875,3.953-8.828,8.828-8.828h8.828
		c4.875,0,8.828,3.953,8.828,8.828V269.241z"/>
	<path style="fill:#625D6B;" d="M485.517,357.517H26.483C11.857,357.517,0,345.661,0,331.034l0,0
		c0-14.626,11.857-26.483,26.483-26.483h459.034c14.626,0,26.483,11.857,26.483,26.483l0,0
		C512,345.661,500.143,357.517,485.517,357.517z"/>
</g>
<path style="fill:#E15050;" d="M485.517,304.552v-45.846c0-10.114-5.752-19.338-14.835-23.788
	c-30.081-14.743-103.427-45.124-197.027-45.124v61.793c0,9.751-7.904,17.655-17.655,17.655h-61.74
	c-43.732,0-79.183-26.624-79.183-70.356v-9.287c-15.613,0-50.496,1.759-75.657,16.739c-8.039,4.787-12.938,13.479-12.938,22.835
	l0.001,75.379H485.517z"/>
<g>
	<path style="fill:#D24146;" d="M256,278.069h-61.475c-48.672,0-88.276-39.604-88.276-88.276v-8.828
		c0-4.879,3.948-8.828,8.828-8.828c4.879,0,8.828,3.948,8.828,8.828v8.828c0,38.94,31.681,70.621,70.621,70.621H256
		c4.871,0,8.828-3.957,8.828-8.828v-52.966c0-4.879,3.948-8.828,8.828-8.828c4.879,0,8.828,3.948,8.828,8.828v52.966
		C282.483,266.189,270.603,278.069,256,278.069z"/>
	<path style="fill:#D24146;" d="M428.138,286.897h57.379v-26.483h-57.379c-7.313,0-13.241,5.929-13.241,13.241l0,0
		C414.897,280.968,420.825,286.897,428.138,286.897z"/>
</g>
<path style="fill:#FFF5E1;" d="M485.517,286.897h-22.069c-7.313,0-13.241-5.929-13.241-13.241l0,0
	c0-7.313,5.929-13.241,13.241-13.241h22.069V286.897z"/>
<path style="fill:#504B5A;" d="M26.483,357.517h459.034c14.626,0,26.483-11.857,26.483-26.483H0
	C0,345.661,11.857,357.517,26.483,357.517z"/>
<g>
</g>
<g>
</g>
<g>
</g>
<g>
</g>
<g>
</g>
<g>
</g>
<g>
</g>
<g>
</g>
<g>
</g>
<g>
</g>
<g>
</g>
<g>
</g>
<g>
</g>
<g>
</g>
<g>
</g>
</svg>
