<?xml version="1.0" encoding="iso-8859-1"?>
<!-- Generator: Adobe Illustrator 19.0.0, SVG Export Plug-In . SVG Version: 6.00 Build 0)  -->
<svg version="1.1" id="Layer_1" xmlns="http://www.w3.org/2000/svg" xmlns:xlink="http://www.w3.org/1999/xlink" x="0px" y="0px"
	 viewBox="0 0 512 512" style="enable-background:new 0 0 512 512;" xml:space="preserve">
<path style="fill:#8D8A94;" d="M176.552,432.552c-4.879,0-8.828-3.953-8.828-8.828c0-14.543,19.62-18.638,42.336-23.38
	c7.242-1.508,18.094-3.776,24.431-6.091c-6.336-2.311-17.198-4.569-24.431-6.078c-22.716-4.732-42.336-8.818-42.336-23.352
	c0-14.535,19.62-18.621,42.345-23.353c7.224-1.504,18.051-3.763,24.396-6.065c-6.345-2.306-17.181-4.565-24.405-6.069
	c-22.716-4.733-42.336-8.819-42.336-23.349c0-14.526,19.62-18.607,42.336-23.332c7.224-1.504,18.044-3.754,24.388-6.051
	c-6.345-2.306-17.164-4.561-24.388-6.065c-22.716-4.733-42.336-8.819-42.336-23.349c0-14.53,19.62-18.616,42.336-23.349
	c9.25-1.927,24.405-5.081,28.5-8c0.879-3.944,4.405-6.892,8.612-6.892c4.879,0,8.828,3.953,8.828,8.828
	c0,14.53-19.62,18.616-42.336,23.349c-7.224,1.504-18.06,3.758-24.396,6.065c6.336,2.306,17.164,4.561,24.388,6.065
	c22.724,4.733,42.345,8.819,42.345,23.353c0,14.526-19.62,18.607-42.336,23.332c-7.224,1.5-18.044,3.75-24.388,6.051
	c6.345,2.302,17.164,4.556,24.38,6.06c22.724,4.733,42.345,8.819,42.345,23.353c0,14.53-19.62,18.616-42.336,23.349
	c-7.224,1.504-18.06,3.763-24.405,6.069c6.336,2.306,17.173,4.565,24.396,6.069C236.38,375.625,256,379.715,256,394.25
	c0,14.543-19.62,18.638-42.336,23.38c-9.25,1.931-24.414,5.095-28.491,8.018C184.294,429.594,180.767,432.552,176.552,432.552z"/>
<path style="fill:#D24146;" d="M282.483,450.207H141.241c-4.875,0-8.828-3.953-8.828-8.828v-17.655c0-4.875,3.953-8.828,8.828-8.828
	h141.241c4.875,0,8.828,3.953,8.828,8.828v17.655C291.31,446.254,287.358,450.207,282.483,450.207z"/>
<rect x="467.862" y="167.724" style="fill:#FFA54B;" width="35.31" height="17.655"/>
<g>
	<path style="fill:#FFC855;" d="M503.172,220.69c-4.879,0-8.828-3.953-8.828-8.828v-70.621c0-4.875,3.948-8.828,8.828-8.828
		c4.879,0,8.828,3.953,8.828,8.828v70.621C512,216.737,508.052,220.69,503.172,220.69z"/>
	<path style="fill:#FFC855;" d="M459.034,211.862L459.034,211.862c-9.751,0-17.655-7.904-17.655-17.655v-35.31
		c0-9.751,7.904-17.655,17.655-17.655l0,0c9.751,0,17.655,7.904,17.655,17.655v35.31
		C476.69,203.958,468.786,211.862,459.034,211.862z"/>
</g>
<path style="fill:#E15050;" d="M273.655,123.586c0,29.252-23.713,52.966-52.966,52.966h-17.655
	c-29.252,0-52.966-23.713-52.966-52.966h-35.052c-5.702,0-11.052-2.753-14.367-7.393l-30.935-43.31
	c-4.971-6.959-12.998-11.09-21.55-11.09H35.31c-9.751,0-17.655,7.904-17.655,17.655v75.029c0,32.356,24.96,59.234,57.228,61.624
	L256,229.517h185.379c9.751,0,17.655-7.904,17.655-17.655v-70.621c0-9.751-7.904-17.655-17.655-17.655H273.655z"/>
<path style="fill:#E68C5A;" d="M264.424,123.586h-0.042C264.396,123.682,264.41,123.67,264.424,123.586z"/>
<path style="fill:#646464;" d="M397.241,282.483c-19.474,0-35.31-15.84-35.31-35.31s15.837-35.31,35.31-35.31
	c19.474,0,35.31,15.84,35.31,35.31S416.715,282.483,397.241,282.483z M397.241,229.517c-9.732,0-17.655,7.918-17.655,17.655
	s7.923,17.655,17.655,17.655s17.655-7.918,17.655-17.655S406.974,229.517,397.241,229.517z"/>
<path style="fill:#D24146;" d="M66.207,141.241H13.241C5.929,141.241,0,135.313,0,128l0,0c0-7.313,5.929-13.241,13.241-13.241
	h52.966c7.313,0,13.241,5.929,13.241,13.241l0,0C79.448,135.313,73.519,141.241,66.207,141.241z"/>
<path style="fill:#FFC855;" d="M220.69,185.379h-17.655c-34.069,0-61.793-27.72-61.793-61.793c0-4.875,3.948-8.828,8.828-8.828
	c4.879,0,8.828,3.953,8.828,8.828c0,24.337,19.801,44.138,44.138,44.138h17.655c24.337,0,44.138-19.801,44.138-44.138
	c0-4.875,3.948-8.828,8.828-8.828c4.879,0,8.828,3.953,8.828,8.828C282.483,157.66,254.759,185.379,220.69,185.379z"/>
<g>
	<rect x="317.793" y="79.448" style="fill:#8D8A94;" width="17.655" height="88.276"/>
	<rect x="388.414" y="79.448" style="fill:#8D8A94;" width="17.655" height="88.276"/>
</g>
<g>
	<path style="fill:#FFC855;" d="M419.31,88.276H304.552c-7.313,0-13.241-5.929-13.241-13.241l0,0
		c0-7.313,5.929-13.241,13.241-13.241H419.31c7.313,0,13.241,5.929,13.241,13.241l0,0C432.552,82.347,426.623,88.276,419.31,88.276z
		"/>
	<path style="fill:#FFC855;" d="M419.31,185.379H304.552c-7.313,0-13.241-5.929-13.241-13.241l0,0
		c0-7.313,5.929-13.241,13.241-13.241H419.31c7.313,0,13.241,5.929,13.241,13.241l0,0
		C432.552,179.45,426.623,185.379,419.31,185.379z"/>
</g>
<g>
</g>
<g>
</g>
<g>
</g>
<g>
</g>
<g>
</g>
<g>
</g>
<g>
</g>
<g>
</g>
<g>
</g>
<g>
</g>
<g>
</g>
<g>
</g>
<g>
</g>
<g>
</g>
<g>
</g>
</svg>
