<?xml version="1.0" encoding="iso-8859-1"?>
<!-- Generator: Adobe Illustrator 19.0.0, SVG Export Plug-In . SVG Version: 6.00 Build 0)  -->
<svg version="1.1" id="Layer_1" xmlns="http://www.w3.org/2000/svg" xmlns:xlink="http://www.w3.org/1999/xlink" x="0px" y="0px"
	 viewBox="0 0 512 512" style="enable-background:new 0 0 512 512;" xml:space="preserve">
<path style="fill:#00D2B9;" d="M84.085,121.368c5.664,17.726,11.819,35.412,18.543,53.024c1.864,4.882,8.413,6.007,11.797,2.025
	c12.039-14.168,23.554-28.606,34.614-43.252C127.277,130.151,105.611,126.23,84.085,121.368z"/>
<g>
	<path style="fill:#E15050;" d="M15.836,102.798c4.213,18.212,8.919,36.429,14.199,54.621c1.451,5,7.85,6.673,11.56,3.019
		c13.236-13.035,25.966-26.39,38.254-39.997C58.347,115.46,36.984,109.626,15.836,102.798z"/>
	<path style="fill:#E15050;" d="M293.214,139.698c9.764,15.549,19.993,30.934,30.76,46.099c3.031,4.27,9.671,3.705,11.938-1.015
		c8.117-16.898,15.673-33.92,22.745-51.022C336.907,136.648,315.081,138.652,293.214,139.698z"/>
	<path style="fill:#E15050;" d="M432.151,120.441c12.289,13.608,25.018,26.962,38.254,39.997c3.71,3.654,10.109,1.981,11.56-3.019
		c5.281-18.191,9.987-36.408,14.2-54.621C475.016,109.626,453.653,115.46,432.151,120.441z"/>
</g>
<path style="fill:#00D2B9;" d="M362.962,133.165c11.06,14.646,22.575,29.085,34.614,43.252c3.384,3.982,9.932,2.857,11.797-2.025
	c6.724-17.612,12.878-35.298,18.543-53.024C406.389,126.23,384.723,130.151,362.962,133.165z"/>
<path style="fill:#E15050;" d="M153.343,133.759c7.072,17.102,14.628,34.124,22.745,51.022c2.268,4.721,8.907,5.286,11.938,1.015
	c10.765-15.165,20.994-30.55,30.76-46.099C196.919,138.652,175.093,136.648,153.343,133.759z"/>
<path style="fill:#FFC855;" d="M223.235,139.959c8.427,16.345,17.325,32.57,26.772,48.625c2.658,4.516,9.327,4.516,11.986,0
	c9.447-16.054,18.346-32.278,26.772-48.625C266.93,140.877,245.07,140.877,223.235,139.959z"/>
<path style="fill:#FFA54B;" d="M256,145.845c-79.862,0-159.724-12.948-237.362-38.845c-4.621-1.543-7.121-6.535-5.578-11.164
	c1.535-4.621,6.508-7.121,11.164-5.578c151.62,50.552,311.932,50.552,463.552,0c4.655-1.543,9.621,0.957,11.164,5.578
	c1.543,4.629-0.957,9.621-5.578,11.164C415.724,132.897,335.862,145.845,256,145.845z"/>
<rect x="485.517" y="75.034" style="fill:#FFC855;" width="17.655" height="379.586"/>
<g>
	<circle style="fill:#FFA54B;" cx="494.345" cy="66.207" r="17.655"/>
	<path style="fill:#FFA54B;" d="M503.172,463.448h-17.655c-4.879,0-8.828-3.948-8.828-8.828c0-4.879,3.948-8.828,8.828-8.828h17.655
		c4.879,0,8.828,3.948,8.828,8.828C512,459.5,508.052,463.448,503.172,463.448z"/>
</g>
<rect x="8.828" y="75.034" style="fill:#FFC855;" width="17.655" height="379.586"/>
<g>
	<circle style="fill:#FFA54B;" cx="17.655" cy="66.207" r="17.655"/>
	<path style="fill:#FFA54B;" d="M26.483,463.448H8.828C3.948,463.448,0,459.5,0,454.621c0-4.879,3.948-8.828,8.828-8.828h17.655
		c4.879,0,8.828,3.948,8.828,8.828C35.31,459.5,31.362,463.448,26.483,463.448z"/>
</g>
<g>
</g>
<g>
</g>
<g>
</g>
<g>
</g>
<g>
</g>
<g>
</g>
<g>
</g>
<g>
</g>
<g>
</g>
<g>
</g>
<g>
</g>
<g>
</g>
<g>
</g>
<g>
</g>
<g>
</g>
</svg>
