<?xml version="1.0" encoding="iso-8859-1"?>
<!-- Generator: Adobe Illustrator 19.0.0, SVG Export Plug-In . SVG Version: 6.00 Build 0)  -->
<svg version="1.1" id="Layer_1" xmlns="http://www.w3.org/2000/svg" xmlns:xlink="http://www.w3.org/1999/xlink" x="0px" y="0px"
	 viewBox="0 0 512 512" style="enable-background:new 0 0 512 512;" xml:space="preserve">
<path style="fill:#D24146;" d="M61.793,233.931c0-54.711,91.322-80.43,141.241-87.146v-35.584
	c-15.626,1.854-54.316,7.33-93.63,19.833C18.983,159.81,0,202.87,0,233.931c0,59.841,54.552,113.107,162.206,158.897h103.582
	c-1.613-0.501-3.226-0.992-4.84-1.5C115.439,345.465,61.793,289.569,61.793,233.931z"/>
<g>
	<rect x="317.793" y="313.379" style="fill:#FFA54B;" width="79.448" height="17.655"/>
	<rect x="317.793" y="357.517" style="fill:#FFA54B;" width="79.448" height="17.655"/>
	<rect x="317.793" y="401.655" style="fill:#FFA54B;" width="79.448" height="17.655"/>
	<rect x="317.793" y="269.241" style="fill:#FFA54B;" width="79.448" height="17.655"/>
	<rect x="317.793" y="225.104" style="fill:#FFA54B;" width="79.448" height="17.655"/>
	<rect x="317.793" y="180.966" style="fill:#FFA54B;" width="79.448" height="17.655"/>
</g>
<g>
	<rect x="308.966" y="154.483" style="fill:#FFC855;" width="17.655" height="317.793"/>
	<path style="fill:#FFC855;" d="M361.931,30.897H247.172c-24.337,0-44.138,19.801-44.138,44.138v397.241h17.655V75.035
		c0-14.603,11.88-26.483,26.483-26.483h114.759c14.603,0,26.483,11.88,26.483,26.483v397.241h17.655V75.035
		C406.069,50.698,386.268,30.897,361.931,30.897z"/>
</g>
<g>
	<path style="fill:#FFA54B;" d="M406.069,481.104h-17.655c-4.879,0-8.828-3.948-8.828-8.828c0-4.879,3.948-8.828,8.828-8.828h17.655
		c4.879,0,8.828,3.948,8.828,8.828C414.897,477.155,410.948,481.104,406.069,481.104z"/>
	<path style="fill:#FFA54B;" d="M326.621,481.104h-17.655c-4.879,0-8.828-3.948-8.828-8.828c0-4.879,3.948-8.828,8.828-8.828h17.655
		c4.879,0,8.828,3.948,8.828,8.828C335.448,477.155,331.5,481.104,326.621,481.104z"/>
	<path style="fill:#FFA54B;" d="M220.69,481.104h-17.655c-4.879,0-8.828-3.948-8.828-8.828c0-4.879,3.948-8.828,8.828-8.828h17.655
		c4.879,0,8.828,3.948,8.828,8.828C229.517,477.155,225.569,481.104,220.69,481.104z"/>
</g>
<g>
	<path style="fill:#E15050;" d="M203.034,112.756c-28.851,9.756-135.191,50.042-140.921,115.671
		c5.878-50.942,92.711-75.155,140.921-81.641V112.756z"/>
	<path style="fill:#E15050;" d="M489.77,442.541c-42.412-7.566-147.027-25.44-228.821-51.213
		c-7.747-2.442-15.213-4.927-22.589-7.425L238.345,384c-0.874-0.314-1.687-0.627-2.556-0.942
		c-36.85-12.582-68.846-25.847-95.924-39.581C39.457,295.544,2.889,251.169,2.822,213.835C0.839,220.875,0,227.655,0,233.931
		c0,74.492,84.345,138.819,250.698,191.181c100.668,31.695,225.261,51.103,254.665,55.913c4.109,0.672,7.51-3.094,6.438-7.117
		C508.863,462.896,502.194,444.758,489.77,442.541z"/>
</g>
<path style="fill:#FFA54B;" d="M406.069,154.483H203.034c-4.875,0-8.828-3.953-8.828-8.828v-26.483c0-4.875,3.953-8.828,8.828-8.828
	h203.034c4.875,0,8.828,3.953,8.828,8.828v26.483C414.897,150.53,410.944,154.483,406.069,154.483z"/>
<g>
</g>
<g>
</g>
<g>
</g>
<g>
</g>
<g>
</g>
<g>
</g>
<g>
</g>
<g>
</g>
<g>
</g>
<g>
</g>
<g>
</g>
<g>
</g>
<g>
</g>
<g>
</g>
<g>
</g>
</svg>
