<?xml version="1.0" encoding="iso-8859-1"?>
<!-- Generator: Adobe Illustrator 19.0.0, SVG Export Plug-In . SVG Version: 6.00 Build 0)  -->
<svg version="1.1" id="Layer_1" xmlns="http://www.w3.org/2000/svg" xmlns:xlink="http://www.w3.org/1999/xlink" x="0px" y="0px"
	 viewBox="0 0 511.999 511.999" style="enable-background:new 0 0 511.999 511.999;" xml:space="preserve">
<g>
	<rect x="247.172" y="282.482" style="fill:#A7A5AC;" width="17.655" height="52.966"/>
	<rect x="282.482" y="280.276" style="fill:#A7A5AC;" width="17.655" height="52.966"/>
	<rect x="317.793" y="274.758" style="fill:#A7A5AC;" width="17.655" height="52.966"/>
	<rect x="211.862" y="280.276" style="fill:#A7A5AC;" width="17.655" height="52.966"/>
	<rect x="176.551" y="274.758" style="fill:#A7A5AC;" width="17.655" height="52.966"/>
</g>
<path style="fill:#8D8A94;" d="M256,344.276c-49.259,0-92.104-11.017-111.837-28.742c-3.62-3.258-3.923-8.845-0.664-12.474
	c3.276-3.612,8.853-3.896,12.474-0.664C169.379,314.456,205.517,326.62,256,326.62s86.621-12.163,100.025-24.224
	c3.62-3.242,9.198-2.974,12.474,0.664c3.258,3.629,2.957,9.216-0.664,12.474C348.103,333.258,305.259,344.276,256,344.276z"/>
<path style="fill:#FFC855;" d="M256.002,291.311c-49.259,0-92.104-11.017-111.837-28.742c-3.62-3.258-3.923-8.845-0.664-12.474
	c3.276-3.612,8.853-3.896,12.474-0.664c13.405,12.061,49.543,24.224,100.025,24.224s86.621-12.163,100.025-24.224
	c3.62-3.242,9.198-2.974,12.474,0.664c3.258,3.629,2.957,9.216-0.664,12.474C348.104,280.293,305.26,291.311,256.002,291.311z"/>
<g>
	<rect x="397.241" y="344.276" style="fill:#A7A5AC;" width="52.966" height="17.655"/>
	<rect x="397.241" y="414.896" style="fill:#A7A5AC;" width="52.966" height="17.655"/>
	<rect x="397.241" y="379.586" style="fill:#A7A5AC;" width="52.966" height="17.655"/>
	<rect x="397.241" y="450.207" style="fill:#A7A5AC;" width="52.966" height="17.655"/>
</g>
<g>
	<path style="fill:#B9B7BD;" d="M397.241,485.517c-4.879,0-8.828-3.948-8.828-8.828V317.793c0-4.879,3.948-8.828,8.828-8.828
		c4.879,0,8.828,3.948,8.828,8.828v158.897C406.069,481.569,402.12,485.517,397.241,485.517z"/>
	<path style="fill:#B9B7BD;" d="M450.206,485.517c-4.879,0-8.828-3.948-8.828-8.828V317.793c0-4.879,3.948-8.828,8.828-8.828
		c4.879,0,8.828,3.948,8.828,8.828v158.897C459.034,481.569,455.086,485.517,450.206,485.517z"/>
</g>
<rect x="353.103" y="317.793" style="fill:#FFC855;" width="17.655" height="158.897"/>
<path style="fill:#FFA54B;" d="M370.758,485.517h-17.655c-4.879,0-8.828-3.948-8.828-8.828c0-4.879,3.948-8.828,8.828-8.828h17.655
	c4.879,0,8.828,3.948,8.828,8.828C379.586,481.569,375.638,485.517,370.758,485.517z"/>
<rect x="476.689" y="317.793" style="fill:#FFC855;" width="17.655" height="158.897"/>
<path style="fill:#FFA54B;" d="M494.344,485.517h-17.655c-4.879,0-8.828-3.948-8.828-8.828c0-4.879,3.948-8.828,8.828-8.828h17.655
	c4.879,0,8.828,3.948,8.828,8.828C503.172,481.569,499.224,485.517,494.344,485.517z"/>
<path style="fill:#E15050;" d="M503.172,158.896H344.275v158.897c0,4.875,3.953,8.828,8.828,8.828h141.241
	c4.875,0,8.828-3.953,8.828-8.828V158.896z M423.724,291.31c-24.376,0-44.138-19.762-44.138-44.138
	c0-24.377,19.762-44.138,44.138-44.138s44.138,19.761,44.138,44.138C467.862,271.548,448.1,291.31,423.724,291.31z"/>
<rect x="344.275" y="158.896" style="fill:#D24146;" width="158.897" height="26.483"/>
<path style="fill:#E15050;" d="M423.724,70.62c-4.879,0-8.828-3.948-8.828-8.828V35.31c0-4.879,3.948-8.828,8.828-8.828
	c4.879,0,8.828,3.948,8.828,8.828v26.483C432.551,66.672,428.603,70.62,423.724,70.62z"/>
<path style="fill:#FFC855;" d="M510.008,153.311L430.56,56.207c-3.362-4.104-10.311-4.104-13.673,0l-79.448,97.103
	c-2.155,2.638-2.603,6.284-1.138,9.37c1.457,3.078,4.561,5.043,7.975,5.043h158.897c3.414,0,6.517-1.965,7.975-5.043
	C512.611,159.595,512.163,155.948,510.008,153.311z"/>
<g>
	<rect x="61.793" y="344.276" style="fill:#A7A5AC;" width="52.966" height="17.655"/>
	<rect x="61.793" y="414.896" style="fill:#A7A5AC;" width="52.966" height="17.655"/>
	<rect x="61.793" y="379.586" style="fill:#A7A5AC;" width="52.966" height="17.655"/>
	<rect x="61.793" y="450.207" style="fill:#A7A5AC;" width="52.966" height="17.655"/>
</g>
<g>
	<path style="fill:#B9B7BD;" d="M61.793,485.517c-4.879,0-8.828-3.948-8.828-8.828V317.793c0-4.879,3.948-8.828,8.828-8.828
		s8.828,3.948,8.828,8.828v158.897C70.62,481.569,66.672,485.517,61.793,485.517z"/>
	<path style="fill:#B9B7BD;" d="M114.758,485.517c-4.879,0-8.828-3.948-8.828-8.828V317.793c0-4.879,3.948-8.828,8.828-8.828
		s8.828,3.948,8.828,8.828v158.897C123.586,481.569,119.638,485.517,114.758,485.517z"/>
</g>
<rect x="17.655" y="317.793" style="fill:#FFC855;" width="17.655" height="158.897"/>
<path style="fill:#FFA54B;" d="M35.31,485.517H17.655c-4.879,0-8.828-3.948-8.828-8.828c0-4.879,3.948-8.828,8.828-8.828H35.31
	c4.879,0,8.828,3.948,8.828,8.828C44.138,481.569,40.189,485.517,35.31,485.517z"/>
<rect x="141.241" y="317.793" style="fill:#FFC855;" width="17.655" height="158.897"/>
<path style="fill:#FFA54B;" d="M158.896,485.517h-17.655c-4.879,0-8.828-3.948-8.828-8.828c0-4.879,3.948-8.828,8.828-8.828h17.655
	c4.879,0,8.828,3.948,8.828,8.828C167.724,481.569,163.776,485.517,158.896,485.517z"/>
<path style="fill:#E15050;" d="M167.724,158.896H8.827v158.897c0,4.875,3.953,8.828,8.828,8.828h141.241
	c4.875,0,8.828-3.953,8.828-8.828V158.896z M88.275,291.31c-24.376,0-44.138-19.762-44.138-44.138
	c0-24.377,19.762-44.138,44.138-44.138s44.138,19.761,44.138,44.138C132.413,271.548,112.652,291.31,88.275,291.31z"/>
<rect x="8.827" y="158.896" style="fill:#D24146;" width="158.897" height="26.483"/>
<path style="fill:#E15050;" d="M88.275,70.62c-4.879,0-8.828-3.948-8.828-8.828V35.31c0-4.879,3.948-8.828,8.828-8.828
	s8.828,3.948,8.828,8.828v26.483C97.103,66.672,93.155,70.62,88.275,70.62z"/>
<path style="fill:#FFC855;" d="M174.561,153.311L95.112,56.207c-3.362-4.104-10.311-4.104-13.673,0L1.991,153.311
	c-2.155,2.638-2.603,6.284-1.138,9.37c1.457,3.077,4.559,5.043,7.974,5.043h158.897c3.414,0,6.517-1.965,7.975-5.043
	C177.164,159.595,176.716,155.948,174.561,153.311z"/>
<g>
</g>
<g>
</g>
<g>
</g>
<g>
</g>
<g>
</g>
<g>
</g>
<g>
</g>
<g>
</g>
<g>
</g>
<g>
</g>
<g>
</g>
<g>
</g>
<g>
</g>
<g>
</g>
<g>
</g>
</svg>
