<?xml version="1.0" encoding="iso-8859-1"?>
<!-- Generator: Adobe Illustrator 19.0.0, SVG Export Plug-In . SVG Version: 6.00 Build 0)  -->
<svg version="1.1" id="Layer_1" xmlns="http://www.w3.org/2000/svg" xmlns:xlink="http://www.w3.org/1999/xlink" x="0px" y="0px"
	 viewBox="0 0 512 512" style="enable-background:new 0 0 512 512;" xml:space="preserve">
<path style="fill:#FFC855;" d="M301.922,66.207L316.31,44.62c1.802-2.707,1.974-6.189,0.439-9.06s-4.525-4.663-7.784-4.663H220.69
	v70.621h88.276c3.258,0,6.25-1.793,7.785-4.664s1.362-6.354-0.439-9.06L301.922,66.207z"/>
<path style="fill:#E68C5A;" d="M326.621,357.517l-52.966,88.276h-88.276V419.31H35.31c9.732,0,17.655,7.923,17.655,17.655v26.483
	c0,19.501,15.809,35.31,35.31,35.31h245.741c15.194,0,28.683-9.722,33.489-24.137l7.434-22.303
	c1.759-5.276,5.898-9.415,11.174-11.172l38.168-12.719c20.48-6.825,38.099-20.283,50.071-38.246l15.889-23.837l4.104-8.828H326.621z
	"/>
<path style="fill:#DC7850;" d="M220.69,445.793c-4.879,0-8.828-3.948-8.828-8.828V22.069c0-4.875,3.948-8.828,8.828-8.828
	s8.828,3.953,8.828,8.828v414.897C229.517,441.845,225.569,445.793,220.69,445.793z"/>
<path style="fill:#FFC855;" d="M329.19,322.207H107.844c-5.561,0-9.642-5.063-8.608-10.528c9.695-51.272,9.695-104.224,0-155.496
	c-1.033-5.464,3.047-10.528,8.608-10.528H329.19c8.433,0,15.836,5.935,17.326,14.234c8.783,48.877,8.783,99.204,0,148.082
	C345.024,316.271,337.622,322.207,329.19,322.207z"/>
<path style="fill:#E15050;" d="M308.39,145.655c12.537,58.026,12.537,118.526,0,176.552h-34.734
	c12.537-58.026,12.537-118.526,0-176.552H308.39z"/>
<path style="fill:#DC7850;" d="M503.172,348.69H346.612c-15.414,0-29.922,8.215-37.845,21.431l-37.535,62.552
	c-1.587,2.646-4.491,4.293-7.577,4.293h-69.448v-17.655c0-9.732-7.923-17.655-17.655-17.655h-44.138v-35.31
	c0-4.879-3.948-8.828-8.828-8.828c-4.879,0-8.828,3.948-8.828,8.828v35.31H97.103v-35.31c0-4.879-3.948-8.828-8.828-8.828
	c-4.879,0-8.828,3.948-8.828,8.828v35.31H61.793v-35.31c0-4.879-3.948-8.828-8.828-8.828s-8.828,3.948-8.828,8.828v35.31H26.483
	v-35.31c0-4.879-3.948-8.828-8.828-8.828s-8.828,3.948-8.828,8.828v44.138c0,4.879,3.948,8.828,8.828,8.828h158.897v17.655
	c0,9.732,7.923,17.655,17.655,17.655h69.449c9.241,0,17.949-4.922,22.716-12.853l37.535-62.56
	c4.759-7.932,13.457-12.862,22.707-12.862h156.559c4.879,0,8.828-3.948,8.828-8.828C512,352.64,508.052,348.69,503.172,348.69z"/>
<path style="fill:#E68C5A;" d="M132.414,375.172H8.828c-4.875,0-8.828-3.953-8.828-8.828l0,0c0-4.875,3.953-8.828,8.828-8.828
	h123.586c4.875,0,8.828,3.953,8.828,8.828l0,0C141.241,371.22,137.289,375.172,132.414,375.172z"/>
<g>
	<path style="fill:#E15050;" d="M237.769,145.655c12.537,58.026,12.537,118.526,0,176.552h-34.734
		c12.537-58.026,12.537-118.526,0-176.552H237.769z"/>
	<path style="fill:#E15050;" d="M167.148,145.655c12.537,58.026,12.537,118.526,0,176.552h-34.734
		c12.537-58.026,12.537-118.526,0-176.552H167.148z"/>
</g>
<g>
</g>
<g>
</g>
<g>
</g>
<g>
</g>
<g>
</g>
<g>
</g>
<g>
</g>
<g>
</g>
<g>
</g>
<g>
</g>
<g>
</g>
<g>
</g>
<g>
</g>
<g>
</g>
<g>
</g>
</svg>
