<?xml version="1.0" encoding="iso-8859-1"?>
<!-- Generator: Adobe Illustrator 19.0.0, SVG Export Plug-In . SVG Version: 6.00 Build 0)  -->
<svg version="1.1" id="Layer_1" xmlns="http://www.w3.org/2000/svg" xmlns:xlink="http://www.w3.org/1999/xlink" x="0px" y="0px"
	 viewBox="0 0 512 512" style="enable-background:new 0 0 512 512;" xml:space="preserve">
<path style="fill:#FFA54B;" d="M503.172,141.241h-36.177c-9.159,0-16.691,7.026-17.517,16.147
	c-8.154,89.939-83.761,160.405-175.823,160.405h-35.31c-92.064,0-167.669-70.466-175.823-160.405
	c-0.826-9.121-8.36-16.147-17.517-16.147H8.828v220.69h494.345V141.241z"/>
<path style="fill:#FFC855;" d="M273.655,326.621h-35.31c-96.552,0-175.914-72.414-184.612-168.439
	c-0.423-4.621-4.172-8.113-8.733-8.113H8.828c-4.879,0-8.828-3.948-8.828-8.828s3.948-8.828,8.828-8.828H45
	c13.75,0,25.069,10.397,26.319,24.172c7.871,86.871,79.672,152.38,167.026,152.38h35.31c87.353,0,159.155-65.508,167.026-152.371
	c1.25-13.784,12.569-24.181,26.319-24.181h36.172c4.879,0,8.828,3.948,8.828,8.828s-3.948,8.828-8.828,8.828H467
	c-4.561,0-8.31,3.491-8.733,8.12C449.569,254.207,370.207,326.621,273.655,326.621z"/>
<path style="fill:#E68C5A;" d="M503.172,379.586H8.828c-4.875,0-8.828-3.953-8.828-8.828v-8.828c0-4.875,3.953-8.828,8.828-8.828
	h494.345c4.875,0,8.828,3.953,8.828,8.828v8.828C512,375.634,508.047,379.586,503.172,379.586z"/>
<g>
</g>
<g>
</g>
<g>
</g>
<g>
</g>
<g>
</g>
<g>
</g>
<g>
</g>
<g>
</g>
<g>
</g>
<g>
</g>
<g>
</g>
<g>
</g>
<g>
</g>
<g>
</g>
<g>
</g>
</svg>
