<?xml version="1.0" encoding="iso-8859-1"?>
<!-- Generator: Adobe Illustrator 19.0.0, SVG Export Plug-In . SVG Version: 6.00 Build 0)  -->
<svg version="1.1" id="Layer_1" xmlns="http://www.w3.org/2000/svg" xmlns:xlink="http://www.w3.org/1999/xlink" x="0px" y="0px"
	 viewBox="0 0 512 512" style="enable-background:new 0 0 512 512;" xml:space="preserve">
<path style="fill:#8FDA5D;" d="M512,407.751c0,8.786-7.432,15.974-16.516,15.974H16.516C7.432,423.724,0,416.536,0,407.751V104.249
	c0-8.786,7.432-15.974,16.516-15.974h478.968c9.084,0,16.515,7.188,16.515,15.974V407.751z"/>
<g>
	<rect x="211.862" y="88.276" style="fill:#7DCD55;" width="52.966" height="335.448"/>
	<rect x="105.931" y="88.276" style="fill:#7DCD55;" width="52.966" height="335.448"/>
	<rect x="317.793" y="88.276" style="fill:#7DCD55;" width="52.966" height="335.448"/>
	<rect x="423.724" y="88.276" style="fill:#7DCD55;" width="52.966" height="335.448"/>
	<path style="fill:#7DCD55;" d="M52.966,423.724h-35.31C7.904,423.724,0,415.82,0,406.069V105.931
		c0-9.751,7.904-17.655,17.655-17.655h35.31V423.724z"/>
</g>
<path style="fill:#FFF5E1;" d="M485.517,105.931H26.483c-4.879,0-8.828,3.948-8.828,8.828v282.483c0,4.879,3.948,8.828,8.828,8.828
	h459.034c4.879,0,8.828-3.948,8.828-8.828V114.759C494.345,109.879,490.397,105.931,485.517,105.931z M247.172,308.168
	c-25.01-4.223-44.138-25.975-44.138-52.168s19.128-47.946,44.138-52.168V308.168z M264.828,203.832
	c25.01,4.223,44.138,25.975,44.138,52.168s-19.128,47.946-44.138,52.168V203.832z M61.793,300.138c4.879,0,8.828-3.948,8.828-8.828
	V220.69c0-4.879-3.948-8.828-8.828-8.828H35.31v-26.483h52.966v141.241H35.31v-26.483H61.793z M35.31,282.483v-52.966h17.655v52.966
	H35.31z M35.31,344.276h61.793c4.879,0,8.828-3.948,8.828-8.828v-18.486c21.564-12.536,35.31-35.782,35.31-60.962
	c0-25.176-13.749-48.419-35.31-60.961v-18.487c0-4.879-3.948-8.828-8.828-8.828H35.31v-44.138h211.862v62.407
	c-34.781,4.366-61.793,34.063-61.793,70.007s27.012,65.641,61.793,70.007v62.407H35.31V344.276z M105.931,295.439v-78.872
	c11.016,9.921,17.655,24.239,17.655,39.432C123.586,271.203,116.949,285.523,105.931,295.439z M264.828,388.414v-62.407
	c34.781-4.366,61.793-34.063,61.793-70.007s-27.012-65.641-61.793-70.007v-62.407H476.69v44.138h-61.793
	c-4.879,0-8.828,3.948-8.828,8.828v18.486c-21.564,12.536-35.31,35.782-35.31,60.962c0,25.176,13.749,48.419,35.31,60.961v18.487
	c0,4.879,3.948,8.828,8.828,8.828h61.793v44.138H264.828z M450.207,211.862c-4.879,0-8.828,3.948-8.828,8.828v70.621
	c0,4.879,3.948,8.828,8.828,8.828h26.483v26.483h-52.966V185.379h52.966v26.483H450.207z M476.69,229.517v52.966h-17.655v-52.966
	H476.69z M406.069,216.561v78.872c-11.016-9.921-17.655-24.239-17.655-39.432C388.414,240.797,395.051,226.477,406.069,216.561z"/>
<g>
</g>
<g>
</g>
<g>
</g>
<g>
</g>
<g>
</g>
<g>
</g>
<g>
</g>
<g>
</g>
<g>
</g>
<g>
</g>
<g>
</g>
<g>
</g>
<g>
</g>
<g>
</g>
<g>
</g>
</svg>
