<?xml version="1.0" encoding="iso-8859-1"?>
<!-- Generator: Adobe Illustrator 19.0.0, SVG Export Plug-In . SVG Version: 6.00 Build 0)  -->
<svg version="1.1" id="Layer_1" xmlns="http://www.w3.org/2000/svg" xmlns:xlink="http://www.w3.org/1999/xlink" x="0px" y="0px"
	 viewBox="0 0 512 512" style="enable-background:new 0 0 512 512;" xml:space="preserve">
<rect x="247.172" y="203.034" style="fill:#625D6B;" width="17.655" height="300.138"/>
<path style="fill:#EDEDEE;" d="M361.931,211.862H150.069c-14.603,0-26.483-11.88-26.483-26.483V26.483
	C123.586,11.88,135.466,0,150.069,0h211.862c14.603,0,26.483,11.88,26.483,26.483v158.897
	C388.414,199.982,376.534,211.862,361.931,211.862z"/>
<path style="fill:#736F7B;" d="M282.483,512h-52.966c-4.879,0-8.828-3.948-8.828-8.828c0-4.879,3.948-8.828,8.828-8.828h52.966
	c4.879,0,8.828,3.948,8.828,8.828C291.31,508.052,287.362,512,282.483,512z"/>
<path style="fill:#625D6B;" d="M353.103,194.207H158.897c-9.732,0-17.655-7.923-17.655-17.655V35.31
	c0-9.732,7.923-17.655,17.655-17.655h194.207c9.732,0,17.655,7.923,17.655,17.655v141.241
	C370.759,186.284,362.836,194.207,353.103,194.207z M158.897,35.31v141.241h194.225L353.103,35.31H158.897z"/>
<path style="fill:#E15050;" d="M291.31,176.552H220.69c-9.732,0-17.655-7.923-17.655-17.655v-52.966
	c0-9.732,7.923-17.655,17.655-17.655h70.621c9.732,0,17.655,7.923,17.655,17.655v52.966
	C308.966,168.629,301.043,176.552,291.31,176.552z M220.69,105.931v52.966h70.638l-0.018-52.966H220.69z"/>
<path style="fill:#DCDBDE;" d="M291.518,165.811l-6.311,28.396h-20.38v-26.483h-17.655v26.483h-20.38l-6.311-28.396l-17.241,3.828
	l17.655,79.448c0.914,4.113,4.569,6.914,8.612,6.914c0.638,0,1.276-0.07,1.922-0.207c4.117-0.917,6.911-4.572,6.911-8.621h8.831
	c0,4.879,3.948,8.828,8.828,8.828c4.879,0,8.828-3.948,8.828-8.828h8.83c0,4.05,2.794,7.703,6.911,8.621
	c0.647,0.138,1.284,0.207,1.922,0.207c4.043,0,7.699-2.802,8.612-6.914l17.655-79.448L291.518,165.811z M247.172,229.517h-12.533
	l-3.924-17.655h16.457V229.517z M277.361,229.517h-12.533v-17.655h16.456L277.361,229.517z"/>
<path style="fill:#D24146;" d="M308.966,176.552H203.034c-4.875,0-8.828-3.953-8.828-8.828l0,0c0-4.875,3.953-8.828,8.828-8.828
	h105.931c4.875,0,8.828,3.953,8.828,8.828l0,0C317.793,172.599,313.841,176.552,308.966,176.552z"/>
<g>
</g>
<g>
</g>
<g>
</g>
<g>
</g>
<g>
</g>
<g>
</g>
<g>
</g>
<g>
</g>
<g>
</g>
<g>
</g>
<g>
</g>
<g>
</g>
<g>
</g>
<g>
</g>
<g>
</g>
</svg>
